<svg width="207" height="145" viewBox="0 0 207 145" fill="none" xmlns="http://www.w3.org/2000/svg">
<g clip-path="url(#clip0_39_7425)">
<path d="M95.0945 69.751C95.0945 69.217 94.4229 68.7801 94.0391 69.3141C92.9357 70.8189 92.1681 71.4985 90.2492 71.7412C88.666 71.9354 86.3153 71.6441 85.02 70.6733C84.0126 69.9451 83.197 68.7316 82.4774 67.7122C82.1416 67.2753 81.9017 66.8384 81.5659 66.4015C81.6619 66.3045 81.7098 66.2074 81.5659 66.1103C81.2781 65.9161 81.1342 65.819 80.8463 65.9646C80.7024 66.0132 80.6064 66.1588 80.5585 66.3045C80.5105 69.1685 84.0126 72.1781 86.4592 72.9062C89.0498 73.5858 94.9985 73.6344 95.0945 69.751Z" fill="#A8A8A8"/>
<path d="M88.1383 65.2364C88.2343 64.7025 88.3782 64.1685 88.5221 63.6345C88.666 63.1976 88.9059 62.7122 88.9059 62.2753C88.9059 61.7414 88.1383 61.5957 87.8505 61.984C87.6106 62.3238 87.6106 62.9549 87.5146 63.3433C87.4187 63.9258 87.3707 64.5083 87.3228 65.0908C87.3707 65.6248 88.0424 65.7219 88.1383 65.2364Z" fill="#A8A8A8"/>
<path d="M92.456 61.5956C91.8323 61.1588 91.2567 61.7898 91.1607 62.4209C91.1607 62.4694 91.1607 62.4694 91.1607 62.518C91.0168 62.8578 90.8249 63.1975 90.633 63.5373C90.3451 64.0713 90.0573 64.7509 89.6255 65.2363C89.2417 65.6732 89.8654 66.3042 90.2972 65.9644C91.1607 65.2363 91.7844 64.0227 92.3121 63.0519C92.6479 62.6636 92.9837 61.984 92.456 61.5956Z" fill="#A8A8A8"/>
<path d="M105.169 91.3524C103.97 90.0903 101.667 89.3136 100.084 90.1389C100.036 90.0418 99.9398 89.9933 99.7959 89.9447C97.4931 88.9253 95.2384 87.7118 92.9356 86.6924C91.9282 86.2555 90.5369 85.4788 89.2896 85.3817C89.2896 84.4109 89.2417 83.4886 89.2896 82.5177C89.2896 81.3527 89.5775 79.6051 88.9058 78.5857C88.57 78.1003 87.8504 78.343 87.7545 78.877C87.7545 78.9256 87.7065 79.0226 87.7065 79.0712C87.6585 79.3139 87.7545 79.5081 87.8984 79.6051C88.2822 81.3041 87.7545 83.8283 87.7545 85.4788C87.6585 89.9447 87.9943 94.4106 88.1382 98.8765C88.1382 98.9736 88.1382 99.0707 88.1382 99.1678C87.9943 99.1193 87.8024 99.0707 87.6105 99.1678L86.5551 99.362C86.4592 99.362 86.3632 99.4105 86.2673 99.4591C83.2449 99.9445 79.8868 98.8766 77.0084 98.197C76.2887 98.0513 74.5137 97.4688 73.3144 97.6144C74.8016 93.1 76.1448 88.4884 77.8719 84.071C78.2557 84.071 78.6395 84.0711 78.9753 84.1196C79.6469 84.1196 79.8868 83.2944 79.2631 83.0031C78.9753 82.8575 78.6874 82.7604 78.3996 82.7119C79.407 80.2362 80.5584 77.8091 81.9017 75.5276C83.3409 76.4984 84.924 77.178 86.6031 77.5664C91.4005 78.5857 95.7181 76.3528 98.8364 72.8577C99.9877 75.9159 109.343 74.8965 106.512 70.0908C109.63 69.8481 110.254 65.9647 108.623 63.1007C112.077 60.6735 108.719 54.897 106.512 52.5669C105.121 51.0621 103.394 50.1883 101.379 50.2854C101.091 50.2854 98.7404 48.101 98.1168 47.8097C97.2053 47.4214 96.2458 47.5185 95.2863 47.7127C94.4708 45.3341 92.6957 44.3147 90.0572 44.9943C89.6734 45.0913 88.57 45.6253 88.0423 46.2078C87.8024 43.0525 83.8686 42.8584 81.6618 44.5088C78.9273 40.8681 74.6097 44.6545 74.1779 48.5379C68.3731 46.6933 65.3507 55.2853 71.2035 57.4212C69.0927 59.46 66.4541 63.0036 68.469 65.3336C70.7718 68.0035 72.9786 65.5278 74.5617 62.955C74.8495 67.6151 77.3921 72.2267 81.1341 75.0421C79.455 77.4207 78.1597 79.9449 77.0084 82.5662C75.9529 82.5662 74.8495 82.7119 73.986 82.7604C71.4434 83.0031 68.9008 83.3915 66.3582 83.4886C66.3102 83.4886 66.2143 83.4885 66.1663 83.5371C65.9744 83.1002 65.6865 82.7119 65.3987 82.3721C64.7271 81.6439 63.8156 81.1585 62.8081 81.2071C62.3284 81.2556 61.8966 81.4498 61.5128 81.7896C60.1696 81.5954 59.354 83.5371 59.4979 84.9934C59.7858 87.9059 63.096 88.7797 65.3507 87.5176C66.4541 86.8865 66.694 85.673 66.5021 84.5565C68.3731 84.605 70.292 84.3623 72.163 84.1681C73.6022 84.0225 74.9935 84.0225 76.4327 84.0225C75.1374 87.3234 74.0819 90.7214 73.0265 94.1194C70.6758 101.498 67.5575 108.537 64.871 115.769C64.775 116.061 64.823 116.498 65.1109 116.692C67.7494 118.439 70.6278 120.187 73.6982 121.449C73.6982 121.449 73.6982 121.449 73.6982 121.497C73.2664 122.905 72.9786 124.41 72.7387 125.866C72.7387 125.963 72.6907 126.012 72.6907 126.109C70.8677 124.653 67.9893 123.925 66.646 126.255C64.5832 129.75 70.0042 131.643 72.3549 131.983C72.6907 132.031 72.9786 131.837 73.1225 131.546C73.5542 130.478 73.5063 129.167 73.6022 127.954C73.8421 127.711 73.8901 127.371 73.6982 127.08C73.8901 125.284 74.1779 123.536 74.4657 121.74C76.1928 122.371 77.9198 122.857 79.7428 123.099C79.7908 123.196 79.8388 123.245 79.8868 123.342C80.1746 123.876 80.1266 124.604 80.0787 125.235C79.9827 126.594 79.6469 127.954 79.551 129.313C79.551 129.458 79.551 129.604 79.551 129.75H79.503C79.0712 129.944 79.0232 130.575 79.503 130.769C79.5509 130.769 79.5989 130.818 79.6469 130.818C79.9347 132.711 81.0861 134.216 83.2929 134.604C85.4038 134.944 88.8099 133.487 87.8984 130.866C87.4186 129.507 85.7396 128.779 84.4443 128.73C83.4848 128.73 82.1895 128.876 81.0381 129.216C81.1821 127.565 81.4219 124.75 80.9902 123.196C81.5179 123.245 81.9976 123.245 82.5253 123.245C87.2747 123.148 92.6958 122.177 92.3599 116.4C92.216 113.488 90.8248 110.527 90.2971 107.711C89.4335 103.245 89.7214 98.294 89.5775 93.7796C89.5295 91.3524 89.4335 88.9253 89.4335 86.4496C90.6809 87.0322 92.0721 87.4205 93.2235 88.003C95.1904 88.9739 97.1573 90.0904 99.1722 91.0127C99.1242 91.0612 99.1242 91.1097 99.0762 91.1583C98.9803 91.3525 99.0283 91.5466 99.1242 91.6922C98.5006 92.6145 98.2127 93.7796 98.5006 94.9931C99.1722 97.8571 102.291 98.6338 104.641 97.2261C106.8 95.964 106.992 93.2456 105.169 91.3524ZM64.9669 86.2555C64.4392 86.8865 63.2879 86.9351 62.5683 86.838C61.7527 86.7409 61.129 86.1584 60.8412 85.4303C60.6973 85.0905 60.6973 84.5565 60.7453 84.071C60.9372 84.2652 61.225 84.3138 61.4169 84.1196C61.7527 83.7798 62.0406 83.2944 62.3764 82.9546C62.5203 82.9546 62.6642 82.8575 62.6642 82.7604C62.7602 82.7119 62.8081 82.7119 62.9041 82.6633C63.4318 82.5662 63.9115 82.8575 64.2953 83.1973C65.1588 83.8769 65.7345 85.3332 64.9669 86.2555ZM94.9026 49.2175C96.8695 48.4893 98.5965 49.2175 100.18 51.4019C100.324 51.6446 100.563 51.9359 100.899 51.8388C104.833 50.8679 111.837 60.1396 107.328 62.1783C106.896 62.3725 106.752 62.9065 107.04 63.2948C108.623 65.3822 108.767 69.4597 105.025 68.4889C104.449 68.3433 103.922 69.217 104.353 69.6539C108.959 74.6053 96.1019 74.7994 102.051 69.6054C102.434 69.2656 102.434 68.4889 101.859 68.3433C105.361 61.3531 104.881 52.9552 97.2533 51.8873C96.8695 50.5767 95.958 49.7515 94.7106 49.266C94.7586 49.2175 94.8546 49.266 94.9026 49.2175ZM78.3516 53.0523C76.3847 54.994 75.2813 57.227 74.8016 59.6056C74.6097 59.9939 74.4657 60.3823 74.2738 60.7221C74.034 61.256 73.7941 61.79 73.5063 62.324C72.7867 64.3628 71.3954 64.3628 69.4285 62.3725C70.0042 60.5765 71.6353 58.7318 73.0745 57.5668C73.5542 57.1785 73.3624 56.4018 72.7387 56.3047C66.9339 55.3824 69.4285 47.6156 74.6097 50.1883C75.0894 50.431 75.6651 49.9456 75.5691 49.4602C75.3772 47.6156 78.2557 41.2565 80.9422 45.9651C81.1821 46.3534 81.8057 46.3049 82.0456 45.9651C84.4443 43.1011 86.3632 45.237 86.8909 47.0816C87.0349 47.567 87.7065 47.5185 87.8984 47.1787C87.9464 47.2272 88.0423 47.2758 88.0903 47.3243C88.1862 47.3729 88.3302 47.3243 88.3302 47.1787C88.1383 45.2855 93.6552 46.5962 94.087 48.5864C94.135 48.7806 94.2789 48.9747 94.4708 49.1204C89.7694 47.567 80.7023 50.7708 78.3516 53.0523ZM84.924 51.3048C87.8504 50.2854 93.3674 49.1204 95.6701 51.7902C95.0465 52.0815 94.9985 53.198 95.814 53.198C96.0539 53.198 96.2458 53.2465 96.4857 53.2465C96.5337 53.3436 96.5816 53.4407 96.5816 53.5863C96.6776 54.0232 97.3972 54.1203 97.3972 53.5863C97.3972 53.5378 97.3972 53.4892 97.3972 53.4407C101.907 54.5086 103.01 59.1687 102.147 63.7802C101.859 65.2365 101.379 66.6928 100.707 68.052C98.4046 67.1297 97.733 63.6346 99.508 61.7414C100.036 61.1589 99.3161 60.3823 98.6925 60.625C96.1978 61.6929 94.9985 60.4793 95.0465 56.9843C95.5262 56.2076 94.5188 55.3338 93.9431 56.062C93.0796 57.1785 87.1788 60.8677 87.4186 56.062C87.4666 55.2853 86.4112 54.994 86.0754 55.528C86.0274 55.4795 85.9315 55.4795 85.8835 55.528C85.5477 55.6736 85.5956 56.0134 85.4997 56.3532C85.4037 56.5959 85.2598 56.8387 85.0679 57.0328C84.6362 57.3726 84.0605 57.4697 83.5328 57.4697C83.101 57.4697 82.7172 57.3726 82.3334 57.1785C82.3334 57.1299 82.3814 57.1299 82.4294 57.0328C82.6213 56.7416 82.5253 56.2561 82.1415 56.2561C81.6618 56.2076 81.278 56.4503 81.0381 56.7901C80.9902 56.6445 80.9422 56.4989 80.8942 56.3047C80.7983 56.062 80.4145 56.1105 80.4145 56.3532C80.3665 57.7124 78.8314 60.8677 76.8165 59.0231C77.7759 54.7028 80.8942 52.664 84.924 51.3048ZM76.5766 60.3337C78.5435 61.159 80.9422 60.0425 81.1341 58.0037C81.6138 58.5862 82.5253 58.7804 83.197 58.7804C84.1564 58.8289 85.0679 58.5862 85.7396 57.9066C85.8835 57.761 86.0274 57.5668 86.1234 57.3726C86.843 60.4308 90.441 60.2366 93.1275 58.6833C93.0795 60.8677 94.9505 62.3725 97.3492 62.324C95.6222 65.2851 96.5816 68.4889 99.9398 69.4597C98.0208 72.5665 95.0944 75.0421 91.5924 75.9645C82.1415 78.3916 75.4732 69.0229 76.5766 60.3337ZM71.9231 130.478C70.1961 130.138 66.8379 129.119 67.7974 127.08C68.7089 125.138 71.2995 126.983 72.4029 127.905C72.3069 128.779 72.163 129.653 71.9231 130.478ZM82.5253 130.575C83.3409 130.381 84.2524 130.187 85.0679 130.429C85.7396 130.623 86.795 131.546 86.3152 132.322C85.6436 133.342 84.0125 133.39 82.9571 133.245C81.7577 133.051 81.1341 132.128 80.8462 131.012C81.4219 130.866 81.9976 130.672 82.5253 130.575ZM77.4401 99.7989C78.1117 99.993 78.7834 100.139 79.455 100.284C80.8942 100.624 82.4294 100.964 83.9645 101.061C84.3004 103.1 84.972 104.702 84.7321 106.983C84.3963 109.944 82.6213 112.711 79.3591 112.274C75.3772 111.74 73.1705 100.915 77.4401 99.7989ZM88.1382 100.624C88.2342 103.974 88.3301 107.323 89.1937 110.527C89.7694 112.566 90.393 114.604 90.7288 116.74C91.3525 120.915 86.4112 121.594 83.4848 121.837C78.8314 122.226 74.2259 120.284 70.1961 118.148C66.694 116.303 66.4541 115.721 67.8454 112.177C68.8048 109.75 69.7643 107.371 70.7238 104.944C71.4914 103.003 72.211 100.964 72.8826 98.9736C73.4103 99.0707 74.034 99.0707 74.5617 99.1678C75.0414 99.2649 75.5212 99.362 75.9529 99.4591C74.4178 100.284 74.034 102.906 73.986 104.556C73.8901 107.857 75.0894 111.789 78.1117 113.439C81.1341 115.09 84.2044 112.711 85.4517 110.041C86.4112 107.954 87.0828 103.488 85.6436 101.11C86.5071 101.012 87.3227 100.915 88.1382 100.624ZM104.113 95.9155C102.626 97.129 100.42 96.9349 99.6999 95.0417C99.0283 93.2942 100.036 91.9835 101.427 91.3039C101.523 91.3039 101.619 91.2554 101.715 91.2554C101.811 91.2554 101.955 91.2554 102.051 91.3039C102.051 91.5952 102.003 91.8379 102.003 92.1777C102.003 92.4689 102.434 92.4689 102.482 92.1777C102.53 91.8864 102.578 91.6922 102.626 91.4495C103.058 91.5952 103.49 91.8379 103.826 92.1291C105.121 93.1 105.457 94.8475 104.113 95.9155Z" fill="#A8A8A8"/>
<path d="M156.522 43.0096C155.899 43.7377 155.659 44.8057 155.419 45.728C155.083 46.893 154.795 48.1066 154.507 49.2716C154.411 49.757 155.083 49.9026 155.227 49.4658C155.563 48.4464 155.899 47.3784 156.234 46.359C156.57 45.3882 157.146 44.4659 157.338 43.4465C157.386 43.0096 156.858 42.5727 156.522 43.0096Z" fill="#A8A8A8"/>
<path d="M136.997 38.689C136.805 38.4949 136.421 38.4949 136.277 38.7861C135.846 39.6599 136.277 41.2132 136.325 42.1356C136.421 43.6889 136.373 45.2423 136.469 46.7956C136.517 47.3782 137.381 47.3782 137.381 46.7956C137.477 45.2423 137.477 43.6889 137.429 42.1356C137.477 41.2132 137.765 39.3686 136.997 38.689Z" fill="#A8A8A8"/>
<path d="M153.164 70.4359C152.972 69.902 152.157 69.8049 152.013 70.4359C150.909 74.9504 144.865 73.9796 141.363 73.1543C139.108 72.6204 136.901 71.6495 135.126 70.1447C133.111 68.4943 133.159 66.7467 132.823 64.4652C132.775 64.0769 132.248 64.1254 132.104 64.3681C128.698 69.7564 138.148 73.931 141.698 74.7562C144.241 75.3873 155.131 76.0669 153.164 70.4359Z" fill="#A8A8A8"/>
<path d="M140.691 58.2028C140.019 59.8047 139.54 61.6007 139.012 63.2512C138.82 63.9308 139.827 64.1735 140.067 63.5424C140.643 61.9405 141.459 60.3387 141.89 58.6882C142.034 58.0086 140.979 57.5232 140.691 58.2028Z" fill="#A8A8A8"/>
<path d="M146.832 59.4168C146.688 59.1255 146.352 59.077 146.064 59.2226C145.536 59.5138 145.488 60.3391 145.344 60.873C145.057 61.9895 144.721 63.1545 144.673 64.3195C144.625 64.9506 145.584 65.0476 145.776 64.4651C146.064 63.3972 146.304 62.2807 146.64 61.2128C146.784 60.6303 147.119 59.9993 146.832 59.4168Z" fill="#A8A8A8"/>
<path d="M163.766 53.2035C164.198 52.7666 163.622 51.9414 163.095 52.3297C161.799 53.2035 160.552 54.5141 159.545 55.9218C159.065 54.9995 158.489 54.1258 157.818 53.3005C157.674 53.1549 157.53 53.0093 157.386 52.8151C158.105 52.1355 158.729 51.4074 159.401 50.6793C159.976 49.9997 161.032 49.223 161.272 48.3492C161.368 48.0094 161.032 47.6211 160.648 47.7182C159.832 47.9609 159.305 48.9803 158.777 49.6599C158.105 50.5336 157.482 51.3588 156.762 52.1841C154.651 49.9997 152.061 48.155 149.278 47.1842C149.662 46.3104 149.95 45.4366 150.238 44.5143C150.621 43.3979 151.197 42.2328 151.293 41.0678C151.341 40.5824 150.621 40.4368 150.382 40.8251C149.854 41.6989 149.71 42.8639 149.422 43.8833C149.134 44.9027 148.799 45.9221 148.511 46.99C147.023 46.5531 145.44 46.359 143.857 46.456C143.905 45.3881 143.953 44.3202 144.049 43.2522C144.097 42.5726 144.241 41.8931 144.385 41.262C144.481 40.8251 144.721 40.4368 144.721 39.9999C144.721 39.6601 144.337 39.3688 144.001 39.6115C143.234 40.1455 143.138 41.3105 143.042 42.1843C142.898 43.6406 142.85 45.1454 142.946 46.6502C142.37 46.7473 141.794 46.8444 141.219 47.0386C140.835 47.1842 140.691 47.4754 140.691 47.8152C131.912 48.7376 126.874 57.9606 127.018 66.8925C125.963 67.3293 124.764 67.7177 123.756 67.1837C123.037 66.7954 122.605 66.0187 122.557 65.242C122.509 64.5139 122.701 63.6887 123.276 63.2518C124.236 62.5236 125.435 63.1061 126.395 63.543C127.066 63.8828 127.594 62.9605 126.97 62.5236C125.723 61.6499 124.044 61.1159 122.653 61.9411C121.549 62.5722 121.07 63.9314 121.07 65.1449C121.118 66.4556 121.789 67.7177 122.893 68.3973C124.14 69.1254 125.723 68.9798 127.066 68.4458C127.402 72.7176 128.985 76.7951 131.96 79.6591C130.185 79.1737 127.306 86.358 126.443 88.5424C124.62 88.8822 122.845 89.2706 121.07 89.6104C119.918 89.8531 118.047 89.8046 116.8 90.2414C116.512 89.4648 116.08 88.7852 115.409 88.2997C114.497 87.6201 113.298 87.6201 112.242 88.0085C112.099 87.8628 111.907 87.8143 111.715 87.9114C110.036 88.7851 108.405 90.5812 109.412 92.5715C110.18 94.1248 112.195 94.8044 113.826 94.853C115.601 94.853 117.04 93.688 117.04 91.8433C117.04 91.6977 117.04 91.5521 117.04 91.455C118.095 91.5521 119.343 91.1637 120.206 91.0666C122.077 90.8239 123.996 90.4356 125.867 90.0958C123.324 96.552 120.974 104.27 122.989 111.066C123.612 113.105 124.716 114.707 126.155 115.823C125.051 118.833 125.003 122.134 123.996 125.192C122.221 123.542 119.582 122.522 117.424 123.784C114.065 125.726 116.512 129.124 119.295 130.046C122.077 130.969 123.756 129.609 124.812 127.328C125.147 127.231 125.387 126.891 125.147 126.551C126.347 123.347 126.587 118.93 127.018 116.454C129.081 117.717 131.576 118.105 133.975 117.668C134.358 121.746 135.894 126.503 138.34 129.609C140.403 132.231 144.625 133.056 147.359 130.872C150.142 128.687 149.182 124.512 145.68 123.979C144.049 123.736 142.37 124.367 141.219 125.483C140.547 126.114 139.635 127.571 139.3 128.784C136.805 126.066 135.606 120.726 135.03 117.425C136.565 116.988 138.004 116.26 139.3 115.192C145.584 109.901 145.536 101.795 144.145 94.0277C146.688 95.7753 149.326 97.3772 151.869 99.0276C151.917 99.0762 151.917 99.0762 151.965 99.1247C151.485 99.9014 151.341 100.921 151.389 101.843C151.581 104.513 153.74 106.26 156.33 105.241C159.449 103.979 160.792 100.678 158.585 97.9112C156.858 95.7753 152.972 95.2899 151.821 98.1539C149.518 95.7267 146.64 93.8821 143.857 92.086C143.857 91.9404 143.761 91.7948 143.617 91.6977C143.042 88.8822 142.322 86.1639 141.794 83.6882C145.968 83.6396 150.19 81.8436 153.548 79.0766C155.083 81.9407 158.729 82.4261 161.08 79.999C162.039 78.9796 162.615 77.4747 162.231 76.1155C161.991 75.3389 161.464 74.8049 160.84 74.3195C160.216 73.834 159.113 73.2515 158.345 73.5428C158.825 72.7176 159.257 71.8438 159.593 71.0186C161.224 66.6983 161.703 61.5528 159.928 57.2325C160.36 56.6985 160.792 56.1646 161.32 55.6791C162.135 54.6112 163.047 53.9801 163.766 53.2035ZM115.745 91.989C115.601 93.154 114.401 93.3967 113.442 93.2996C112.386 93.2025 111.187 92.7171 110.611 91.7463C110.132 90.9696 110.563 90.1443 111.139 89.4647C111.283 89.5618 111.523 89.6104 111.715 89.4647C112.674 88.9308 114.065 88.6881 114.977 89.4647C115.601 90.0473 115.888 91.2123 115.745 91.989ZM123.468 126.648C123.037 127.571 122.461 128.347 121.453 128.639C120.062 129.027 117.088 127.425 117.28 125.775C117.472 124.221 120.302 124.464 121.166 124.804C121.741 125.046 122.221 125.435 122.749 125.775C123.037 125.969 123.276 126.163 123.564 126.357C123.516 126.454 123.468 126.551 123.468 126.648ZM140.595 129.415C140.835 128.784 141.123 128.153 141.411 127.571C142.178 126.017 143.282 125.289 144.961 125.144C147.359 124.949 148.367 127.522 146.736 129.27C145.776 130.289 143.953 130.386 142.658 130.289C141.842 130.241 141.171 129.998 140.499 129.561C140.595 129.561 140.595 129.512 140.595 129.415ZM153.068 99.4645C153.5 98.6878 154.172 98.6878 154.939 98.4451C155.179 98.3966 155.179 98.1053 154.987 97.9597C154.651 97.717 154.22 97.6199 153.788 97.717C154.124 97.4743 154.555 97.2801 155.083 97.2801C156.043 97.2801 156.906 97.8626 157.53 98.5422C159.353 100.484 157.961 102.862 155.803 103.785C154.124 104.464 152.924 103.299 152.684 101.649C152.636 100.872 152.732 100.096 153.068 99.4645ZM142.13 91.1152C141.698 91.3579 141.746 92.086 142.13 92.3773C142.226 92.4258 142.322 92.5229 142.418 92.5715C143.713 99.1733 144.145 105.775 140.163 111.697C138.772 113.833 136.805 115.241 134.694 115.872C134.454 115.726 134.119 115.823 133.975 116.066C131.576 116.503 128.985 115.92 126.779 114.076C124.572 112.231 123.996 109.076 123.852 106.358C123.564 100.581 125.627 94.6103 127.738 89.3191C128.65 87.0376 129.705 84.8532 130.856 82.6688C131.048 82.329 131.96 80.1446 132.248 79.999C132.343 79.9504 132.343 79.8533 132.343 79.8048C133.063 80.4358 133.831 81.0183 134.694 81.5523C136.469 82.6203 138.388 83.2028 140.307 83.3484C140.883 85.8726 141.554 88.4939 142.13 91.1152ZM159.928 75.0961C160.36 75.3389 160.744 75.7757 160.936 76.2612C161.272 77.1835 160.792 78.1543 160.216 78.7854C159.497 79.6106 158.489 80.096 157.434 80.096C156.091 80.096 155.131 79.2223 154.363 78.2029C155.803 76.9408 157.05 75.4359 158.057 73.8826C158.057 73.9311 158.057 73.9797 158.105 74.0282C158.489 74.6593 159.353 74.7078 159.928 75.0961ZM156.138 74.0282C151.341 81.3581 139.444 84.8532 132.775 78.1543C129.945 75.3389 128.602 71.5525 128.41 67.6691C128.697 67.3779 128.65 66.9896 128.362 66.7468C128.362 57.8636 134.454 48.6405 143.761 48.7861C144.289 48.7861 144.385 48.2521 144.193 47.9123C149.662 47.524 154.987 51.5045 157.866 55.9704C161.368 61.4557 159.449 68.9798 156.138 74.0282Z" fill="#A8A8A8"/>
<path d="M56.06 118.15C56.0274 116.067 54.1704 114.535 52.3027 115.543C50.7716 116.386 49.6325 118.256 49.1131 120.035C46.6831 117.288 45.0284 114.098 43.2858 110.867C45.8596 108.853 47.2796 105.626 46.7274 102.087C46.3727 100.017 45.4812 97.9684 44.2971 96.1051C46.518 96.2115 49.166 94.8677 50.8629 93.8878C51.9941 93.2344 53.6996 91.5159 53.9265 89.9217C55.6933 89.9812 57.3556 88.7204 57.0694 86.7342C56.9064 85.5465 56.0309 84.3005 54.9463 83.6492C54.9658 83.605 54.9413 83.5408 54.8534 83.5009C53.9887 82.9493 53.2126 82.9153 52.559 83.202C52.3688 83.2748 52.1786 83.3476 51.9884 83.4203C51.8421 83.5131 51.7837 83.6457 51.7499 83.8424C50.4198 85.3071 50.1952 88.3342 52.3152 89.5086C52.3844 90.0704 52.4097 90.6122 51.9471 91.3039C51.2605 92.265 50.1098 92.9626 49.0614 93.5474C47.4229 94.3948 45.6669 95.0297 43.8568 95.4279C42.2181 93.04 40.072 90.8461 38.0096 89.0615C41.1174 88.3507 44.014 86.8015 46.1093 84.6765C46.231 84.5196 46.3333 84.4069 46.4991 84.27C48.3402 84.9996 50.3008 84.1394 50.9809 82.1145C51.6466 80.2422 50.6571 77.9368 48.7677 77.5566C48.7399 72.3465 45.4076 66.8564 40.4081 65.754C40.2128 65.7184 40.0421 65.7469 39.8958 65.8396C39.6955 65.6957 39.4757 65.5959 39.2999 65.5161C39.9721 64.7075 40.6004 63.8789 41.2287 63.0504C41.5305 62.604 41.9787 62.0649 41.8021 61.5075C41.6306 61.0584 41.1716 60.9031 40.7717 61.0928C40.4986 61.234 40.3869 61.6076 40.5483 61.84C40.49 61.9726 40.4316 62.1052 40.3733 62.2378C40.1398 62.7683 39.7551 63.2831 39.4338 63.7737C39.1124 64.2643 38.7471 64.7349 38.4063 65.2697C37.3665 65.1159 36.2244 65.0748 35.0679 65.1863C35.3885 64.2181 35.6211 63.21 35.8783 62.266C36.0678 61.7156 36.4475 61.0924 36.183 60.495C36.041 60.2184 35.7139 60.123 35.4847 60.2842C34.9631 60.6308 34.935 61.4136 34.8529 61.9597C34.6008 63.012 34.3098 64.1528 34.3603 65.2364C32.6475 65.4136 30.9448 65.8076 29.5008 66.2128C29.33 66.2414 29.1398 66.3142 28.9496 66.3869C28.9142 65.6284 28.4537 64.5178 28.3311 64.197C27.8951 63.1505 27.4396 62.1482 27.0476 61.1217C26.9006 60.7368 26.7975 60.3718 26.6505 59.9868C27.0115 59.8855 27.1815 59.3793 26.8248 59.1113C26.3311 58.6751 25.6379 58.5726 25.3267 59.2799C25.0155 59.9872 25.5783 60.9852 25.8234 61.6268C26.2839 62.7374 26.8273 63.7796 27.3073 64.846C27.5227 65.315 27.7137 65.7199 27.8853 66.169C27.9588 66.3615 28.0323 66.554 28.1252 66.7022C21.6719 69.0236 19.6476 75.901 22.3221 82.0472C22.2587 82.0714 22.2148 82.0515 22.1514 82.0757C21.5562 82.2299 20.9906 82.5565 20.6058 83.0713C19.8313 83.9926 19.809 85.3615 20.1622 86.4764C20.4908 87.5272 21.3952 88.468 22.4984 88.5975C23.1916 88.7 23.8257 88.4574 24.3914 88.1308C24.8741 87.8726 25.4542 87.3934 25.8829 86.8985C27.4026 88.1187 29.2243 88.8925 31.1137 89.2727C30.5049 90.0571 29.9695 91.0339 29.5027 92.0949C25.7009 92.2255 15.5578 97.5392 18.039 101.848C17.2155 102.641 16.8712 104.022 17.2344 105.354C17.961 108.017 20.8621 109.334 23.3105 108.324C25.5688 107.387 25.9454 104.853 24.8197 102.857C24.3059 101.987 23.4556 101.283 22.4547 101.041C21.8883 100.89 21.1367 100.92 20.5661 101.138C20.1315 101.047 19.746 101.084 19.3605 101.121C18.7492 97.2376 25.441 94.4941 29.002 93.3526C27.2002 99.0051 27.6519 106.847 31.2551 110.763C29.4402 114.288 28.1528 118.053 26.8654 121.817C24.808 120.141 21.2564 121.022 21.2761 124.213C21.2541 128.817 27.523 127.154 28.8609 124.473C29.2161 123.786 28.2245 123.283 27.7324 123.802C27.3426 124.208 26.9528 124.615 26.5191 125.001C23.8286 127.28 24.3483 119.508 26.4534 123.593C26.7128 124.082 27.6064 124.328 27.8102 123.625C28.4218 121.516 29.0969 119.383 29.8158 117.27C30.3453 115.707 31.9174 112.973 32.1104 111.576C33.7866 112.92 35.9253 113.572 38.6966 113.027C39.9555 112.803 41.1163 112.322 42.1647 111.737L42.0783 112.653C42.0394 112.741 42.1712 112.801 42.2101 112.712C42.3657 112.359 42.5214 112.005 42.6575 111.696C44.0644 115.569 46.2862 119.389 49.1947 122.247C49.2386 122.267 49.2631 122.331 49.3071 122.351C49.6984 122.9 51.1136 122.8 51.6014 122.65C53.8063 121.953 56.0933 120.711 56.06 118.15ZM53.6461 88.5216C53.4601 88.2251 53.2108 87.9528 52.7907 87.7091C52.5903 87.5651 52.3807 87.6821 52.2589 87.839C51.4864 86.958 51.6743 85.4522 52.4489 84.531C53.0542 84.5935 53.591 84.572 54.2504 84.8713C54.8903 85.2148 55.3061 85.8278 55.5511 86.4694C56.1147 87.945 54.8566 88.6468 53.6461 88.5216ZM19.5285 102.418C19.646 102.63 19.8903 102.794 20.105 102.785C20.0424 103.287 19.9992 103.745 19.8731 104.271C20.0431 103.765 20.2326 103.214 20.4026 102.708C20.8904 102.558 21.3292 102.28 21.9151 102.387C22.5204 102.45 23.0579 102.906 23.4247 103.39C24.2953 104.528 24.2147 106.029 22.9617 106.84C21.3333 107.904 19.3256 106.833 18.5812 105.17C18.2922 104.508 18.2128 103.73 18.5241 103.022C18.5824 102.89 18.6848 102.777 18.7431 102.644C19.0508 102.784 19.3678 102.663 19.5285 102.418ZM49.5079 79.5897C49.8992 80.1385 49.8711 80.9213 49.7501 81.5559C49.4548 83.0659 48.2695 83.4825 47.0783 83.3131C47.9206 81.9983 48.4307 80.4797 48.6381 78.9297C48.9652 79.0252 49.2535 79.209 49.5079 79.5897ZM23.8523 86.7193C23.5403 86.949 23.0964 87.1187 22.7743 87.1316C22.1056 87.0933 21.6509 86.5687 21.3813 85.863C21.1118 85.1572 21.1153 84.3103 21.539 83.7071C21.802 83.3491 22.1334 83.0753 22.5139 82.9297C22.5773 82.9055 22.6407 82.8812 22.7041 82.857C22.939 83.2818 23.174 83.7067 23.4529 84.1515C23.8687 84.7645 24.26 85.3133 24.7781 85.8137C24.4467 86.0875 24.1837 86.4455 23.8523 86.7193ZM24.6569 83.213C24.4515 82.9606 24.2656 82.6641 24.0796 82.3676C24.0991 82.3234 24.1186 82.2792 24.0306 82.2393L23.9867 82.2193C20.6788 76.7933 23.005 69.4696 29.1421 67.7471C29.6738 67.6173 34.7481 66.6322 37.6613 66.3635C37.5691 66.6929 37.9892 66.9366 38.2133 66.667C38.3156 66.5544 38.374 66.4217 38.4763 66.3091C38.9058 66.2919 39.2718 66.2989 39.4671 66.3345C39.4628 66.7038 39.6098 67.0888 40.0883 67.1999C47.1529 68.7623 48.8182 78.6402 44.8338 83.6202C42.8221 86.1544 39.7886 87.5354 36.5972 87.837C36.3089 87.6531 36.0113 87.7302 35.8262 87.9113C31.6195 88.1234 27.1755 86.4776 24.6569 83.213ZM39.1721 111.227C36.426 112.315 34.2772 111.445 32.7127 109.728C32.6637 109.599 32.5707 109.451 32.4389 109.391C31.0257 107.689 30.0751 105.295 29.6519 103.141C28.7271 98.5313 29.5093 93.1585 32.2998 89.3337C33.5103 89.4589 34.7793 89.4515 36.0626 89.2915C42.626 94.8693 51.1074 106.515 39.1721 111.227ZM51.95 120.899C51.4428 121.093 50.9744 121.198 50.4181 121.264C50.9231 119.637 53.117 115.011 54.3018 117.352C55.2516 119.268 53.3645 120.321 51.95 120.899Z" fill="#A8A8A8"/>
<path d="M31.0373 65.3069C31.5327 63.4618 31.3046 61.3415 31.2822 59.4737C31.2915 59.2126 30.959 59.0087 30.7051 59.1058C29.9679 59.4612 30.1844 60.4086 30.2392 61.1235C30.3879 62.4647 30.5171 63.8502 30.3874 65.2243C30.3196 65.6182 30.9061 65.725 31.0373 65.3069Z" fill="#A8A8A8"/>
<path d="M44.0053 78.0727C43.9751 77.4236 43.093 77.3939 42.8599 77.9235C41.1887 81.2422 38.0835 83.7512 34.1694 83.1927C31.9857 82.89 30.2969 81.2234 29.0175 79.5838C28.5145 78.9319 28.1187 78.2758 27.6985 77.5556C27.1415 76.6674 26.8098 76.4639 28.0488 77.238C27.9906 77.3704 28.0201 77.5427 28.1762 77.6665C28.5569 77.9981 29.0432 77.3716 28.6431 77.0842C28.487 76.9603 28.2726 76.9689 28.151 77.1256C27.6631 76.7983 26.8436 76.2675 26.7558 76.2276C26.6436 76.1237 26.4342 76.2405 26.4831 76.3686C27.1044 80.9395 31.1404 84.5714 35.6193 84.8038C38.7822 84.9155 44.2157 81.6628 44.0053 78.0727Z" fill="#A8A8A8"/>
<path d="M33.5904 75.4502C33.5464 75.4303 33.2436 75.399 33.3316 75.4389C33.2876 75.4189 33.2876 75.4189 33.2876 75.4189C33.2876 75.4189 33.2876 75.4189 33.307 75.3747C33.2825 75.3105 33.2775 75.2021 33.3164 75.1137C33.3113 75.0053 33.3207 74.7442 33.3546 74.5474C33.3978 74.0895 33.8937 72.7229 33.4438 72.3065C33.3017 72.0298 32.9845 72.1511 32.8238 72.3965C32.8238 72.3965 32.8238 72.3965 32.8043 72.4407C32.6436 72.6861 32.5513 73.0156 32.498 73.2567C32.3279 73.7631 32.1823 74.3337 32.1002 74.88C32.0375 75.3821 32.0627 75.9242 32.3612 76.3249C32.7967 76.8939 33.5876 76.7753 34.0165 76.2803C34.1773 76.0349 33.9372 75.5015 33.5904 75.4502Z" fill="#A8A8A8"/>
<path d="M37.2143 74.8582C37.2085 74.2718 37.2027 73.6854 37.1969 73.099C37.1867 72.8822 37.1766 72.6653 37.1665 72.4485C37.1615 72.34 37.1564 72.2316 37.0879 72.1474L37.0439 72.1275C37.0194 72.0633 37.0194 72.0633 36.9948 71.9991C36.8578 71.8308 36.6184 71.7752 36.4525 71.9122C36.3696 71.9807 36.3501 72.0249 36.3306 72.0691C36.3112 72.1134 36.1893 72.2704 36.1893 72.2704C36.1503 72.3588 36.1359 72.5115 36.097 72.5999C36.0148 73.1464 35.9961 73.6686 35.9774 74.1908C35.9587 74.713 35.94 75.2351 35.9018 75.8016C35.9025 76.2795 35.7814 76.9144 36.3094 77.154C37.5607 77.6687 37.2201 75.4446 37.2143 74.8582Z" fill="#A8A8A8"/>
<path d="M203.118 86.8961C200.701 84.8324 195.564 84.5267 195.073 88.5011C194.016 86.2846 192.165 84.6413 189.899 83.1891C189.484 82.9216 184.498 80.0172 184.234 81.6987C183.025 81.0108 181.704 81.0108 180.419 81.5076C181.704 77.1128 178.795 73.5587 174.112 73.5205C172.262 73.5205 170.109 74.1702 168.976 75.7752C167.616 77.7243 168.334 80.0172 169.505 81.8516C169.731 82.2337 170.298 82.2337 170.524 81.8516C170.977 81.049 171.544 80.3994 172.224 79.8643C171.997 80.7433 171.922 81.6223 172.148 82.6159C172.262 83.0745 172.79 83.1509 173.092 82.8834C174.528 81.6605 176.718 80.0554 177.776 82.5395C177.851 82.7688 178.04 82.8452 178.191 82.8452C175.698 84.9088 173.583 88.6158 172.715 92.4374C171.62 91.9406 170.184 91.6348 169.127 92.3227C168.258 92.896 168.069 93.9278 168.22 94.9214C168.334 95.8004 168.9 96.7558 169.656 97.1761C170.071 97.4054 170.524 97.4819 170.977 97.3672C171.393 97.2908 172.186 96.8322 172.186 96.3736C172.186 96.1825 172.148 96.1443 172.262 95.9914C172.262 95.9914 172.262 95.9532 172.299 95.9532C172.299 99.4691 173.583 102.679 176.907 104.514C175.547 107.112 174.226 109.711 172.828 112.233C170.977 111.049 168.674 110.628 166.672 109.749C165.539 109.252 164.444 108.603 163.726 107.571C162.706 106.157 163.386 104.666 163.688 103.176C164.444 103.176 165.237 102.87 165.728 102.259C166.672 101.151 166.143 99.3927 165.123 98.5137C164.557 98.0169 163.802 97.864 163.084 98.0551C163.046 97.864 162.857 97.7494 162.668 97.864C162.291 98.0933 162.026 98.4373 161.838 98.7812C161.573 99.0487 161.384 99.3927 161.271 99.7748C161.196 100.004 161.309 100.157 161.46 100.272C161.46 100.883 161.573 101.495 161.8 102.03C161.989 102.45 162.291 102.717 162.631 102.909C161.082 105.431 162.253 108.373 164.519 109.902C166.823 111.469 169.769 112.004 172.413 112.883C169.656 117.775 166.521 122.284 161.8 125.8C161.498 126.029 161.347 126.488 161.687 126.755C164.028 128.781 166.634 130.233 169.391 131.227C168.334 133.405 167.276 135.621 166.521 137.952C164.406 136.882 161.196 135.583 159.949 137.685C158.099 140.819 164.33 142.003 165.992 142.5C166.256 142.577 166.672 142.386 166.71 142.08C166.823 141.201 167.05 140.322 167.276 139.481C167.389 139.481 167.503 139.481 167.616 139.443C167.994 139.366 168.069 138.755 167.729 138.564C167.692 138.526 167.616 138.526 167.578 138.488C168.334 136.118 169.353 133.863 170.071 131.494C171.733 132.067 173.47 132.488 175.207 132.793C175.207 132.793 175.207 132.793 175.17 132.832C174.414 133.825 174.414 135.507 174.188 136.691C173.772 138.87 173.432 141.01 172.979 143.188C172.904 143.494 173.055 143.8 173.357 143.876C175.736 144.678 182.119 146.284 183.403 143.112C184.159 141.239 181.779 140.093 180.419 139.749C178.644 139.328 176.492 139.252 174.679 139.71C174.83 138.793 174.981 137.876 175.094 136.959C175.283 135.774 175.812 134.093 175.434 132.908C178.984 133.519 182.648 133.634 186.236 133.558C186.576 133.558 186.802 133.29 186.84 132.946C187.029 130.653 186.387 128.666 185.745 126.488C184.876 123.507 184.914 120.259 184.65 117.163C184.347 113.762 184.385 109.329 183.101 106.08C185.896 106.08 188.54 105.163 190.692 103.596C191.901 104.628 193.789 104.666 194.885 103.405C195.376 102.832 195.64 102.03 195.451 101.265C195.262 100.577 194.696 100.157 194.054 99.9659C194.922 98.5519 195.527 96.9468 195.791 95.1889C196.32 95.2653 196.509 94.5392 196.093 94.2335C196.018 94.1953 195.98 94.1571 195.904 94.1189C195.942 93.6603 195.942 93.1635 195.942 92.7049C195.904 91.2527 195.564 89.9533 195.073 88.8069C195.187 88.8451 195.376 88.8069 195.376 88.654C196.207 85.0617 200.928 86.2846 202.816 88.2336C204.969 90.4884 204.667 95.3036 203.118 98.0169C202.363 95.9532 201.494 93.9278 200.55 91.9024C200.323 91.4438 199.643 91.5966 199.53 92.017C199.379 92.5902 199.152 93.1253 198.85 93.5839C198.473 91.482 197.566 88.0425 195.678 88.7686C195.187 88.9597 195.3 89.6094 195.791 89.6858C197.264 89.8769 197.755 93.6985 197.906 94.8832C197.982 95.38 198.473 95.6093 198.85 95.2654C199.417 94.7685 199.795 94.2335 200.097 93.6221C200.928 95.4946 201.683 97.3672 202.401 99.3162C202.514 99.6602 203.043 99.9277 203.307 99.5455C206.14 96.3354 206.517 89.8005 203.118 86.8961ZM172.375 95.6093C172.299 95.7239 172.224 95.8386 172.148 95.915C171.997 96.0679 171.846 95.915 171.695 96.0297C171.544 96.1443 171.355 96.259 171.204 96.3354C171.015 96.4118 170.902 96.45 170.789 96.45C170.751 96.45 170.713 96.45 170.713 96.45C170.713 96.45 170.713 96.45 170.675 96.45C170.638 96.45 170.524 96.4118 170.486 96.4118C169.92 96.1443 169.618 95.5711 169.467 94.9214C169.391 94.6539 169.391 94.2335 169.429 94.0042C169.505 93.6985 169.656 93.4692 169.769 93.3546C170.071 93.1253 170.373 93.087 170.826 93.087C171.468 93.1253 172.035 93.3546 172.639 93.5456C172.45 94.1953 172.413 94.9214 172.375 95.6093ZM162.668 101.38C162.442 100.96 162.366 100.424 162.404 99.8895C163.008 99.3162 163.537 98.6666 164.444 99.278C165.123 99.7366 165.426 100.807 165.048 101.495C164.481 102.488 163.122 102.297 162.668 101.38ZM165.803 141.201C165.048 140.972 164.33 140.78 163.575 140.551C162.933 140.322 162.329 140.054 161.724 139.71C160.667 139.099 160.818 137.761 162.102 137.723C163.462 137.685 164.859 138.793 166.181 139.29C166.068 139.94 165.917 140.551 165.803 141.201ZM174.679 140.933C175.85 140.589 177.134 140.589 178.342 140.628C179.022 140.666 184.121 141.583 182.081 143.15C180.344 144.487 176.416 143.532 174.263 142.882C174.377 142.233 174.49 141.583 174.603 140.933C174.641 140.933 174.641 140.933 174.679 140.933ZM173.168 81.393C173.13 80.4376 173.432 79.6733 173.886 78.6797C174.112 78.1446 173.621 77.5714 173.092 77.8771C171.884 78.5268 170.864 79.3675 170.071 80.4376C169.391 79.1 169.051 77.5714 170.033 76.3103C170.977 75.1256 172.677 74.7052 174.112 74.667C178.418 74.5141 180.571 77.8771 179.664 81.8516C179.4 82.0044 179.098 82.1955 178.833 82.3866C178.871 82.2719 178.871 82.1191 178.833 81.9662C177.587 79.1 175.132 79.979 173.168 81.393ZM184.574 82.7305C184.385 83.4949 184.536 84.3738 184.838 85.2528C183.516 88.0425 178.04 88.3101 175.245 88.1954C177.247 84.0681 180.684 81.0873 184.574 82.7305ZM183.554 117.125C184.007 121.596 184.498 125.571 185.594 129.927C186.387 133.023 184.536 132.335 182.308 132.297C179.966 132.258 177.625 132.029 175.283 131.609C170.864 130.883 166.672 129.163 163.159 126.335C170.147 120.794 174.112 112.959 177.587 104.819C179.022 105.469 180.495 105.851 181.968 106.004C181.968 106.08 181.968 106.195 182.006 106.31C183.328 109.214 183.252 113.915 183.554 117.125ZM194.62 101.609C194.734 102.03 194.469 102.526 194.205 102.832C193.827 103.252 193.261 103.482 192.694 103.482C192.241 103.482 191.863 103.291 191.523 103.061C192.279 102.412 192.996 101.686 193.601 100.883C194.016 100.96 194.469 101.112 194.62 101.609ZM194.356 97.1379C193.714 99.3162 192.354 101.112 190.617 102.412C190.428 102.182 190.013 102.45 190.164 102.756C185.82 105.66 179.362 105.775 175.547 101.991C172.828 99.3162 173.055 93.5456 174.981 88.9597C176.529 89.3419 183.403 88.6922 185.556 86.7814C185.971 87.584 186.425 88.3483 186.765 88.8833C188.426 91.6731 191.788 93.6221 194.809 94.8068C194.696 95.6093 194.545 96.4118 194.356 97.1379ZM189.597 90.3737C188.577 89.533 187.029 87.6986 186.16 85.7878C186.236 85.4056 186.16 84.9853 185.82 84.5267C185.783 84.4503 185.707 84.412 185.631 84.3738C185.443 83.6859 185.405 82.998 185.556 82.3866C186.802 83.0745 191.599 85.7878 192.128 86.2082C194.129 87.8515 194.885 90.6412 194.847 93.3546C193.11 92.3992 191.183 91.7113 189.597 90.3737Z" fill="#A8A8A8"/>
<path d="M189.068 97.1378C187.52 100.348 184.914 100.959 181.552 100.271C180.117 99.9658 178.682 99.3543 177.511 98.3989C176.303 97.4053 176.492 96.4499 176.303 95.0741C176.303 94.9595 176.114 94.883 176.038 94.9595C172.828 97.3671 179.173 100.807 180.797 101.303C183.856 102.221 189.937 101.8 190.05 97.4053C190.013 96.9085 189.295 96.6792 189.068 97.1378Z" fill="#A8A8A8"/>
<path d="M182.346 92.4375C181.666 92.4375 181.817 93.3929 181.817 93.8133C181.779 94.4629 181.704 95.1508 181.779 95.8004C181.817 96.259 182.459 96.259 182.497 95.8004C182.572 95.1508 182.648 94.5011 182.723 93.8133C182.761 93.3929 183.063 92.4375 182.346 92.4375Z" fill="#A8A8A8"/>
<path d="M184.989 92.2846C184.914 91.9406 184.498 91.8642 184.272 92.0935C183.894 92.4374 183.932 93.1635 183.894 93.6221C183.819 94.2718 183.743 94.9215 183.819 95.5712C183.856 95.8769 184.385 96.0297 184.423 95.6476C184.498 95.0743 184.574 94.5011 184.65 93.9279C184.763 93.431 185.103 92.7814 184.989 92.2846Z" fill="#A8A8A8"/>
<path d="M197.377 104.208C195.98 104.208 193.638 105.431 193.789 107.112C193.789 107.38 194.092 107.571 194.318 107.533C194.356 107.724 194.469 107.877 194.545 108.03C194.545 108.03 194.507 108.03 194.507 108.068C193.261 109.749 192.732 111.622 191.108 113.074C190.692 113.456 185.518 116.131 185.405 115.061C185.405 114.87 185.14 114.87 185.103 115.061C185.103 115.176 185.065 115.329 185.065 115.444C185.027 115.596 185.103 115.749 185.216 115.826C186.727 116.972 190.05 115.1 191.334 114.221C193.034 113.074 194.809 110.781 195.225 108.679C196.546 109.558 198.813 109.405 199.568 107.38C200.134 105.737 199.039 104.208 197.377 104.208ZM196.546 108.221C195.527 108.144 195.149 107.456 195.111 106.616C195.225 106.501 195.3 106.386 195.413 106.272C195.602 106.386 195.791 106.539 195.942 106.73C195.98 106.768 196.055 106.692 196.018 106.654C195.867 106.463 195.753 106.272 195.602 106.081C195.904 105.813 196.244 105.584 196.698 105.431C197.755 105.087 198.624 105.469 198.586 106.654C198.548 107.762 197.491 108.297 196.546 108.221Z" fill="#A8A8A8"/>
<path d="M205.687 11.0096C204.638 7.42651 203.282 3.44531 200.484 0.87965C198.779 -0.71283 196.856 -0.00506679 195.85 1.89706C194.583 4.33002 194.932 7.51498 195.85 10.1691C193.358 8.84205 190.692 7.82463 187.981 9.19593C184.222 11.0981 187.238 15.3447 189.293 16.9371C191.828 18.9277 195.632 18.6623 198.605 18.6623C200.353 18.6623 203.501 19.0162 205.118 17.8661C205.293 18.043 205.556 18.1315 205.774 17.9546C207.698 16.4948 206.211 12.779 205.687 11.0096ZM205.031 17.1583C204.987 17.2468 204.944 17.3795 204.944 17.468C202.801 16.539 199.217 17.3795 197.031 17.3353C195.02 17.291 192.703 17.2468 190.823 16.3179C190.08 15.8755 189.424 15.3447 188.856 14.7254C188.593 10.6557 189.774 9.10746 192.353 10.1249C193.971 10.523 195.457 11.4519 196.9 12.2924C197.512 12.6463 198.124 11.9828 197.818 11.3635C196.594 8.93051 196.2 6.27638 196.681 3.62225C197.555 -0.889781 201.228 3.40107 202.146 5.48014C203.282 7.86886 206.692 14.5484 205.031 17.1583Z" fill="#A8A8A8"/>
</g>
<defs>
<clipPath id="clip0_39_7425">
<rect width="206.73" height="145" fill="white"/>
</clipPath>
</defs>
</svg>
