<svg width="219" height="293" viewBox="0 0 219 293" fill="none" xmlns="http://www.w3.org/2000/svg">
<path d="M119.974 292.19C174.492 292.19 218.687 291.646 218.687 290.975C218.687 290.304 174.492 289.76 119.974 289.76C65.4564 289.76 21.2612 290.304 21.2612 290.975C21.2612 291.646 65.4564 292.19 119.974 292.19Z" fill="#5D5D5D"/>
<path d="M146.586 128.496C142.824 133.178 134.297 147.558 127.441 139.281C120.586 131.004 136.387 95.7243 146.753 90.0394C157.12 84.438 153.86 119.384 146.586 128.496Z" fill="#F2A64C"/>
<path d="M149.679 89.6216C150.348 99.6538 144.663 101.828 140.734 107.596C137.139 112.779 132.29 135.519 125.853 131.673C125.686 134.934 126.104 137.609 127.441 139.281C134.297 147.558 143.075 134.349 146.837 129.667C153.358 121.558 156.451 91.8788 149.679 89.6216Z" fill="#DD7F3A"/>
<path d="M187.719 250.723C187.551 245.707 182.117 235.34 181.866 231.745C180.78 213.186 175.095 190.111 177.603 164.278C162.22 165.7 143.493 167.706 142.406 173.725C140.149 190.613 144.162 220.208 146.168 229.822C149.011 243.366 153.358 276.389 153.107 289.932H155.95C155.448 285.669 159.461 258.749 158.792 249.72C158.291 243.282 155.532 233.167 155.532 231.244C155.532 229.321 156.786 193.455 159.377 193.455C161.718 193.455 169.41 221.713 174.259 231.494C175.931 234.839 174.927 243.366 176.432 251.225C177.937 259.083 188.387 289.932 188.387 289.932H191.146C188.387 277.81 187.802 253.398 187.719 250.723Z" fill="#404F66"/>
<path d="M170.162 179.243C171.416 194.709 178.188 213.604 179.358 232.163C179.609 235.842 185.043 246.208 185.21 251.141C185.294 253.816 185.879 277.559 188.555 289.849H191.146C188.387 277.726 187.802 253.315 187.718 250.639C187.551 245.623 182.117 235.257 181.866 231.662C180.779 213.102 176.265 186.6 178.773 160.683L143.075 165.365C142.824 166.87 143.326 170.716 142.49 173.642C145.917 176.819 159.043 179.995 170.162 179.243Z" fill="#2D3A4C"/>
<path d="M155.532 231.243C155.532 229.655 156.368 203.571 158.291 195.712C157.705 194.626 157.287 193.957 156.869 193.957C154.278 193.957 152.94 229.822 153.024 231.745C153.024 233.668 155.783 243.784 156.284 250.221C156.953 258.999 153.191 284.498 153.442 290.016H155.95C155.448 285.752 159.461 258.832 158.792 249.803C158.291 243.282 155.532 233.083 155.532 231.243Z" fill="#2D3A4C"/>
<path d="M143.075 170.966C141.236 160.85 133.126 100.991 147.673 89.287C162.22 77.5827 188.722 88.6182 192.818 97.8144C195.326 103.416 196.58 117.712 185.461 141.789C181.281 150.902 179.693 166.953 178.271 172.388C173.757 176.819 143.66 174.478 143.075 170.966Z" fill="#F2A64C"/>
<path d="M174.76 90.4576C175.847 88.3675 172.587 85.943 167.403 85.107C162.22 84.271 157.037 85.2742 155.95 87.3643C154.863 89.4543 158.123 91.8788 163.307 92.7148C168.49 93.5508 173.59 92.5476 174.76 90.4576Z" fill="#FFB9AE"/>
<path d="M190.979 103.165C189.976 100.908 181.03 108.349 176.934 133.179C175.262 143.127 174.76 163.192 173.339 168.626C170.078 171.886 154.11 173.475 145.834 172.722C153.442 175.147 174.593 176.15 178.272 172.472C179.693 167.121 181.281 150.986 185.461 141.873C196.497 117.712 193.404 108.767 190.979 103.165Z" fill="#DD7F3A"/>
<path d="M182.452 125.403C185.796 129.834 192.985 141.371 201.513 135.603C210.04 129.918 198.838 99.2357 188.638 93.0491C178.355 86.9461 176.014 116.876 182.452 125.403Z" fill="#F2A64C"/>
<path d="M202.934 117.461C203.937 123.648 203.352 128.748 200.426 130.921C190.728 137.86 184.625 126.407 181.281 121.976C180.529 120.973 179.776 117.712 179.275 116.207C179.776 119.969 180.696 124.317 182.284 126.407C185.628 130.838 191.564 143.044 201.68 136.355C205.526 133.68 205.359 125.822 202.934 117.461Z" fill="#DD7F3A"/>
<path d="M190.143 119.468C196.664 117.043 207.281 132.844 207.281 132.844C207.281 132.844 201.931 135.937 198.587 134.516C198.587 134.516 195.995 140.285 193.654 141.121C190.143 137.024 183.622 121.976 190.143 119.468Z" fill="#FFD176"/>
<path d="M127.358 124.902C133.711 123.815 140.316 141.455 140.316 141.455C140.316 141.455 134.882 143.378 132.123 141.371C132.123 141.371 128.695 146.471 126.438 146.889C123.93 142.124 121.004 125.989 127.358 124.902Z" fill="#FFD176"/>
<path d="M109.718 102.747C115.403 110.438 136.554 124.066 136.387 138.362C136.387 140.619 132.959 143.211 128.946 142.625C126.438 142.207 121.255 136.606 119.165 132.008C114.985 122.644 112.727 109.184 107.878 103.416L109.718 102.747Z" fill="#FFC397"/>
<path d="M131.705 140.201C129.113 139.95 123.679 134.6 121.422 130.169C116.907 121.474 113.981 108.85 109.216 102.998L107.962 103.5C112.811 109.268 115.152 122.728 119.248 132.092C121.255 136.69 126.438 142.291 129.03 142.709C132.457 143.294 135.551 141.371 136.303 139.365C134.966 139.95 133.377 140.368 131.705 140.201Z" fill="#F7A27C"/>
<path d="M111.473 104.837C110.805 104.085 110.136 103.332 109.634 102.747L109.216 102.914C109.968 103.499 110.721 104.168 111.473 104.837Z" fill="#EF8F6F"/>
<path d="M132.792 127.41C133.795 129.583 134.464 131.924 134.548 134.181C134.631 136.439 131.287 139.198 127.358 138.78C125.351 138.529 121.756 135.268 119.081 131.757C119.081 131.841 119.165 131.924 119.165 132.008C121.171 136.606 126.355 142.207 128.946 142.625C132.876 143.294 136.303 140.702 136.387 138.362C136.387 134.599 134.966 131.005 132.792 127.41Z" fill="#EF8F6F"/>
<path d="M172.001 89.8723L169.41 65.2932L160.13 70.393L158.207 89.0362C158.291 89.0362 165.982 94.136 172.001 89.8723Z" fill="#EF8F6F"/>
<path d="M169.493 74.9913C176.014 67.9687 186.715 56.4316 180.194 48.991C180.194 48.991 182.619 43.9748 179.275 42.2192C175.931 40.4635 174.259 43.8912 174.259 43.8912C174.259 43.8912 176.265 36.5342 172.085 34.8622C167.905 33.1901 166.066 35.8654 166.066 35.8654C166.066 35.8654 162.053 30.5985 157.705 33.2737C156.033 34.277 154.612 36.5342 154.612 36.5342C154.612 36.5342 150.683 34.0262 148.76 36.1998C146.837 38.3735 152.522 47.9041 152.522 47.9041L169.493 74.9913Z" fill="#B25A3B"/>
<path d="M180.194 48.9911C180.194 48.9911 182.619 43.975 179.275 42.2194C175.931 40.4637 174.259 43.8914 174.259 43.8914C174.259 43.8914 175.513 39.2933 173.924 36.5344C173.924 36.7852 173.924 37.1196 173.924 37.3704C173.924 46.9011 163.725 52.168 154.361 52.8369L169.493 74.9078C176.014 67.9688 186.715 56.4317 180.194 48.9911Z" fill="#843720"/>
<path opacity="0.5" d="M171.583 98.7341C179.776 99.8209 187.301 98.7341 192.233 96.226C191.481 95.39 190.812 94.7212 190.059 94.136C186.13 90.2903 179.107 86.6954 171.5 85.1069L169.41 65.2932L160.13 70.393L158.709 84.6053C155.532 85.1069 152.438 86.1938 149.679 87.8658C152.773 92.9655 161.217 97.3965 171.583 98.7341Z" fill="#A0513C"/>
<path d="M171.834 56.5987C171.834 56.5987 171.416 70.3095 170.162 73.6535C168.239 78.5861 159.545 83.3514 152.271 83.6022C149.847 75.5764 148.175 63.4541 150.014 58.4379C150.599 56.8495 148.676 55.5955 149.094 54.3414C151.853 45.6468 158.792 40.9651 164.895 42.7207C171.834 44.8944 172.168 49.6597 171.834 56.5987Z" fill="#FFC397"/>
<path d="M156.201 54.676C156.201 55.094 157.12 58.3545 158.625 58.4381C160.13 58.5217 164.394 58.1873 161.217 55.4285C157.956 52.6696 156.201 54.676 156.201 54.676Z" fill="#F7A27C"/>
<path d="M154.361 64.5411C154.528 58.7725 154.612 52.586 149.596 54.5088C149.345 54.5924 149.178 54.676 149.011 54.8432C149.011 54.8432 149.011 54.9268 149.094 55.0104C150.432 57.2677 147.339 66.6311 150.516 75.2421C152.856 75.2421 154.11 70.3096 154.361 64.5411Z" fill="#F7A27C"/>
<path d="M148.258 53.7562C149.429 53.6726 151.686 53.5054 152.856 53.2546L153.107 54.8431C153.107 54.8431 149.094 55.2611 148.593 55.1775C148.091 55.0939 148.258 53.7562 148.258 53.7562Z" fill="#A85436"/>
<path d="M161.217 54.2581C160.046 54.0073 157.789 53.5057 156.618 53.0876L156.117 54.6761C156.117 54.6761 160.046 55.6793 160.631 55.6793C161.217 55.6793 161.217 54.2581 161.217 54.2581Z" fill="#A85436"/>
<path d="M157.538 57.8527C157.622 56.6823 158.123 55.7627 158.792 55.7627C159.461 55.7627 159.879 56.7659 159.879 57.9363C159.795 59.1068 159.294 60.0264 158.625 60.0264C157.956 60.0264 157.455 59.0232 157.538 57.8527Z" fill="#543C32"/>
<path d="M158.959 71.6474C158.458 70.6442 154.361 71.0622 152.773 70.6442C151.519 70.3098 153.609 77.1651 155.615 77.1651C157.622 77.1651 159.21 72.2326 158.959 71.6474Z" fill="#4F2119"/>
<path d="M158.541 71.731L157.789 73.3195L153.442 73.0686C153.442 73.0686 152.689 70.8114 153.274 71.0622C154.529 71.5638 156.535 70.8114 158.541 71.731Z" fill="#FFF2DE"/>
<path d="M152.271 70.5604C152.355 70.3932 152.522 70.226 152.773 70.3096C153.024 70.3096 153.107 70.4768 153.107 70.7276C153.024 70.8948 152.856 71.062 152.606 70.9784C152.355 70.9784 152.188 70.8112 152.271 70.5604Z" fill="#4F2119"/>
<path d="M158.625 71.5638C158.709 71.3966 158.876 71.2294 159.127 71.313C159.377 71.313 159.461 71.4802 159.461 71.731C159.377 71.8982 159.21 72.0654 158.959 71.9818C158.709 71.9818 158.541 71.8146 158.625 71.5638Z" fill="#4F2119"/>
<path d="M150.516 58.4382C150.516 57.2678 151.101 56.2645 151.686 56.3481C152.355 56.3481 152.856 57.3514 152.773 58.5218C152.773 59.6922 152.188 60.6955 151.602 60.6119C151.017 60.6119 150.516 59.6086 150.516 58.4382Z" fill="#543C32"/>
<path d="M148.258 69.3064C149.262 67.7179 153.358 57.1841 154.027 54.5924C154.529 52.6695 155.197 69.808 155.197 69.808C155.197 69.808 147.59 70.4768 148.258 69.3064Z" fill="#FFC397"/>
<path d="M164.812 42.8044C162.554 42.1356 160.213 42.3864 158.04 43.306C158.541 43.3896 158.959 43.4732 159.461 43.5568C166.484 45.6469 166.818 50.4122 166.484 57.3512C166.484 57.3512 166.066 71.0619 164.812 74.406C163.39 78.1681 157.956 81.8466 152.271 83.4351V83.5187C159.545 83.1843 168.239 78.5025 170.162 73.57C171.416 70.2259 171.834 56.5152 171.834 56.5152C172.169 49.6598 171.834 44.8944 164.812 42.8044Z" fill="#F7A27C"/>
<path d="M169.41 64.1229C170.831 62.0329 173.673 61.1132 174.76 63.0361C175.847 64.9589 171.667 71.3963 169.744 70.6439C167.821 69.8915 168.574 65.2933 169.41 64.1229Z" fill="#FFC397"/>
<path d="M170.413 64.9589C171.249 63.7049 172.921 63.2032 173.506 64.3737C174.091 65.4605 171.667 69.2226 170.58 68.8046C169.577 68.3866 169.995 65.6277 170.413 64.9589Z" fill="#EF8F6F"/>
<path d="M170.162 67.0491C170.747 66.2966 171.751 65.9622 172.169 66.631C172.587 67.2999 170.998 69.7243 170.329 69.4735C169.577 69.2227 169.828 67.4671 170.162 67.0491Z" fill="#FFC397"/>
<path d="M167.487 67.8016H170.162C170.162 67.8016 170.246 62.1166 173.59 60.6954L172.67 44.8945C172.586 44.8945 163.725 45.9814 167.487 67.8016Z" fill="#843720"/>
<path d="M165.062 105.423C173.255 110.439 198.002 115.037 203.185 128.33C204.021 130.42 201.847 134.182 197.918 135.018C195.41 135.603 188.555 132.092 184.96 128.664C177.603 121.558 170.329 110.272 163.641 106.677L165.062 105.423Z" fill="#FFC397"/>
<path d="M199.172 126.239C199.924 128.079 198.002 131.256 194.574 132.092C192.4 132.593 186.381 129.751 183.288 126.741C180.78 124.317 181.616 125.821 184.792 128.915C188.387 132.342 195.326 135.603 197.834 135.018C201.764 134.098 203.937 130.42 203.101 128.329C201.513 124.149 197.918 120.889 193.654 118.13C189.307 115.371 196.497 119.384 199.172 126.239Z" fill="#EF8F6F"/>
<path d="M156.368 290.685H144.58C144.58 290.685 151.351 286.923 154.278 286.923C156.702 286.923 156.368 290.685 156.368 290.685Z" fill="#DDC99E"/>
<path d="M196.497 290.685H186.381C186.381 290.685 186.381 287.842 189.391 287.257C192.484 286.588 196.497 290.685 196.497 290.685Z" fill="#DDC99E"/>
<path d="M158.458 113.699L147.172 126.908L156.117 139.365L166.484 128.162L158.458 113.699ZM150.766 126.741L157.789 118.632L162.722 127.577L156.284 134.516L150.766 126.741Z" fill="#FFD176"/>
<path d="M155.699 123.23L157.538 120.972L158.876 123.397L157.12 125.236L155.699 123.23Z" fill="#FFD176"/>
<path d="M155.03 130.42L156.869 128.246L158.207 130.671L156.451 132.51L155.03 130.42Z" fill="#FFD176"/>
<path d="M152.522 126.824L154.361 124.567L155.699 126.992L154.027 128.831L152.522 126.824Z" fill="#FFD176"/>
<path d="M158.291 127.159L160.213 124.986L161.551 127.326L159.795 129.249L158.291 127.159Z" fill="#FFD176"/>
<path d="M155.197 126.908L157.036 124.735L158.374 127.159L156.618 128.998L155.197 126.908Z" fill="#FFD176"/>
<path d="M157.789 111.693L158.792 110.438L159.545 111.776L158.625 112.863L157.789 111.693Z" fill="#FFD176"/>
<path d="M167.57 128.413L168.657 127.159L169.41 128.496L168.406 129.583L167.57 128.413Z" fill="#FFD176"/>
<path d="M169.326 126.741L170.329 125.571L170.998 126.825L170.079 127.828L169.326 126.741Z" fill="#FFD176"/>
<path d="M168.992 130.001L169.995 128.831L170.664 130.085L169.744 131.088L168.992 130.001Z" fill="#FFD176"/>
<path d="M144.831 126.657L145.834 125.487L146.586 126.825L145.667 127.828L144.831 126.657Z" fill="#FFD176"/>
<path d="M143.493 124.818L144.496 123.564L145.249 124.902L144.329 125.905L143.493 124.818Z" fill="#FFD176"/>
<path d="M143.242 128.246L144.245 126.992L144.998 128.329L144.078 129.416L143.242 128.246Z" fill="#FFD176"/>
<path d="M155.03 141.706L156.117 140.452L156.786 141.789L155.866 142.876L155.03 141.706Z" fill="#FFD176"/>
<path d="M156.869 143.963L157.873 142.709L158.625 144.047L157.705 145.134L156.869 143.963Z" fill="#FFD176"/>
<path d="M152.94 143.796L154.027 142.625L154.779 143.963L153.776 144.966L152.94 143.796Z" fill="#FFD176"/>
<path d="M159.963 109.937L160.966 108.683L161.718 110.021L160.715 111.107L159.963 109.937Z" fill="#FFD176"/>
<path d="M156.033 109.853L157.12 108.599L157.873 109.937L156.869 111.024L156.033 109.853Z" fill="#FFD176"/>
<path d="M152.355 192.536C154.11 193.205 160.715 194.041 164.895 191.198C164.895 191.198 163.39 195.629 158.792 195.88C154.11 196.047 152.355 192.536 152.355 192.536Z" fill="#2D3A4C"/>
<path d="M158.541 176.819L154.612 176.317V178.407L158.541 178.825V176.819Z" fill="#6F829E"/>
<path d="M143.326 166.034C144.078 166.954 151.352 173.057 163.139 170.214C155.197 169.712 150.265 168.96 143.326 166.034Z" fill="#DD7F3A"/>
<path d="M173.474 50.456C174.413 50.8434 175.817 49.6004 176.609 47.6798C177.402 45.7591 177.283 43.888 176.344 43.5006C175.405 43.1131 174.001 44.3561 173.209 46.2768C172.416 48.1974 172.535 50.0685 173.474 50.456Z" fill="#B25A3B"/>
<path d="M163.911 46.8895C167.823 47.2112 171.092 46.2782 171.213 44.8057C171.334 43.3332 168.261 41.8788 164.35 41.5572C160.439 41.2356 157.17 42.1685 157.049 43.641C156.928 45.1135 160 46.5679 163.911 46.8895Z" fill="#B25A3B"/>
<path d="M112.142 108.432C110.554 106.76 104.952 106.091 105.788 104.252C106.541 102.58 110.219 100.991 113.313 107.178L112.142 108.432Z" fill="#FFC397"/>
<path d="M111.139 104.335C109.969 107.345 106.374 106.007 105.37 105.338C104.2 104.586 104.534 102.078 105.454 101.409C106.29 100.74 111.641 103.165 111.139 104.335Z" fill="#FFC397"/>
<path d="M107.962 102.078C107.293 100.323 107.377 97.9816 108.129 97.898C108.965 97.8144 108.464 99.8209 109.467 101.242C110.554 102.747 111.055 103.75 110.47 104.252C109.968 104.67 108.631 103.834 107.962 102.078Z" fill="#FFC397"/>
<path d="M104.284 100.74C102.862 99.7372 102.361 98.8175 102.611 98.4831C102.862 98.1487 103.698 98.7339 105.12 99.7372C106.541 100.74 108.547 101.66 108.296 101.994C107.962 102.496 105.705 101.744 104.284 100.74Z" fill="#FFC397"/>
<path d="M103.364 102.663C101.775 101.911 100.689 100.573 100.856 100.155C101.107 99.737 102.361 100.74 104.033 101.493C105.621 102.245 106.624 102.747 106.457 103.165C106.206 103.583 104.952 103.332 103.364 102.663Z" fill="#FFC397"/>
<path d="M103.949 104.837C102.361 104.085 101.692 103.249 101.859 102.831C102.11 102.413 103.03 103.165 104.618 103.918C106.206 104.67 107.293 105.255 107.042 105.673C106.792 106.091 105.538 105.59 103.949 104.837Z" fill="#FFC397"/>
<path d="M167.57 109.352C165.982 107.764 160.715 107.429 161.384 105.506C161.969 103.751 165.313 101.912 168.657 107.931L167.57 109.352Z" fill="#FFC397"/>
<path d="M166.4 105.255C165.48 108.432 162.053 107.262 161.049 106.677C159.963 106.008 160.046 103.416 160.882 102.664C161.551 101.995 166.734 104.085 166.4 105.255Z" fill="#FFC397"/>
<path d="M163.223 103.249C162.471 101.493 162.471 99.1525 163.139 98.9853C163.892 98.8181 163.557 100.908 164.561 102.246C165.647 103.751 166.233 104.754 165.731 105.255C165.229 105.757 163.975 104.921 163.223 103.249Z" fill="#FFC397"/>
<path d="M159.628 102.078C158.207 101.159 157.705 100.323 157.956 99.9048C158.207 99.4868 158.959 100.072 160.381 101.075C161.802 101.995 163.725 102.831 163.474 103.165C163.223 103.583 161.049 103.082 159.628 102.078Z" fill="#FFC397"/>
<path d="M158.876 104.085C157.287 103.5 156.2 102.162 156.368 101.744C156.535 101.326 157.873 102.246 159.377 102.914C160.966 103.5 161.885 104.001 161.718 104.419C161.635 104.837 160.464 104.67 158.876 104.085Z" fill="#FFC397"/>
<path d="M159.628 106.259C158.123 105.59 157.371 104.754 157.538 104.336C157.705 103.918 158.625 104.587 160.213 105.256C161.718 105.924 162.805 106.426 162.638 106.844C162.387 107.346 161.133 106.928 159.628 106.259Z" fill="#FFC397"/>
<path d="M52.0794 287.758C55.4234 275.218 54.5038 252.311 57.4299 244.285C59.7708 237.681 63.6165 237.179 64.9541 232.079C68.4654 218.536 46.8124 192.034 51.0761 163.024C52.9154 150.4 63.9509 147.223 68.8834 165.616C71.1407 173.809 77.7453 204.825 76.742 224.722C76.0732 237.681 61.2756 253.565 55.8415 288.427L52.0794 287.758Z" fill="#7F4654"/>
<path d="M57.4299 244.286C54.5874 252.311 55.4235 275.218 52.0794 287.759L53.5842 288.01C57.1791 275.386 57.6807 253.816 60.8576 246.208C63.6165 239.687 66.5426 238.768 68.131 233.752C70.7227 225.642 62.6133 213.52 57.0955 196.298C56.1759 193.372 52.9154 194.041 54.253 197.803C59.4364 212.182 66.459 224.137 64.4525 231.912C63.1149 237.012 59.7708 237.681 57.4299 244.286Z" fill="#6B3444"/>
<path d="M51.9958 290.684H64.1181C64.1181 290.684 56.5939 285.501 54.671 286.421C52.8318 287.34 51.9958 290.684 51.9958 290.684Z" fill="#CCB483"/>
<path d="M72.311 148.979C60.5231 140.953 48.0664 116.708 49.5712 101.994C50.1564 96.3094 57.179 92.7145 63.3656 99.9879C67.8801 105.255 73.6486 117.544 74.9863 120.888C77.6615 127.409 80.4204 135.937 80.504 143.545C80.1696 146.805 74.0666 150.149 72.311 148.979Z" fill="#91C9C3"/>
<path opacity="0.7" d="M61.8608 99.5697C61.8608 99.5697 49.9893 96.8108 49.4877 101.994C47.9828 116.708 60.4395 140.953 72.2274 148.979C73.9831 150.149 80.1697 146.805 80.4205 143.461C80.4205 143.043 79.3336 141.371 79.3336 140.953C68.8834 130.921 66.8769 104.168 61.8608 99.5697Z" fill="#6EAFA5"/>
<path d="M67.1278 148.644C66.0409 147.641 65.8737 143.043 69.1342 140.535C73.3143 137.275 79.8353 138.027 81.5909 139.114C83.263 140.201 78.3304 154.079 74.4847 154.079C71.1407 154.079 71.6423 148.812 71.6423 148.812C71.6423 148.812 69.0506 150.4 67.1278 148.644Z" fill="#F9CE8A"/>
<path d="M77.8288 145.468C73.7323 145.468 70.221 143.461 68.967 140.619C65.7901 143.21 65.9573 147.641 67.1277 148.644C69.0506 150.4 71.6422 148.812 71.6422 148.812C71.6422 148.812 71.057 154.079 74.4847 154.079C76.742 154.079 79.4172 149.23 80.8385 145.05C79.8352 145.3 78.832 145.468 77.8288 145.468Z" fill="#F2BA70"/>
<path d="M115.868 156.336C106.337 154.58 81.4237 159.011 71.893 148.394C70.3882 146.722 71.1406 142.458 74.4847 140.201C76.6583 138.779 84.2661 139.365 88.9478 141.287C98.3949 145.3 109.263 153.577 116.787 154.497L115.868 156.336Z" fill="#FFC397"/>
<path d="M75.5715 147.558C74.2339 146.136 74.9027 142.458 77.8288 140.535C79.0828 139.699 82.3433 139.699 85.6038 140.201C81.2565 139.197 76.2404 139.03 74.5683 140.117C71.2242 142.374 70.4718 146.554 71.9766 148.31C81.5909 158.928 106.504 154.497 115.951 156.252L116.286 155.584C106.504 154.664 83.263 156.085 75.5715 147.558Z" fill="#EF8F6F"/>
<path d="M46.478 289.849C45.8928 280.652 41.1274 265.102 39.121 253.565C38.1178 247.462 40.2078 239.353 41.0438 231.912C41.9635 223.552 29.3395 197.301 36.0277 166.452C38.5358 154.915 50.5745 151.32 55.5906 166.87C57.7643 173.474 56.6774 179.828 55.089 191.365C54.8382 193.372 52.3301 216.864 49.6549 231.494C46.06 250.723 50.7417 288.344 50.7417 288.344L46.478 289.849Z" fill="#7F4654"/>
<path d="M35.4425 184.008C39.7898 184.51 62.5296 178.407 69.4686 171.886L68.6326 167.957L34.9409 177.069L35.4425 184.008Z" fill="#6B3444"/>
<path d="M40.9602 254.569C39.957 248.466 43.1339 240.44 43.9699 232.916C44.8895 224.555 39.6226 199.726 46.2272 168.793C47.732 161.854 44.4715 156.336 49.4877 157.59C43.8863 153.995 37.1145 157.924 35.3589 166.034C28.6707 196.967 41.2946 223.552 40.375 231.912C39.539 239.353 37.4489 247.379 38.4522 253.398C40.4586 265.019 45.7256 280.652 46.3944 289.765L48.6516 288.929C47.5648 279.733 42.7995 265.353 40.9602 254.569Z" fill="#6B3444"/>
<path d="M35.5261 179.243C32.9344 178.908 33.3525 177.821 33.3525 176.567C32.6836 136.689 11.2815 126.322 16.7156 112.11C22.1498 97.7304 50.3237 88.8686 60.9412 97.6468C66.3753 102.161 68.131 126.573 67.9638 141.622C67.8802 153.326 69.803 163.609 69.2178 170.966C65.0377 173.976 44.806 180.58 35.5261 179.243Z" fill="#91C9C3"/>
<path d="M61.2756 128.831C62.2788 128.162 64.2017 127.326 65.4557 124.4C66.7097 121.641 66.8769 117.294 66.6261 114.367C66.6261 114.367 67.4622 123.731 67.4622 126.239C65.7065 129.081 61.2756 128.831 61.2756 128.831Z" fill="#72AFA6"/>
<path d="M61.5264 128.914C59.4363 129.332 64.954 125.988 65.8737 122.393C66.7933 118.965 66.1245 114.033 65.2885 110.772C65.2885 110.772 69.385 120.888 68.0473 123.898C66.5425 127.326 61.5264 128.914 61.5264 128.914Z" fill="#91C9C3"/>
<path d="M31.5968 98.2321L40.1242 106.843L43.4683 99.6533L50.0729 103.499L49.7385 94.6372L43.3847 98.3157L32.5165 97.3125L31.5968 98.2321Z" fill="#6EAFA5"/>
<path d="M27.7511 133.679L68.0474 119.551C67.8801 117.795 67.3785 116.29 67.0441 114.785C58.5167 117.293 37.0309 124.4 28.9215 127.326L27.7511 133.679Z" fill="#A2DDD4"/>
<path d="M25.5775 140.201L67.4622 124.818C68.8834 123.48 68.2982 122.059 68.2146 121.306C60.0216 123.731 32.7672 134.098 24.4906 137.191L25.5775 140.201Z" fill="#A2DDD4"/>
<path opacity="0.7" d="M41.8799 175.063C48.4008 173.474 58.6839 169.545 64.3689 168.542C64.3689 168.542 51.4105 166.954 48.4844 167.288C35.4425 168.96 43.6355 164.529 33.9377 138.111C38.4522 140.619 46.3944 137.108 46.3944 137.108C41.2946 138.027 36.6129 136.188 34.2721 133.095C31.5132 129.5 31.5132 123.146 30.6772 119.049C30.6772 119.049 29.5067 123.815 30.092 129.333C24.407 118.381 17.9696 112.612 17.5516 113.615C12.1175 127.911 33.1016 136.857 33.3524 177.655C33.3524 178.156 33.6868 178.658 34.1885 178.825C40.8766 181.249 61.2756 175.147 67.8801 171.719C60.3559 174.227 48.568 176.066 41.8799 175.063Z" fill="#6EAFA5"/>
<path d="M5.09487 154.747C2.67041 140.702 15.796 105.673 25.3266 102.83C34.8573 99.988 32.9344 123.982 27.9183 136.439C25.3266 142.96 20.2269 151.487 14.7927 156.754C12.2011 158.928 5.51289 156.837 5.09487 154.747Z" fill="#91C9C3"/>
<path opacity="0.7" d="M28.5871 131.924C26.1626 137.86 22.1497 144.966 17.1336 149.815C16.632 148.645 15.2943 145.802 13.5387 145.384C11.4486 144.966 8.27173 146.555 7.35211 146.638C6.51608 137.526 11.6158 120.638 18.1368 109.519C9.60937 121.39 3.2556 143.879 5.09485 154.58C5.51286 156.67 12.1174 158.76 14.7927 156.67C20.2268 151.32 25.1594 143.043 27.751 136.606C29.6739 131.924 31.8476 124.233 31.3459 119.635C30.6771 124.233 30.0083 128.413 28.5871 131.924Z" fill="#6EAFA5"/>
<path d="M15.0436 147.809C14.7928 148.31 14.0403 149.23 12.7863 148.979C11.6995 148.728 11.7831 147.391 11.9503 146.638C8.85699 147.391 3.42285 149.982 1.75081 153.744C0.245967 157.172 3.59005 160.265 5.4293 160.433C8.60619 160.683 10.111 158.259 10.111 158.259C10.111 158.259 13.2043 162.188 16.632 160.433C19.6417 158.844 17.3008 151.069 15.0436 147.809Z" fill="#F9CE8A"/>
<path d="M13.2044 154.497C9.77666 154.497 6.68338 152.741 4.84413 149.982C3.5065 150.985 2.41967 152.239 1.83446 153.661C0.329615 157.088 3.67371 160.182 5.51295 160.349C8.68984 160.6 10.1947 158.175 10.1947 158.175C10.1947 158.175 13.288 162.105 16.7157 160.349C18.4713 159.429 18.3877 156.503 17.6353 153.493C16.214 154.162 14.7092 154.497 13.2044 154.497Z" fill="#F2BA70"/>
<path d="M7.8538 189.944C7.7702 180.33 -0.840837 162.272 6.26535 151.236C7.51939 149.313 12.6191 148.143 14.7928 151.403C15.6288 152.574 15.8796 161.436 14.8764 166.285C12.7863 176.317 8.68982 184.426 9.27504 191.95L7.8538 189.944Z" fill="#FFC397"/>
<path d="M11.1979 153.326C12.8699 153.326 14.3748 155.918 15.5452 159.931C15.6288 156.001 15.378 152.156 14.8764 151.403C12.7027 148.226 7.51939 149.313 6.34895 151.236C2.33604 157.422 3.08846 166.284 5.26212 174.979C5.59653 163.442 7.85379 153.326 11.1979 153.326Z" fill="#EF8F6F"/>
<path d="M33.2689 98.483L33.5197 74.322L43.9699 78.3349L48.2337 96.6438C48.3173 96.6438 40.1242 101.994 33.2689 98.483Z" fill="#EF8F6F"/>
<path d="M46.3108 290.684H58.3495C58.3495 290.684 50.8253 285.501 48.9025 286.421C47.0632 287.34 46.3108 290.684 46.3108 290.684Z" fill="#DDC99E"/>
<path d="M31.6803 97.8142L32.4328 95.7241L43.3847 98.3158L40.375 105.338L31.6803 97.8142Z" fill="#BFEFE8"/>
<path d="M49.6548 93.9686L47.8156 93.2998L42.7158 98.6503L49.2368 102.58L49.6548 93.9686Z" fill="#BFEFE8"/>
<path d="M58.7675 176.986L54.9218 177.654L55.089 179.995L58.9347 179.326L58.7675 176.986Z" fill="#AD687B"/>
<path d="M50.2401 193.79C54.1694 194.291 58.6839 194.542 61.3592 191.365C61.3592 191.365 59.6035 197.301 54.4202 197.97C52.3301 198.221 50.2401 193.79 50.2401 193.79Z" fill="#6B3444"/>
<path d="M31.764 117.879C31.764 117.879 32.2656 104.67 22.5678 103.917L23.571 103.165C29.5067 103.834 32.5164 107.763 31.764 117.879Z" fill="#A2DDD4"/>
<path d="M65.7901 110.773C65.7901 110.773 63.1984 95.4734 49.404 94.1357L53.2497 94.4701C59.2691 95.139 64.7032 99.9879 65.7901 110.773Z" fill="#A2DDD4"/>
<path d="M37.5326 189.275L39.121 182.252H42.7995L38.1178 192.536L37.5326 189.275Z" fill="#AD687B"/>
<path opacity="0.5" d="M35.3589 109.351C48.4008 108.014 58.6003 102.997 58.0987 98.1486C58.0151 97.4798 57.7643 96.6437 57.2626 95.6405C57.0954 95.5569 56.9282 95.4733 56.761 95.4733C55.5906 94.9717 54.4202 94.6373 53.2497 94.5537L52.4137 94.4701C51.6613 94.3865 50.8253 94.3029 49.9892 94.3029H49.6548V94.1357L47.8156 93.5505L47.5648 93.8013L44.8059 82.097C41.3782 79.8397 37.4489 78.4185 33.5196 78.4185L33.2688 96.1421L32.3492 95.9749L31.5968 98.065L31.764 98.2322L31.5132 98.483C28.3363 99.9878 25.3266 101.827 22.8185 103.917L22.4841 104.168C22.4841 104.168 22.4841 104.168 22.5677 104.168C20.9793 105.589 19.6417 107.094 18.5548 108.682C23.0693 109.602 28.9215 110.02 35.3589 109.351ZM49.6548 94.1357H49.7384H49.6548Z" fill="#A0513C"/>
<path d="M33.436 85.6085C29.4231 81.2612 22.4841 83.7692 22.9021 75.4926C22.9021 75.4926 19.14 72.9009 20.3105 67.634C21.4809 62.367 23.9054 61.6982 23.9054 61.6982C23.9054 61.6982 17.886 59.2738 22.0661 53.1708C26.3298 47.0678 30.4263 50.5791 30.4263 50.5791C30.4263 50.5791 28.8379 46.6498 33.018 45.145C37.1981 43.6401 41.0438 47.3186 41.0438 47.3186C41.0438 47.3186 44.2207 42.8041 47.4812 43.6401C50.7417 44.4762 58.2659 48.1547 49.8221 60.5278C41.3782 72.9845 33.436 85.6085 33.436 85.6085Z" fill="#B75A44"/>
<path d="M41.3782 56.7658C34.4392 56.7658 27.9183 55.5954 25.3266 50.0776C24.3234 50.5793 23.1529 51.4989 22.0661 53.1709C17.8024 59.2739 23.9054 61.6983 23.9054 61.6983C23.9054 61.6983 21.4809 62.3672 20.3105 67.6341C19.14 72.901 22.9021 75.4927 22.9021 75.4927C22.4841 83.7693 29.4231 81.2613 33.436 85.6086C33.436 85.6086 41.3782 72.9846 49.822 60.6115C51.2433 58.5215 52.2465 56.5986 52.8317 55.0102C49.822 57.769 46.0599 56.7658 41.3782 56.7658Z" fill="#8E3D2D"/>
<path d="M32.182 66.547C32.182 66.547 32.7672 86.0263 37.2817 88.7016C41.7962 91.3769 45.3911 93.2997 53.2497 92.3801C55.507 84.2707 55.1726 71.6468 53.6678 66.8814C53.1661 65.293 54.8382 63.9554 54.3366 62.7013C51.0761 54.2575 43.9699 50.0774 38.1177 52.3347C31.346 54.8427 31.4296 59.6917 32.182 66.547Z" fill="#FFC397"/>
<path d="M45.2239 69.2225C46.3107 68.5537 49.2368 64.29 47.7319 63.7048C46.8123 63.3704 44.7223 63.454 43.2174 64.9588C42.2978 65.8784 41.4618 68.1357 41.7962 68.6373C42.5486 69.6405 44.0535 69.8913 45.2239 69.2225Z" fill="#F7A27C"/>
<path d="M54.0858 68.2192C55.0054 72.4829 55.3398 79.6727 54.3366 86.0264C52.4973 85.8592 51.5777 78.753 50.9089 73.3189C50.1565 67.8012 48.15 62.1998 53.5842 62.1162C54.0858 62.1162 54.671 62.367 55.1726 62.8686C54.8382 64.0391 53.0825 63.9555 54.0858 68.2192Z" fill="#F7A27C"/>
<path d="M53.2498 69.2225C53.5006 68.3028 53.0826 66.4636 51.9957 66.5472C50.9089 66.6308 50.9925 68.6372 51.0761 69.4733C51.3269 70.8109 52.9154 70.6437 53.2498 69.2225Z" fill="#754B3C"/>
<path d="M53.8349 63.2867C55.0889 63.5375 56.343 61.7819 54.8381 61.3639C53.3333 60.9458 51.9121 60.6114 51.4941 61.2802C51.0761 61.9491 50.7416 62.4507 51.0761 62.6179C52.0793 63.1195 52.5809 63.1195 53.8349 63.2867Z" fill="#B75A44"/>
<path d="M43.8863 64.457C42.6322 64.9587 41.9634 63.3702 43.3846 62.7014C44.8059 62.0326 46.1435 61.4474 46.7287 62.0326C47.3139 62.5342 47.4811 63.2866 47.0631 63.3702C46.6451 63.3702 45.0567 64.039 43.8863 64.457Z" fill="#B75A44"/>
<path d="M53.5842 82.4316L46.9796 82.2644C46.9796 82.2644 46.8124 85.4413 47.8157 85.9429C48.8189 86.4445 54.0022 88.2838 53.5842 82.4316Z" fill="#5B291F"/>
<path d="M47.4813 82.5151L47.7321 84.5216L53.1662 84.3544L53.3334 82.6823L47.4813 82.5151Z" fill="#FFF5DE"/>
<path d="M46.1436 69.139C46.3944 68.2194 45.9764 66.3801 44.8896 66.4637C43.8028 66.5473 43.8864 68.5538 44.0536 69.3898C44.2208 70.7274 45.8092 70.5602 46.1436 69.139Z" fill="#754B3C"/>
<path d="M46.983 81.7306C46.7564 81.7749 46.6158 82.0312 46.669 82.3031C46.7221 82.575 46.9489 82.7595 47.1754 82.7152C47.402 82.6709 47.5426 82.4146 47.4894 82.1427C47.4363 81.8708 47.2096 81.6863 46.983 81.7306Z" fill="#5B291F"/>
<path d="M48.3173 87.9489C48.3173 87.5309 49.0697 87.6145 49.9057 87.6145C50.7417 87.6145 51.4105 87.5309 51.4105 87.9489C51.4105 88.3669 50.7417 88.6177 49.8221 88.6177C49.0697 88.7013 48.3173 88.3669 48.3173 87.9489Z" fill="#FFAE85"/>
<path d="M41.2947 87.0297C36.7802 84.3544 35.1917 64.6243 35.1917 64.6243C34.6065 59.441 34.4393 55.4281 37.1982 52.6692C31.4296 55.3445 31.5132 60.0262 32.2657 66.5472C32.2657 66.5472 32.3493 86.5281 36.8638 89.1197C41.3783 91.795 45.642 93.8014 53.5006 92.7982C54.253 92.7146 54.3366 91.377 53.7514 90.7918C47.2305 91.0426 45.224 89.3705 41.2947 87.0297Z" fill="#8E3D2D"/>
<path d="M34.0213 76.4955C31.6804 74.4891 29.5068 74.2383 28.0855 76.7463C26.6643 79.2544 31.1788 83.5181 34.6065 82.1804C38.0342 80.8428 35.6097 77.7495 34.0213 76.4955Z" fill="#FFC397"/>
<path d="M33.1017 77.499C31.6804 76.3285 30.4264 76.1613 29.5904 77.6662C28.7544 79.171 31.4296 81.6791 33.5197 80.9267C35.5261 80.1743 34.0213 78.335 33.1017 77.499Z" fill="#EF8F6F"/>
<path d="M34.3557 78.7532C33.436 78.0008 32.6 77.9172 32.0984 78.8368C31.5132 79.7564 33.2688 81.4285 34.6065 80.9269C35.9441 80.4252 34.9409 79.2548 34.3557 78.7532Z" fill="#FFC397"/>
<path d="M32.8508 55.9295C34.5229 55.2607 35.4425 64.875 37.3653 79.2545L36.4457 79.9233C36.4457 79.9233 33.854 75.3252 31.6804 74.8236C31.5968 74.9072 30.2591 57.0164 32.8508 55.9295Z" fill="#8E3D2D"/>
<path d="M48.568 52.5019C48.568 50.3283 44.9731 48.9907 40.4586 49.4923C36.0277 49.9939 32.3492 52.1675 32.3492 54.3412C32.3492 56.5148 35.9441 57.8525 40.4586 57.3509C44.9731 56.8492 48.568 54.6756 48.568 52.5019Z" fill="#B75A44"/>
<path d="M110.016 155.165C112.273 155.5 115.951 159.345 117.038 157.757C117.958 156.336 117.289 152.824 110.434 153.577L110.016 155.165Z" fill="#FFC397"/>
<path d="M113.861 153.828C112.022 156.252 115.115 158.259 116.286 158.677C117.54 159.178 119.463 157.673 119.463 156.67C119.546 155.667 114.614 152.908 113.861 153.828Z" fill="#FFC397"/>
<path d="M117.54 155.082C119.379 154.664 121.218 153.41 120.884 152.825C120.55 152.156 119.128 153.494 117.373 153.494C115.533 153.494 114.363 153.577 114.279 154.246C114.279 154.998 115.701 155.5 117.54 155.082Z" fill="#FFC397"/>
<path d="M120.717 157.255C122.305 157.841 123.392 157.757 123.476 157.339C123.643 156.921 122.64 156.67 121.051 156.085C119.379 155.5 117.54 154.497 117.373 154.915C117.289 155.333 119.128 156.67 120.717 157.255Z" fill="#FFC397"/>
<path d="M119.713 158.844C121.218 159.68 122.974 159.847 123.141 159.429C123.392 159.095 121.804 158.593 120.299 157.757C118.794 156.921 117.791 156.419 117.54 156.838C117.289 157.172 118.209 158.008 119.713 158.844Z" fill="#FFC397"/>
<path d="M117.54 159.513C119.045 160.265 120.132 160.432 120.382 160.098C120.55 159.763 119.463 159.345 117.958 158.593C116.453 157.841 115.366 157.255 115.115 157.673C114.865 158.008 116.035 158.76 117.54 159.513Z" fill="#FFC397"/>
<path d="M44.5552 82.5154C48.4845 83.017 50.8254 83.2678 56.3431 82.2646C56.3431 82.2646 51.8286 79.8401 50.3237 80.0073C48.8189 80.0909 45.224 80.5089 44.5552 82.5154Z" fill="#8E3D2D"/>
<path d="M56.8446 80.007C52.5809 74.5729 50.7417 65.7111 49.9893 63.1194C46.478 64.5406 50.4909 79.8398 50.4909 79.8398C50.4909 79.8398 54.9218 81.0939 56.8446 80.007Z" fill="#FFC397"/>
<path d="M28.5985 59.3981C30.6978 60.2418 32.7346 60.0922 33.1478 59.0639C33.5611 58.0357 32.1942 56.5182 30.0949 55.6746C27.9956 54.8309 25.9588 54.9805 25.5455 56.0088C25.1323 57.037 26.4992 58.5545 28.5985 59.3981Z" fill="#B75A44"/>
<path d="M30.6065 63.2545C31.869 63.5323 32.9971 63.2823 33.1261 62.6962C33.2551 62.11 32.3362 61.4095 31.0736 61.1317C29.811 60.8539 28.6829 61.1039 28.5539 61.6901C28.425 62.2762 29.3439 62.9767 30.6065 63.2545Z" fill="#B75A44"/>
<path d="M8.68979 184.092C7.77017 184.343 8.10457 187.101 5.01129 188.439C4.50968 188.69 3.67366 188.941 2.83764 189.275C1.4164 189.86 0.162366 191.031 0.580377 191.616C0.914786 192.034 1.75081 191.198 2.75403 190.78C3.67366 190.446 3.92446 190.278 4.00807 190.446C4.09167 190.613 3.08844 191.282 1.91801 192.118C0.496774 193.121 -0.255643 194.04 0.0787654 194.626C0.413174 195.127 1.16559 194.208 2.58683 193.455C3.75726 192.786 4.25888 192.368 4.67689 192.87C4.84409 193.121 4.09167 193.622 3.17204 194.709C2.08522 195.963 1.66721 197.05 2.08522 197.384C2.67043 197.886 2.75404 196.883 4.25888 195.629C6.18173 193.957 7.68657 192.201 9.27501 192.118C10.6962 192.034 11.1143 195.211 12.1175 194.542C12.9535 194.04 11.5323 191.7 10.1946 188.69C9.0242 186.182 9.60942 183.841 8.68979 184.092Z" fill="#FFC397"/>
<path d="M62.3624 48.4892L69.5522 37.2029L63.1984 36.0325L62.3624 48.4892Z" fill="#BCCE55"/>
<path d="M51.8286 37.7883L85.353 41.634L93.6296 7.18994L48.3173 12.7913L51.8286 37.7883Z" fill="#BCCE55"/>
<path d="M138.811 41.2996L130.2 29.9297L137.892 28.7593L138.811 41.2996Z" fill="#86EFD6"/>
<path d="M151.519 30.5148L111.139 34.4441L101.19 0L155.699 5.60134L151.519 30.5148Z" fill="#86EFD6"/>
</svg>
