<svg width="208" height="286" viewBox="0 0 208 286" fill="none" xmlns="http://www.w3.org/2000/svg">
<path d="M118.631 285.19C165.127 285.19 202.819 284.666 202.819 284.019C202.819 283.373 165.127 282.849 118.631 282.849C72.136 282.849 34.444 283.373 34.444 284.019C34.444 284.666 72.136 285.19 118.631 285.19Z" fill="#5D5D5D"/>
<path d="M172.22 90.9818C181.667 87.8885 197.217 84.4608 186.015 74.5122C175.23 64.9815 188.523 54.8657 174.896 45.9202C161.854 37.3928 171.301 24.2673 151.905 28.1966C114.953 20.0871 138.947 102.017 172.22 90.9818Z" fill="#93542A"/>
<path d="M151.069 80.8663C151.905 88.3905 136.271 122.082 134.349 122.166C129.5 122.333 148.394 56.4545 151.069 80.8663Z" fill="#FFC397"/>
<path d="M135.854 106.532C137.609 104.943 139.532 103.439 141.706 102.017C143.043 101.098 144.465 100.262 145.886 99.4256C149.063 91.567 151.487 84.0428 151.153 80.866C149.314 64.4799 140.201 88.8082 135.854 106.532Z" fill="#EF8F6F"/>
<path d="M136.606 119.072C134.181 125.593 110.188 139.638 104.754 142.815C104.419 142.314 104.503 141.645 105.088 141.06C115.037 130.86 130.67 119.908 134.181 114.725C135.018 113.554 136.021 117.735 136.606 119.072Z" fill="#FFC397"/>
<path d="M186.015 74.5123C175.23 64.9816 188.523 54.8657 174.896 45.9203C166.368 40.319 167.372 32.962 163.693 29.4507C164.445 32.7948 155.166 37.5601 156.252 45.5859C157.924 57.541 152.072 59.4639 142.542 57.2066C139.03 56.3706 135.937 54.3641 133.513 51.6053C135.603 72.255 151.153 97.9209 172.22 90.9819C181.668 87.8886 197.301 84.4609 186.015 74.5123Z" fill="#7F4220"/>
<path d="M140.452 56.036C140.284 59.6309 139.783 63.811 141.288 68.1584C145.133 79.4447 153.661 87.8885 160.6 87.3869C167.79 86.8853 170.966 77.1038 167.372 65.0651C165.198 57.7917 161.101 51.5215 156.503 47.843C157.256 58.5441 149.23 60.2161 140.452 56.036Z" fill="#6B3418"/>
<path d="M122.394 220.733C124.4 203.009 133.847 154.938 137.693 148.751C149.815 129.188 159.429 153.099 157.841 158.449C156.253 163.716 125.905 221.987 125.905 221.987L122.394 220.733Z" fill="#FFC397"/>
<path d="M143.963 141.979C150.149 143.735 154.33 155.188 153.326 158.7C152.072 163.465 128.831 211.285 124.065 221.234L125.905 221.819C125.905 221.819 156.252 163.632 157.841 158.282C159.178 154.018 152.908 137.13 143.963 141.979Z" fill="#EF8F6F"/>
<path d="M137.693 148.667C135.853 151.594 132.76 164.05 129.834 178.179C134.85 179.935 140.619 181.105 146.722 181.523C152.407 170.237 157.256 160.455 157.841 158.365C159.429 153.098 149.815 129.105 137.693 148.667Z" fill="#EF8F6F"/>
<path d="M171.468 226.668C168.04 201.17 156.587 161.375 157.841 150.34C158.677 143.317 177.237 142.732 179.076 147.748C184.259 161.626 174.227 226.083 174.227 226.083L171.468 226.668Z" fill="#FFC397"/>
<path d="M179.076 147.748C177.655 143.902 166.368 143.4 160.85 146.494C166.703 144.487 175.565 145.323 176.819 148.667C181.751 161.877 172.973 220.649 172.053 226.501L174.227 225.999C174.227 225.999 184.259 161.626 179.076 147.748Z" fill="#EF8F6F"/>
<path d="M179.076 147.831C177.237 142.648 158.677 143.233 157.841 150.59C157.256 155.857 159.262 167.311 162.021 180.771C165.114 180.269 168.375 179.433 171.552 178.346C174.645 177.259 177.487 176.005 180.163 174.584C180.832 162.796 180.748 152.597 179.076 147.831Z" fill="#EF8F6F"/>
<path d="M136.606 155.774C139.95 140.892 151.821 110.796 131.84 99.2586C131.84 99.2586 135.937 72.1715 154.162 72.1715C173.474 72.0879 168.291 87.1363 164.78 98.6734C162.941 104.776 150.149 115.979 174.561 144.32C192.452 164.97 141.956 174.584 136.606 155.774Z" fill="#FFC397"/>
<path d="M175.397 143.818C151.069 115.477 163.024 104.776 164.863 98.6733C167.204 90.7311 170.465 81.2004 165.95 75.9335C165.532 77.6891 164.027 77.9399 162.69 79.8628C158.008 86.5509 153.493 93.0719 141.956 91.3163C136.271 90.3966 137.191 83.1233 148.227 73.3418C134.014 80.6988 131.924 99.2585 131.924 99.2585C151.905 110.796 139.114 140.307 135.686 155.188C140.953 174.082 193.205 164.552 175.397 143.818Z" fill="#F7A27C"/>
<path d="M129.918 171.909C131.005 176.172 146.387 178.43 150.902 176.925C150.902 176.925 154.58 166.725 156.002 166.809C157.339 166.892 159.513 176.172 159.513 176.172C159.513 176.172 173.976 174.751 181.668 168.23C181.668 168.23 183.59 147.413 173.391 140.056C173.391 140.056 154.998 154.436 137.108 147.664L129.918 171.909Z" fill="#7069AF"/>
<path d="M151.32 167.311C149.23 169.401 147.223 171.909 143.879 177.259C146.805 177.51 149.397 177.426 150.818 176.925C150.818 176.925 154.497 166.725 155.918 166.809C156.252 166.809 156.67 167.478 157.088 168.481C156.252 164.552 154.162 164.468 151.32 167.311Z" fill="#605696"/>
<path d="M173.307 140.056C173.307 140.056 170.883 141.895 167.037 143.985C169.88 148.584 172.388 155.105 173.976 162.629C174.645 165.889 175.063 169.066 175.314 172.076C177.571 171.073 179.828 169.819 181.584 168.23C181.584 168.314 183.507 147.413 173.307 140.056Z" fill="#605696"/>
<path d="M174.394 141.896C173.976 141.561 173.642 141.227 173.224 140.893C173.224 140.893 154.831 155.189 136.857 148.417L136.439 149.922C154.998 156.777 173.976 142.23 174.394 141.896Z" fill="#605696"/>
<path d="M159.095 174.501C159.429 175.838 159.68 176.841 159.68 176.841C159.68 176.841 173.558 175.337 180.915 169.234C180.915 169.234 181.082 167.812 181.082 165.639C175.983 169.819 168.208 173.163 159.095 174.501Z" fill="#605696"/>
<path d="M130.586 169.986C130.168 171.323 129.834 172.327 129.834 172.327C129.834 172.327 141.12 178.179 149.982 176.674C149.982 176.674 150.818 175.504 151.989 173.664C145.886 174.584 138.194 173.414 130.586 169.986Z" fill="#605696"/>
<path d="M136.857 141.979C148.227 147.748 168.124 138.217 172.053 134.789C172.053 134.789 162.188 121.413 163.86 111.13C165.449 101.599 175.146 86.8018 166.703 76.1008C165.95 75.1811 164.362 75.3483 163.944 76.5188C162.272 81.8693 157.172 94.5768 143.378 92.4032C132.928 90.7311 136.69 83.625 141.789 78.4416C145.301 74.8467 149.732 72.5059 149.732 72.5059C149.732 72.5059 134.767 75.5991 130.587 99.3422C130.587 99.3422 139.365 108.873 139.699 119.239C140.117 127.851 138.194 133.117 136.857 141.979Z" fill="#FFEBCA"/>
<path d="M163.944 111.213C165.532 101.766 174.979 87.3032 167.121 76.6021C163.108 74.2613 164.445 85.7148 162.105 90.3965C156.085 102.77 140.87 103.271 131.339 98.5895C131.172 98.5059 131.005 98.4223 130.838 98.3387C130.754 98.6731 130.67 99.0075 130.67 99.4256C130.67 99.4256 133.847 102.853 136.439 107.869C136.522 107.786 136.606 107.786 136.773 107.702C144.047 104.776 154.413 113.471 160.015 127.098C161.77 131.362 162.857 135.709 163.275 139.638C167.455 137.883 170.716 135.96 172.053 134.789C172.053 134.789 162.188 121.413 163.944 111.213Z" fill="#F2CAAA"/>
<path d="M169.88 91.4837C171.385 82.9563 168.458 77.1878 166.452 77.0206C164.445 76.8534 163.777 85.13 162.523 90.8985C161.269 96.6671 162.105 101.432 164.027 102.101C166.201 102.854 168.876 97.2523 169.88 91.4837Z" fill="#C6926F"/>
<path d="M169.462 90.8145C170.298 85.3804 167.957 77.1874 166.285 76.9366C164.613 76.6858 164.362 84.4608 163.526 89.8113C162.69 95.2455 163.275 99.76 164.947 100.094C166.535 100.345 168.542 96.1651 169.462 90.8145Z" fill="#F7A27C"/>
<path d="M123.146 281.01C123.23 273.82 118.13 227.17 123.313 218.642L126.239 219.729C126.239 219.729 130.085 231.183 130.085 235.864C130.085 240.546 124.985 270.977 125.905 281.26L123.146 281.01Z" fill="#FFC397"/>
<path d="M128.162 234.861C127.995 239.376 124.149 269.723 124.484 281.177L125.905 281.344C124.985 270.977 130.085 240.63 130.085 235.948C130.085 231.266 126.824 219.813 126.824 219.813L125.069 219.311C125.738 221.819 128.246 230.848 128.162 234.861Z" fill="#EF8F6F"/>
<path d="M168.458 280.007C168.876 273.068 166.452 227.672 172.053 219.813L174.896 221.067C174.896 221.067 178.073 232.353 177.822 236.951C177.571 241.466 170.799 270.476 171.217 280.508L168.458 280.007Z" fill="#FFC397"/>
<path d="M174.979 220.231L173.224 219.98C174.31 224.662 176.735 233.691 176.651 236.951C176.484 241.466 170.298 270.058 170.716 280.341L171.217 280.424C170.883 270.392 177.571 241.382 177.822 236.868C178.072 232.353 174.979 220.231 174.979 220.231Z" fill="#EF8F6F"/>
<path d="M149.731 73.8432L148.143 59.2128L158.008 55.4507L159.847 73.2579C159.847 73.3416 154.246 78.7757 149.731 73.8432Z" fill="#EF8F6F"/>
<path d="M174.478 140.642C174.06 140.307 173.725 139.973 173.307 139.638C173.307 139.638 154.915 154.018 137.024 147.246L136.606 148.751C155.166 155.439 174.06 140.892 174.478 140.642Z" fill="#B8AEED"/>
<path d="M140.535 91.3164L145.468 86.8855L143.545 91.9016L140.535 91.3164Z" fill="#F7A27C"/>
<path d="M150.818 164.05C150.818 164.05 155.082 165.638 160.432 163.632C160.432 163.632 158.844 167.143 155.166 166.809C151.571 166.474 150.818 164.05 150.818 164.05Z" fill="#605696"/>
<path d="M129.834 171.24L129.333 172.745C130.419 177.092 146.137 179.767 150.818 178.263C150.818 178.263 151.236 177.092 151.905 175.587C143.461 175.671 135.77 174.082 129.834 171.24Z" fill="#B8AEED"/>
<path d="M158.593 175.336C159.011 176.841 159.262 178.012 159.262 178.012C159.262 178.012 174.394 176.59 182.336 169.735C182.336 169.735 182.504 168.147 182.504 165.722C176.902 170.32 168.458 173.915 158.593 175.336Z" fill="#B8AEED"/>
<path d="M138.947 147.33L139.866 145.658C139.866 145.658 147.391 147.246 154.079 145.323C154.079 145.323 153.076 149.838 138.947 147.33Z" fill="#FFC397"/>
<path d="M158.51 141.478C158.008 135.458 155.584 115.728 154.915 114.558C154.246 113.387 160.683 128.77 161.018 140.558C159.597 141.143 158.51 141.478 158.51 141.478Z" fill="#F2CAAA"/>
<path d="M148.477 160.873C147.14 158.699 147.474 156.108 149.481 154.018C150.317 153.098 149.899 151.008 149.648 150.256L150.818 149.838C150.902 150.005 151.905 153.182 150.4 154.77C149.648 155.606 148.059 157.696 149.564 160.121L148.477 160.873Z" fill="#B8AEED"/>
<path d="M158.844 157.697C158.51 155.188 156.67 153.433 153.912 152.848C152.741 152.597 151.738 150.758 151.487 150.005L150.4 150.34C150.484 150.507 151.654 153.6 153.744 154.018C154.748 154.185 157.256 154.938 157.674 157.78L158.844 157.697Z" fill="#B8AEED"/>
<path opacity="0.5" d="M166.953 83.7087C167.957 83.2071 168.876 82.7055 169.796 82.1203C169.378 80.4482 168.876 79.1942 168.208 78.2745C167.79 77.5221 167.372 76.8533 166.786 76.1009C166.452 75.6829 166.034 75.5157 165.532 75.5157C164.195 74.178 162.355 73.1748 159.847 72.5896L158.426 59.1296C157.59 59.464 156.754 59.8821 155.918 60.3001C153.326 61.6377 150.902 63.2261 148.895 64.8982L149.731 72.5896C149.146 72.7568 147.474 73.2584 145.217 74.5961C143.628 75.5157 155.584 89.4772 166.953 83.7087ZM149.648 72.6732V72.7568C149.564 72.7568 149.397 72.8404 149.313 72.8404C149.397 72.7568 149.564 72.6732 149.648 72.6732Z" fill="#C15A46"/>
<path d="M190.78 112.719C195.713 118.069 198.973 147.079 199.726 153.684C199.14 153.767 198.555 153.349 198.304 152.597C192.954 138.552 189.275 118.738 186.015 112.969C185.262 111.715 189.359 112.719 190.78 112.719Z" fill="#FFC397"/>
<path d="M164.947 82.538C166.201 89.9786 190.947 119.992 192.87 119.741C197.719 119.156 160.934 58.4605 164.947 82.538Z" fill="#FFC397"/>
<path d="M159.011 51.2706C158.51 47.9265 162.523 45.5021 164.362 47.6757C166.285 49.7658 160.767 62.3897 159.011 51.2706Z" fill="#FFC397"/>
<path d="M160.433 51.438C160.098 49.5987 162.355 48.2611 163.442 49.4315C164.446 50.6019 161.436 57.6245 160.433 51.438Z" fill="#EF8F6F"/>
<path d="M159.847 52.8593C159.513 51.0201 161.77 49.6825 162.857 50.8529C163.86 52.0233 160.85 58.9623 159.847 52.8593Z" fill="#FFC397"/>
<path d="M165.783 136.963L166.87 139.555L168.626 138.719L167.455 136.294L165.783 136.963Z" fill="#C65878"/>
<path d="M160.014 64.3127C159.095 66.57 152.49 71.5861 146.387 70.9173C146.387 70.9173 139.03 60.5506 139.95 55.6181C140.284 53.8624 140.201 52.4412 139.95 51.5216C139.03 47.6759 140.033 39.7337 144.632 36.9748C147.391 35.3028 153.995 40.9877 157.172 44.4154C165.281 53.0264 160.934 62.0555 160.014 64.3127Z" fill="#FFC397"/>
<path d="M157.757 45.0005C160.767 52.1067 158.928 61.9717 158.426 63.8946C157.841 66.2354 152.323 70.9171 146.304 70.8335C146.304 70.9171 146.387 70.9171 146.387 70.9171C152.49 71.586 159.095 66.5698 160.015 64.3126C160.934 62.0553 165.031 53.4443 157.757 45.0005Z" fill="#F7A27C"/>
<path d="M140.034 51.5217C140.285 52.4413 140.368 53.8625 140.034 55.6182C139.365 59.2967 141.539 63.0588 143.545 66.152C144.548 62.7244 144.632 63.3096 145.635 58.7115C148.812 43.4123 139.699 47.7596 139.867 49.6824C139.783 50.4348 139.867 51.0201 140.034 51.5217Z" fill="#F7A27C"/>
<path d="M154.998 49.4315C153.744 47.9267 150.735 45.0842 146.387 47.5087C149.648 46.5891 151.571 46.8399 154.998 49.4315Z" fill="#7F4632"/>
<path d="M146.304 54.7822C147.14 54.4478 146.387 56.6214 146.387 57.6246C146.471 58.6279 146.471 63.0588 143.712 60.5507C142.04 59.1295 144.799 59.2131 146.304 54.7822Z" fill="#FFC397"/>
<path d="M144.966 63.4767C144.799 64.3127 147.223 68.8272 148.728 68.66C149.899 68.5764 150.567 64.1455 150.233 63.3095C149.731 62.7243 145.802 62.9751 144.966 63.4767Z" fill="#472D1F"/>
<path d="M145.551 63.5601C147.056 63.2257 148.227 62.9749 149.815 63.3093C149.815 63.3093 149.731 65.4829 148.477 65.6501C146.137 65.901 145.551 63.5601 145.551 63.5601Z" fill="#FCE7DE"/>
<path d="M151.989 52.1907C151.821 51.1038 150.985 50.3514 150.233 50.5186C149.481 50.6858 148.979 51.6891 149.23 52.6923C149.397 53.7791 150.233 54.5315 150.985 54.3643C151.738 54.2807 152.156 53.2775 151.989 52.1907Z" fill="#5B371E"/>
<path d="M153.661 51.6889C152.156 50.6021 150.149 49.6825 147.725 51.6053C150.066 50.9365 151.738 51.2709 153.661 51.6889Z" fill="#5B371E"/>
<path d="M144.381 53.3608C144.13 52.3575 143.378 51.6887 142.709 51.8559C142.04 52.1067 141.706 53.11 142.04 54.1132C142.291 55.1164 143.043 55.7852 143.712 55.618C144.381 55.4508 144.715 54.4476 144.381 53.3608Z" fill="#5B371E"/>
<path d="M145.384 52.1069C144.046 51.4381 142.458 50.9365 140.619 53.1938C142.542 52.0233 143.796 52.0233 145.384 52.1069Z" fill="#5B371E"/>
<path d="M139.615 49.7659C140.033 48.9299 141.622 46.3382 145.468 47.6759C142.458 47.5087 141.12 47.9267 139.615 49.7659Z" fill="#7F4632"/>
<path d="M199.057 147.414C200.06 149.253 205.411 150.925 203.906 152.597C202.568 154.102 198.304 155.021 197.385 148.5L199.057 147.414Z" fill="#FFC397"/>
<path d="M198.555 151.594C200.812 148.835 203.989 150.758 204.742 151.594C205.578 152.513 204.407 154.938 203.237 155.44C202.066 155.941 197.635 152.597 198.555 151.594Z" fill="#FFC397"/>
<path d="M200.896 154.352C200.896 156.192 199.976 158.449 199.224 158.365C198.388 158.365 199.558 156.443 199.14 154.938C198.639 153.266 198.472 152.179 199.224 151.844C199.893 151.426 200.896 152.513 200.896 154.352Z" fill="#FFC397"/>
<path d="M204.156 156.275C205.243 157.53 205.41 158.449 204.992 158.784C204.574 159.118 203.989 158.366 202.986 157.111C201.899 155.857 200.227 154.603 200.645 154.353C201.063 154.018 203.153 155.021 204.156 156.275Z" fill="#FFC397"/>
<path d="M205.745 154.603C207.083 155.606 207.751 157.111 207.333 157.446C206.999 157.78 205.996 156.61 204.658 155.606C203.32 154.603 202.484 153.934 202.819 153.516C203.237 153.182 204.407 153.684 205.745 154.603Z" fill="#FFC397"/>
<path d="M205.996 152.43C207.334 153.433 207.752 154.352 207.334 154.771C206.999 155.105 206.247 154.269 204.993 153.182C203.655 152.179 202.819 151.426 203.153 151.008C203.488 150.674 204.658 151.343 205.996 152.43Z" fill="#FFC397"/>
<path d="M110.271 139.471C108.766 140.642 108.516 145.825 106.593 144.738C104.921 143.735 102.998 139.973 108.85 138.05L110.271 139.471Z" fill="#FFC397"/>
<path d="M106.342 139.722C109.435 141.394 108.348 144.571 107.763 145.407C107.094 146.327 104.586 145.658 103.918 144.655C103.249 143.651 105.171 139.053 106.342 139.722Z" fill="#FFC397"/>
<path d="M104.419 142.314C102.747 142.648 100.406 142.147 100.323 141.394C100.155 140.642 102.162 141.394 103.499 140.725C104.921 139.973 105.924 139.638 106.426 140.307C106.844 140.976 106.091 142.063 104.419 142.314Z" fill="#FFC397"/>
<path d="M103.416 145.658C102.496 146.828 101.66 147.163 101.326 146.828C100.908 146.494 101.493 145.825 102.413 144.738C103.332 143.568 104.085 141.812 104.419 142.147C104.754 142.481 104.252 144.487 103.416 145.658Z" fill="#FFC397"/>
<path d="M105.255 146.828C104.67 148.249 103.416 149.002 102.998 148.751C102.58 148.5 103.499 147.413 104.085 145.992C104.67 144.571 105.171 143.735 105.589 143.986C106.007 144.32 105.84 145.49 105.255 146.828Z" fill="#FFC397"/>
<path d="M107.429 146.661C106.76 147.999 106.008 148.584 105.59 148.25C105.172 147.999 105.84 147.163 106.426 145.825C107.094 144.487 107.512 143.568 107.93 143.819C108.432 144.153 108.014 145.323 107.429 146.661Z" fill="#FFC397"/>
<path d="M159.513 56.5379C160.098 50.5185 159.513 47.6761 162.69 46.6728L157.506 40.1519C157.423 40.1519 156.921 51.0201 159.513 56.5379Z" fill="#7F4220"/>
<path d="M126.406 283.267H115.622C115.622 283.267 122.644 279.254 124.734 279.254C126.741 279.338 126.406 283.267 126.406 283.267Z" fill="#FFE0BB"/>
<path d="M175.397 283.267H164.613C164.613 283.267 167.789 279.254 169.879 279.254C171.97 279.338 175.397 283.267 175.397 283.267Z" fill="#FFE0BB"/>
<path d="M42.0521 189.381C42.8045 178.513 44.0585 160.204 36.1999 159.201C35.1966 159.034 34.3606 159.368 33.6082 160.037C28.8428 164.468 30.2641 185.201 30.3477 186.121L31.3509 186.037C31.3509 185.787 29.9297 164.97 34.277 160.789C34.7786 160.288 35.3638 160.121 36.0327 160.204C42.9717 161.124 41.7176 179.516 41.0488 189.298L42.0521 189.381Z" fill="#5981A5"/>
<path d="M16.8877 239.459L26.5855 183.446L31.4343 182.61L27.8395 240.379L16.8877 239.459Z" fill="#80A6CE"/>
<path d="M47.904 240.045L46.6499 189.298L31.4345 182.61L27.8396 240.379L47.904 240.045Z" fill="#5981A5"/>
<path d="M46.6499 189.298L31.4345 182.61L27.8396 240.379L46.6499 189.298Z" fill="#507A99"/>
<path d="M52.6694 188.964C52.6694 188.964 87.0298 203.427 88.2839 225.163C89.5379 246.9 44.6436 200.919 39.9619 193.478L52.6694 188.964Z" fill="#8E4365"/>
<path d="M85.8594 139.304L90.4575 134.539L91.4607 126.847L88.2838 132.282L76.8303 124.005L85.8594 139.304Z" fill="#8E4365"/>
<path d="M87.6986 116.982L91.3772 122.333L91.1264 130.024L88.9527 124.172L76.2451 130.275L87.6986 116.982Z" fill="#AF4A73"/>
<path d="M75.4092 103.689C76.914 103.773 90.6247 95.6635 90.7919 92.0686L96.7276 95.7471C96.7276 95.7471 94.4703 111.297 78.3352 113.387L75.4092 103.689Z" fill="#AF4A73"/>
<path d="M42.5535 154.018C43.5567 149.503 45.814 115.728 43.1387 106.198L49.7433 97.5029C49.7433 97.5029 58.1872 141.227 51.8334 169.484L42.5535 154.018Z" fill="#AF4A73"/>
<path d="M35.1966 163.382C34.9458 163.883 36.1999 163.8 37.0359 164.134C37.8719 164.468 38.6243 164.552 38.7915 164.05C39.0423 163.549 38.4571 162.796 37.6211 162.462C36.7851 162.044 35.4474 162.796 35.1966 163.382Z" fill="#FFCD9C"/>
<path d="M37.2866 154.018C36.367 155.69 32.6049 161.877 34.0262 163.047C34.7786 163.632 36.1162 164.552 37.2866 162.713C38.1226 161.291 38.875 157.697 38.7914 154.436L37.2866 154.018Z" fill="#FFCD9C"/>
<path d="M64.2066 30.7048C71.5636 34.1325 85.5252 40.5698 86.9464 60.5508C87.6988 71.419 83.2679 90.8984 67.8014 91.9852C52.335 92.9884 41.3831 94.4933 45.2288 62.39C49.1581 30.2867 54.0907 25.4378 64.2066 30.7048Z" fill="#602721"/>
<path d="M44.2255 72.4221C44.2255 72.1713 44.2255 71.9205 44.2255 71.7533C44.2255 71.3353 44.2255 70.8337 44.2255 70.4157C44.2255 69.8305 44.2255 69.2453 44.3091 68.66C44.3927 66.57 44.5599 64.2291 44.8943 61.7211C47.4859 37.9781 50.4956 28.531 57.1838 26.4409C59.3575 25.4377 61.6984 25.4377 64.3737 26.3573C65.1261 26.5245 65.7949 26.6081 66.6309 26.859C67.1325 26.6918 67.6342 26.5245 68.1358 26.4409C69.7242 25.8557 71.5634 26.1065 73.4863 27.0262C77.9172 28.8654 82.181 34.1323 85.7759 41.991C88.3675 47.4251 90.2068 53.7789 90.8756 60.2998C91.8788 71.3353 86.8627 91.0654 70.0586 92.1523C66.6309 92.4031 63.454 92.5703 60.5279 92.5703C62.8688 92.5703 65.3769 92.3195 67.9686 92.1523C83.435 91.149 87.1971 71.5861 86.4447 60.7178C85.6086 48.6791 80.4253 41.5729 74.824 37.0584C65.6277 37.6436 59.2739 49.4315 55.261 66.4028C53.4217 74.2614 55.5118 85.3805 49.2416 89.1426C47.5696 87.6377 46.3155 85.4641 45.4795 82.538C45.4795 82.7052 45.5631 82.7888 45.5631 82.956C44.9779 81.1168 44.6435 78.9431 44.4763 76.3515C44.3091 75.0138 44.2255 73.7598 44.2255 72.4221Z" fill="#9E433C"/>
<path d="M86.3611 60.6345C85.8595 53.5283 83.853 48.1778 81.1777 43.9977C83.017 43.8305 84.7727 43.6633 86.3611 43.3289C88.5348 48.4286 90.2068 54.1971 90.792 60.1329C91.7952 71.1684 86.7791 90.8985 69.975 91.9854C66.5473 92.2362 63.3704 92.4034 60.4443 92.4034C62.7852 92.4034 65.2932 92.1526 67.8849 91.9854C83.3514 90.9821 87.1135 71.4192 86.3611 60.6345Z" fill="#77392F"/>
<path d="M44.3091 68.5768C44.3927 66.4031 44.5599 64.1458 44.8943 61.6378C46.0647 50.6023 47.4023 42.7437 49.0744 37.1423C52.7529 39.5668 58.3543 41.6569 64.7916 42.9109C60.6951 48.0942 57.5182 56.2872 55.1774 66.3195C53.3381 74.1781 55.4282 85.2972 49.158 89.0593C47.486 87.5545 46.2319 85.3808 45.3959 82.4547C45.3959 82.6219 45.4795 82.7055 45.4795 82.8727C44.8943 81.0335 44.5599 78.8598 44.3927 76.2682C44.3091 75.0977 44.2255 73.8437 44.2255 72.4225C44.2255 72.1717 44.2255 71.9209 44.2255 71.7537C44.2255 71.3356 44.2255 70.834 44.2255 70.416C44.3091 69.7472 44.3091 69.162 44.3091 68.5768Z" fill="#77392F"/>
<path d="M63.7884 61.0522L72.6504 62.7243L72.9848 84.5445L63.5376 83.9592L63.7884 61.0522Z" fill="#EF8F6F"/>
<path d="M70.8947 78.6924C73.9044 75.3484 86.6955 91.2328 100.573 108.037C104.252 112.468 104.754 119.908 97.313 111.883C81.763 95.4129 69.3063 80.3645 70.8947 78.6924Z" fill="#FFC397"/>
<path d="M93.3838 107.786C79.7566 92.9883 69.4736 80.2808 70.8112 78.6923C73.4865 75.7663 83.7696 87.7214 95.6411 102.185C94.6378 103.606 93.8854 105.529 93.3838 107.786Z" fill="#EF8F6F"/>
<path d="M85.6085 88.5574L96.8112 95.7472C92.0459 101.432 88.2838 104.107 78.6695 105.194L78.5023 97.7536C83.8529 94.3259 85.6085 88.5574 85.6085 88.5574Z" fill="#E06994"/>
<path d="M70.9782 174.751L78.5024 176.591C81.1776 220.9 69.3062 255.511 68.8882 281.929H66.0458C66.8818 250.829 72.7339 213.292 70.9782 174.751Z" fill="#FFC397"/>
<path d="M62.9523 175.337L55.5953 177.176C51.1643 221.151 61.1967 255.511 60.6114 281.762H63.3703C63.7883 250.746 59.6918 213.543 62.9523 175.337Z" fill="#FFC397"/>
<path d="M70.9782 174.751L78.5024 176.591C79.2548 189.716 79.1712 207.189 76.9975 220.064C74.6567 217.807 72.901 216.469 70.4766 215.466C70.9782 204.263 71.4798 186.372 70.9782 174.751Z" fill="#EF8F6F"/>
<path d="M62.9525 175.337C62.1165 185.035 62.0329 199.916 61.6985 209.279C59.3576 208.025 56.9331 207.189 54.5087 206.019C54.007 197.074 54.9267 184.199 55.5955 177.093L62.9525 175.337Z" fill="#EF8F6F"/>
<path d="M58.1035 80.2811C50.7465 78.2746 40.4635 134.539 36.5342 156.861L38.2898 157.864C38.2898 157.864 43.1387 139.137 48.4057 120.327C54.5086 98.9243 60.2772 80.8663 58.1035 80.2811Z" fill="#FFCD9C"/>
<path d="M44.4763 116.23C48.0712 97.8371 53.6726 79.2774 58.1036 80.2806C60.2772 80.8658 55.3447 98.4223 48.8237 118.905C47.486 117.651 45.9812 117.066 44.4763 116.23Z" fill="#EF8F6F"/>
<path d="M50.5793 91.5674L43.1387 106.198C51.7497 111.548 58.9395 112.886 66.8817 109.458L64.29 99.6768C55.8462 97.5867 50.5793 91.5674 50.5793 91.5674Z" fill="#E06994"/>
<path d="M51.9169 92.9045C54.2578 95.1618 58.1035 98.1715 64.2901 99.6763L66.8818 109.458C60.7788 112.133 55.1774 111.966 48.9908 109.291C49.7433 106.699 52.8365 99.3419 51.9169 92.9045Z" fill="#CE5788"/>
<path d="M88.284 225.163C84.1875 214.964 75.6601 197.825 39.9619 193.478C39.9619 193.478 43.4732 148.584 49.7434 123.503C51.5826 116.313 49.4925 104.107 50.4958 97.837C52.4186 85.7147 55.5955 84.2098 56.6824 80.9494C58.2708 76.1004 75.9109 76.0168 79.0042 82.1198C80.927 85.8819 79.7566 105.528 81.1778 129.522C83.8531 171.156 88.284 225.163 88.284 225.163Z" fill="#D6859F"/>
<path d="M54.9266 193.98C53.5053 188.462 52.9201 174.083 51.5825 173.665C50.2448 173.247 48.2384 192.475 48.2384 192.475L54.9266 193.98Z" fill="#C46C8C"/>
<path d="M63.5376 197.575C67.6341 188.211 68.2193 170.07 70.5602 170.906C72.9846 171.742 74.6567 204.012 74.6567 204.012L63.5376 197.575Z" fill="#C46C8C"/>
<path d="M73.988 78.191L69.1391 89.2264L62.6182 77.6058C62.6182 77.6058 66.631 76.6861 68.7211 76.8533C70.8947 76.9369 73.988 78.191 73.988 78.191Z" fill="#FFBDD8"/>
<path d="M75.242 79.2776C75.1584 79.1104 75.0747 78.9432 74.9911 78.6924C76.914 79.4448 78.4189 80.5316 79.1713 81.9529C81.5958 86.4674 83.1843 105.612 81.5958 127.934C84.1875 148.249 88.2841 225.08 88.2841 225.08C86.0268 219.478 82.4318 211.871 73.9043 205.35C75.4928 169.15 81.0942 92.7376 75.242 79.2776Z" fill="#C46C8C"/>
<path d="M50.1613 100.011C56.5986 106.198 69.975 107.702 78.8369 106.448L78.0008 125.175L50.3284 119.825L50.1613 100.011Z" fill="#C46C8C"/>
<path d="M78.2515 140.056L48.6565 129.355L48.9909 127.098L78.0843 132.699L78.2515 140.056Z" fill="#C46C8C"/>
<path d="M49.7433 118.403L47.9877 128.686C58.1871 130.108 69.8914 133.034 84.0202 137.381L83.1842 123.503C70.0586 123.001 58.9396 121.162 49.7433 118.403Z" fill="#F7A1C0"/>
<path d="M75.4091 123.085L83.1841 123.503L84.0201 137.381L74.9075 134.706C76.4959 127.934 75.9107 125.342 75.4091 123.085Z" fill="#DD85A9"/>
<path d="M101.827 110.963C107.011 114.558 99.2358 119.741 87.6986 131.529C84.2709 135.124 78.8368 139.137 84.5218 130.944C94.2196 116.815 100.573 110.127 101.827 110.963Z" fill="#FFC397"/>
<path d="M74.5732 283.267H65.1261C65.1261 283.267 66.2965 278.418 68.0522 279.087C70.2258 279.923 74.5732 283.267 74.5732 283.267Z" fill="#C6B38B"/>
<path d="M57.5184 283.267H64.6246C64.6246 283.267 62.9525 278.418 61.3641 279.087C59.4413 279.923 57.5184 283.267 57.5184 283.267Z" fill="#C6B38B"/>
<path d="M73.0684 78.0235L69.3899 86.1329L63.6213 77.3547C63.6213 77.3547 66.3802 74.8467 68.5539 75.0139C70.644 75.1811 73.0684 78.0235 73.0684 78.0235Z" fill="#EF8F6F"/>
<path d="M51.5824 93.239L54.9266 79.8626L58.9396 78.6086C58.9396 78.525 53.3381 90.0621 51.5824 93.239Z" fill="#FFBDD8"/>
<path d="M81.5121 94.075L80.1744 80.7823L76.5795 79.1938C76.5795 79.2774 80.0072 88.0557 81.5121 94.075Z" fill="#FFBDD8"/>
<path d="M50.7466 118.821C55.2611 121.413 65.5442 123.336 71.9815 122.751C63.5377 121.664 58.6888 120.911 50.7466 118.821Z" fill="#FFBDD8"/>
<path opacity="0.5" d="M53.6726 84.7952L54.9266 79.8627L58.9395 78.6086C58.9395 78.6086 58.8559 78.6922 58.7723 78.9431C59.7756 78.3578 61.1968 77.9398 62.7016 77.689V77.6054C62.7016 77.6054 63.1196 77.5218 63.7048 77.4382L63.7885 62.7242C64.3737 62.6406 64.8753 62.6406 65.4605 62.6406C67.9686 62.6406 70.3931 63.1422 72.7339 63.8947L72.9847 77.8562C73.6535 78.107 74.1551 78.2742 74.1551 78.2742L74.0715 78.4414C74.406 78.5251 74.7404 78.6922 75.0748 78.7759C75.66 79.0267 76.2452 79.2775 76.7468 79.6119C76.6632 79.4447 76.6632 79.2775 76.6632 79.2775L80.2581 80.8659L80.4253 82.7888C82.181 84.1264 74.824 90.6474 66.0457 90.6474C60.6952 90.6474 53.0037 86.0492 53.6726 84.7952Z" fill="#A0513C"/>
<path d="M61.3639 48.3448C63.872 40.2354 68.5538 35.0521 71.5635 35.2193C78.0845 35.7209 82.4318 48.0104 82.0974 58.7951C82.0974 61.8048 78.6697 70.583 71.0619 73.2582C64.9589 71.2518 58.3543 64.062 58.1035 58.9623C57.6854 54.1134 60.9459 49.5988 61.3639 48.3448Z" fill="#FFC397"/>
<path d="M59.8591 51.3545C59.6083 52.5249 59.5247 53.6954 59.5247 54.9494C59.5247 61.136 64.2065 68.493 70.9783 73.4255C64.8753 71.419 58.2707 64.2292 58.0199 59.1295C57.8526 56.1198 58.9395 53.3609 59.8591 51.3545Z" fill="#F7A27C"/>
<path d="M55.6347 52.4603C54.2648 53.0137 53.8273 55.1283 54.6575 57.1832C55.4877 59.2381 57.2713 60.4553 58.6412 59.9018C60.0111 59.3483 60.4487 57.2338 59.6185 55.1789C58.7883 53.124 57.0047 51.9068 55.6347 52.4603Z" fill="#FFC397"/>
<path d="M55.7169 53.5907C54.818 53.9543 54.5385 55.3594 55.0926 56.7291C55.6466 58.0988 56.8245 58.9143 57.7233 58.5507C58.6221 58.1871 58.9016 56.782 58.3475 55.4123C57.7934 54.0427 56.6157 53.2271 55.7169 53.5907Z" fill="#EF8F6F"/>
<path d="M57.0452 55.8276C56.4031 56.0873 56.1913 57.0612 56.5721 58.0029C56.9529 58.9447 57.7822 59.4976 58.4243 59.238C59.0664 58.9783 59.2782 58.0044 58.8974 57.0626C58.5165 56.1209 57.6873 55.568 57.0452 55.8276Z" fill="#FFC397"/>
<path d="M59.8591 60.7178C59.7755 56.7885 59.2739 52.4412 55.4282 50.5183L59.3575 43.5793C59.3575 43.5793 60.8624 47.425 61.364 50.3511C61.8656 53.4444 61.6984 55.9525 59.8591 60.7178Z" fill="#77392F"/>
<path d="M69.8913 64.48C69.5569 65.7341 71.7306 69.4962 73.4027 69.329C74.6568 69.2454 76.8305 65.9013 76.7469 64.6472C76.3289 63.8948 71.1454 63.8948 69.8913 64.48Z" fill="#472D1F"/>
<path d="M70.6439 64.731C72.734 64.313 74.3224 64.0621 76.1617 64.731C76.1617 64.731 75.3256 67.5735 73.7372 67.7407C71.0619 67.9915 70.6439 64.731 70.6439 64.731Z" fill="#FCE7DE"/>
<path d="M79.5892 53.8625C79.422 52.8592 78.7532 52.1068 78.0008 52.1904C77.2484 52.3576 76.7469 53.2773 76.9141 54.2805C77.0813 55.2837 77.75 56.0361 78.5024 55.9525C79.2548 55.7853 79.7564 54.8657 79.5892 53.8625Z" fill="#5B371E"/>
<path d="M81.2613 53.4446C79.8401 52.3577 78.0009 51.4381 75.4929 53.1937C77.8337 52.6085 79.4221 52.9429 81.2613 53.4446Z" fill="#5B371E"/>
<path d="M66.6309 54.1133C66.7145 53.0265 67.3834 52.2741 68.1358 52.3577C68.8882 52.4413 69.4735 53.3609 69.3899 54.3641C69.3063 55.4509 68.6374 56.2033 67.8849 56.1197C67.0489 56.0361 66.5473 55.1165 66.6309 54.1133Z" fill="#5B371E"/>
<path d="M64.959 53.7791C66.2966 52.6086 68.0523 51.5218 70.644 53.1103C68.2195 52.6922 66.7146 53.1939 64.959 53.7791Z" fill="#5B371E"/>
<path d="M63.7048 50.6019C64.2901 49.5151 66.3801 46.4218 71.1455 48.261C67.3834 47.9266 65.6277 48.4283 63.7048 50.6019Z" fill="#7F4632"/>
<path d="M82.1811 50.6019C81.5959 49.5151 79.5058 46.4218 74.7405 48.261C78.419 47.9266 80.1746 48.4283 82.1811 50.6019Z" fill="#7F4632"/>
<path d="M70.811 61.2195C70.811 60.5507 71.8143 57.541 73.1519 57.541C74.4896 57.541 75.66 60.4671 75.66 61.2195C75.66 61.8883 74.5731 62.4736 73.2355 62.4736C71.8979 62.4736 70.811 61.8883 70.811 61.2195Z" fill="#F7A27C"/>
<path d="M72.483 60.6344C72.3158 59.9655 72.065 57.0395 72.901 56.8723C73.737 56.6215 75.1582 59.2131 75.409 59.7983C75.5762 60.4672 75.0746 61.2196 74.3222 61.3868C73.4026 61.6376 72.6502 61.3032 72.483 60.6344Z" fill="#FFC397"/>
<path d="M37.2866 163.883C37.7883 163.967 38.1227 163.047 38.2899 161.96C38.5407 160.873 38.5407 160.037 38.0391 159.954C37.5374 159.87 36.9522 160.706 36.785 161.793C36.5342 162.88 36.785 163.799 37.2866 163.883Z" fill="#FFCD9C"/>
<path d="M35.6982 163.632C36.1998 163.716 36.5342 162.796 36.7014 161.709C36.9522 160.622 36.9522 159.786 36.4506 159.703C35.949 159.619 35.3638 160.455 35.1966 161.542C35.0294 162.545 35.1966 163.548 35.6982 163.632Z" fill="#FFCD9C"/>
<path d="M39.0422 160.873C39.3766 160.455 38.6242 159.786 37.7881 159.118C36.9521 158.449 36.1997 158.031 35.8652 158.365C35.5308 158.783 36.0325 159.619 36.8685 160.288C37.7881 161.041 38.7078 161.291 39.0422 160.873Z" fill="#FFCD9C"/>
<path d="M38.0389 155.773C37.6209 155.523 36.9521 156.275 36.3669 157.195C35.6982 158.114 35.3638 158.867 35.7818 159.118C36.1998 159.368 37.0357 158.867 37.6209 157.947C38.2897 156.944 38.4569 156.024 38.0389 155.773Z" fill="#FFCD9C"/>
<path d="M38.2898 164.301C38.7915 164.385 39.1259 163.465 39.2931 162.378C39.5439 161.291 39.5439 160.455 39.0423 160.372C38.5407 160.288 37.9554 161.124 37.7882 162.211C37.621 163.214 37.8718 164.217 38.2898 164.301Z" fill="#FFCD9C"/>
<path d="M82.4319 138.97C82.9334 139.304 83.6858 138.552 84.3546 137.548C85.0234 136.545 85.3578 135.709 84.9398 135.375C84.4382 135.04 83.5186 135.542 82.8499 136.545C82.0975 137.548 81.9303 138.635 82.4319 138.97Z" fill="#EF8F6F"/>
<path d="M83.5185 139.889C84.0202 140.224 84.7726 139.471 85.4414 138.468C86.1103 137.465 86.4447 136.629 86.0267 136.294C85.525 135.96 84.6054 136.462 83.9365 137.465C83.1005 138.468 83.0169 139.555 83.5185 139.889Z" fill="#EF8F6F"/>
<path d="M80.4252 137.381C80.0071 137.799 81.3448 138.301 82.1809 139.053C83.0169 139.806 83.7693 140.307 84.1873 139.889C84.6053 139.471 84.3545 138.468 83.5185 137.716C82.6825 136.88 80.8432 136.88 80.4252 137.381Z" fill="#FFC397"/>
<path d="M86.361 129.104C84.689 130.275 78.0845 134.622 79.1713 136.545C79.7565 137.548 80.927 139.137 82.8498 137.883C84.3546 136.879 86.5283 133.703 87.7823 130.359L86.361 129.104Z" fill="#FFC397"/>
<path d="M116.123 45.5024L110.522 32.8785L116.541 32.4604L116.123 45.5024Z" fill="#E07599"/>
<path d="M99.6537 35.9715L130.001 37.2256L135.185 0.858643L94.8884 10.3893L99.6537 35.9715Z" fill="#E07599"/>
<path d="M32.6048 54.8657L25.0806 43.5794L31.7687 42.4089L32.6048 54.8657Z" fill="#F4D864"/>
<path d="M43.473 44.081L8.6946 48.0103L0 13.5662L47.1515 19.1675L43.473 44.081Z" fill="#F4D864"/>
</svg>
