<svg width="15" height="15" viewBox="0 0 15 15" fill="none" xmlns="http://www.w3.org/2000/svg">
<path d="M14.3132 7.2705C14.3132 11.0067 11.2637 14.041 7.49514 14.041C3.72658 14.041 0.677124 11.0067 0.677124 7.2705C0.677124 3.53432 3.72658 0.5 7.49514 0.5C11.2637 0.5 14.3132 3.53432 14.3132 7.2705Z" stroke="white"/>
<path d="M9.27294 7.68369L9.44543 6.48752H8.36693V5.71128C8.36693 5.38403 8.51759 5.06504 9.00062 5.06504H9.49092V4.04663C9.49092 4.04663 9.04598 3.96582 8.62057 3.96582C7.73239 3.96582 7.15184 4.53873 7.15184 5.57586V6.48752H6.16455V7.68369H7.15184V10.5754H8.36693V7.68369H9.27294Z" fill="white"/>
</svg>
