<svg width="34" height="28" viewBox="0 0 34 28" fill="none" xmlns="http://www.w3.org/2000/svg">
<path d="M30.1187 14C30.1187 21.476 24.3143 27.5 17.1982 27.5C10.0822 27.5 4.27777 21.476 4.27777 14C4.27777 6.52402 10.0822 0.5 17.1982 0.5C24.3143 0.5 30.1187 6.52402 30.1187 14Z" stroke="#5E727C"/>
<path d="M17.1998 10.7369C15.2956 10.7369 13.7597 12.1938 13.7597 14C13.7597 15.8062 15.2956 17.2631 17.1998 17.2631C19.104 17.2631 20.6399 15.8062 20.6399 14C20.6399 12.1938 19.104 10.7369 17.1998 10.7369ZM17.1998 16.1214C15.9693 16.1214 14.9633 15.1701 14.9633 14C14.9633 12.8299 15.9663 11.8785 17.1998 11.8785C18.4333 11.8785 19.4363 12.8299 19.4363 14C19.4363 15.1701 18.4303 16.1214 17.1998 16.1214ZM21.583 10.6034C21.583 11.0266 21.2237 11.3645 20.7806 11.3645C20.3345 11.3645 19.9782 11.0237 19.9782 10.6034C19.9782 10.1831 20.3375 9.84229 20.7806 9.84229C21.2237 9.84229 21.583 10.1831 21.583 10.6034ZM23.8614 11.3759C23.8105 10.3563 23.565 9.45322 22.7776 8.70915C21.9931 7.96508 21.0411 7.7322 19.9662 7.68108C18.8584 7.62144 15.5381 7.62144 14.4304 7.68108C13.3585 7.72936 12.4064 7.96224 11.619 8.70631C10.8316 9.45038 10.5891 10.3535 10.5352 11.373C10.4723 12.4238 10.4723 15.5733 10.5352 16.6241C10.5861 17.6437 10.8316 18.5468 11.619 19.2908C12.4064 20.0349 13.3555 20.2678 14.4304 20.3189C15.5381 20.3785 18.8584 20.3785 19.9662 20.3189C21.0411 20.2706 21.9931 20.0377 22.7776 19.2908C23.562 18.5468 23.8075 17.6437 23.8614 16.6241C23.9242 15.5733 23.9242 12.4267 23.8614 11.3759ZM22.4303 17.7516C22.1967 18.3082 21.7446 18.737 21.1548 18.9614C20.2716 19.2937 18.1758 19.217 17.1998 19.217C16.2238 19.217 14.125 19.2908 13.2448 18.9614C12.6579 18.7399 12.2058 18.311 11.9693 17.7516C11.619 16.9138 11.6999 14.9258 11.6999 14C11.6999 13.0742 11.622 11.0834 11.9693 10.2484C12.2028 9.69177 12.6549 9.26294 13.2448 9.03858C14.128 8.70631 16.2238 8.78299 17.1998 8.78299C18.1758 8.78299 20.2746 8.70915 21.1548 9.03858C21.7416 9.2601 22.1937 9.68893 22.4303 10.2484C22.7806 11.0862 22.6997 13.0742 22.6997 14C22.6997 14.9258 22.7806 16.9166 22.4303 17.7516Z" fill="#5E727C"/>
</svg>
