<svg width="15" height="15" viewBox="0 0 15 15" fill="none" xmlns="http://www.w3.org/2000/svg">
<path d="M13.5352 7.2705C13.5352 11.0299 10.619 14.041 7.06567 14.041C3.51235 14.041 0.59613 11.0299 0.59613 7.2705C0.59613 3.51112 3.51235 0.5 7.06567 0.5C10.619 0.5 13.5352 3.51112 13.5352 7.2705Z" stroke="white"/>
<path d="M7.06648 5.57599C6.07761 5.57599 5.27998 6.33259 5.27998 7.27059C5.27998 8.2086 6.07761 8.9652 7.06648 8.9652C8.05536 8.9652 8.85298 8.2086 8.85298 7.27059C8.85298 6.33259 8.05536 5.57599 7.06648 5.57599ZM7.06648 8.37231C6.42744 8.37231 5.90502 7.87823 5.90502 7.27059C5.90502 6.66295 6.42589 6.16888 7.06648 6.16888C7.70707 6.16888 8.22794 6.66295 8.22794 7.27059C8.22794 7.87823 7.70552 8.37231 7.06648 8.37231ZM9.34276 5.50667C9.34276 5.72642 9.15618 5.90193 8.92606 5.90193C8.69439 5.90193 8.50937 5.72495 8.50937 5.50667C8.50937 5.28839 8.69595 5.11141 8.92606 5.11141C9.15618 5.11141 9.34276 5.28839 9.34276 5.50667ZM10.526 5.90783C10.4996 5.37836 10.3721 4.90936 9.96314 4.52295C9.55577 4.13653 9.06133 4.0156 8.50315 3.98905C7.92786 3.95808 6.20355 3.95808 5.62826 3.98905C5.07163 4.01412 4.57719 4.13506 4.16827 4.52147C3.75935 4.90788 3.63341 5.37688 3.60542 5.90636C3.57277 6.45205 3.57277 8.08766 3.60542 8.63336C3.63185 9.16283 3.75935 9.63183 4.16827 10.0182C4.57719 10.4047 5.07007 10.5256 5.62826 10.5521C6.20355 10.5831 7.92786 10.5831 8.50315 10.5521C9.06133 10.5271 9.55577 10.4061 9.96314 10.0182C10.3705 9.63183 10.498 9.16283 10.526 8.63336C10.5586 8.08766 10.5586 6.45353 10.526 5.90783ZM9.78278 9.21887C9.6615 9.50794 9.42672 9.73065 9.12042 9.84716C8.66174 10.0197 7.57336 9.9799 7.06648 9.9799C6.55961 9.9799 5.46967 10.0182 5.01255 9.84716C4.7078 9.73212 4.47302 9.50942 4.35019 9.21887C4.16827 8.78379 4.21025 7.75139 4.21025 7.27059C4.21025 6.78979 4.16983 5.75592 4.35019 5.32231C4.47146 5.03324 4.70624 4.81054 5.01255 4.69403C5.47122 4.52147 6.55961 4.56129 7.06648 4.56129C7.57336 4.56129 8.6633 4.52295 9.12042 4.69403C9.42516 4.80907 9.65994 5.03177 9.78278 5.32231C9.96469 5.7574 9.92271 6.78979 9.92271 7.27059C9.92271 7.75139 9.96469 8.78527 9.78278 9.21887Z" fill="white"/>
</svg>
