<svg width="16" height="15" viewBox="0 0 16 15" fill="none" xmlns="http://www.w3.org/2000/svg">
<path d="M14.8207 7.2705C14.8207 11.0067 11.7713 14.041 8.00271 14.041C4.23415 14.041 1.18469 11.0067 1.18469 7.2705C1.18469 3.53432 4.23415 0.5 8.00271 0.5C11.7713 0.5 14.8207 3.53432 14.8207 7.2705Z" stroke="white"/>
<path d="M9.4939 8.27618C9.13877 8.50073 8.65014 8.58977 8.32742 8.62333L8.5983 8.88917L9.58722 9.87385C9.94883 10.2429 9.36041 10.8198 8.99491 10.4636C8.74735 10.2133 8.38444 9.85191 8.00598 9.47507L7.01706 10.4623C6.65156 10.8172 6.06313 10.2352 6.42863 9.87255C6.68008 9.62219 7.03909 9.26085 7.41756 8.88788L7.68455 8.62204C7.36571 8.58848 6.86931 8.5046 6.51029 8.27488C6.08776 8.00387 5.90242 7.84514 6.06573 7.51347C6.16164 7.32506 6.42474 7.16632 6.77339 7.43991C6.77339 7.43991 7.24388 7.81288 8.00339 7.81288C8.76291 7.81288 9.23339 7.43991 9.23339 7.43991C9.58204 7.16761 9.84385 7.32506 9.94106 7.51347C10.1018 7.84514 9.91643 8.00387 9.4939 8.27618ZM6.32106 5.63963C6.32106 4.71433 7.07668 3.96582 8.0021 3.96582C8.92751 3.96582 9.68313 4.71433 9.68313 5.63963C9.68313 6.56107 8.92751 7.30957 8.0021 7.30957C7.07668 7.30957 6.32106 6.56107 6.32106 5.63963ZM7.17648 5.63963C7.17648 6.09261 7.54717 6.4617 8.0021 6.4617C8.45703 6.4617 8.82771 6.09261 8.82771 5.63963C8.82771 5.18279 8.45703 4.8137 8.0021 4.8137C7.54717 4.8137 7.17648 5.18279 7.17648 5.63963Z" fill="white"/>
</svg>
