<svg width="35" height="28" viewBox="0 0 35 28" fill="none" xmlns="http://www.w3.org/2000/svg">
<path d="M31.585 14C31.585 21.4528 25.5029 27.5 17.9935 27.5C10.484 27.5 4.40198 21.4528 4.40198 14C4.40198 6.54722 10.484 0.5 17.9935 0.5C25.5029 0.5 31.585 6.54722 31.585 14Z" stroke="#5E727C"/>
<path d="M20.865 15.9363C20.1812 16.3687 19.2403 16.5402 18.6188 16.6048L19.1404 17.1167L21.0447 19.0128C21.741 19.7235 20.6079 20.8343 19.9041 20.1485C19.4274 19.6664 18.7286 18.9706 17.9999 18.2449L16.0956 20.146C15.3918 20.8294 14.2587 19.7086 14.9625 19.0103C15.4467 18.5282 16.138 17.8324 16.8668 17.1142L17.3809 16.6023C16.767 16.5377 15.8111 16.3762 15.1198 15.9339C14.3062 15.412 13.9493 15.1063 14.2637 14.4677C14.4484 14.1049 14.955 13.7992 15.6264 14.326C15.6264 14.326 16.5324 15.0442 17.9949 15.0442C19.4574 15.0442 20.3633 14.326 20.3633 14.326C21.0347 13.8017 21.5388 14.1049 21.726 14.4677C22.0355 15.1063 21.6786 15.412 20.865 15.9363ZM14.7554 10.8594C14.7554 9.07768 16.2104 7.63637 17.9924 7.63637C19.7743 7.63637 21.2294 9.07768 21.2294 10.8594C21.2294 12.6337 19.7743 14.0751 17.9924 14.0751C16.2104 14.0751 14.7554 12.6337 14.7554 10.8594ZM16.4026 10.8594C16.4026 11.7317 17.1164 12.4424 17.9924 12.4424C18.8684 12.4424 19.5822 11.7317 19.5822 10.8594C19.5822 9.97974 18.8684 9.26903 17.9924 9.26903C17.1164 9.26903 16.4026 9.97974 16.4026 10.8594Z" fill="#5E727C"/>
</svg>
