<svg width="17" height="45" viewBox="0 0 17 45" fill="none" xmlns="http://www.w3.org/2000/svg">
<path d="M0.576291 43.9688C0.559066 44.2444 0.768524 44.4818 1.04413 44.499L5.53536 44.7797C5.81097 44.797 6.04836 44.5875 6.06558 44.3119C6.08281 44.0363 5.87335 43.7989 5.59774 43.7817L1.60553 43.5322L1.85505 39.54C1.87227 39.2643 1.66281 39.027 1.38721 39.0097C1.1116 38.9925 0.874219 39.202 0.856993 39.4776L0.576291 43.9688ZM7.23008 1.36168C9.06747 3.11555 11.1399 5.06924 12.7654 7.93424C14.3858 10.7901 15.5753 14.5788 15.5753 20H16.5753C16.5753 14.4212 15.3482 10.4599 13.6352 7.44076C11.9274 4.43076 9.74983 2.38445 7.92056 0.638322L7.23008 1.36168ZM15.5753 20C15.5753 25.1066 12.6227 30.3691 9.24309 34.7157C5.87676 39.0452 2.15529 42.3803 0.744507 43.6251L1.40613 44.3749C2.82868 43.1197 6.6072 39.7349 10.0325 35.3295C13.4446 30.9413 16.5753 25.4537 16.5753 20H15.5753Z" fill="black"/>
</svg>
