<svg width="270" height="457" viewBox="0 0 270 457" fill="none" xmlns="http://www.w3.org/2000/svg">
<rect width="270" height="457" rx="4" fill="#F5F5F4"/>
<path d="M208.969 408.409C207.147 408.182 223.197 424.3 225.36 420.441C228.433 415.333 215.001 409.09 208.969 408.409Z" fill="#AF6345"/>
<path d="M225.36 419.079C223.538 422.144 213.066 412.495 209.765 408.522C209.424 408.522 209.196 408.409 208.969 408.409C207.147 408.182 223.197 424.3 225.36 420.441C225.815 419.646 225.929 418.852 225.701 418.171C225.701 418.511 225.587 418.738 225.36 419.079Z" fill="#844129"/>
<path d="M128.153 391.155V432.133H126.559L124.169 391.155H128.153Z" fill="#824631"/>
<path d="M102.2 391.155V432.133H103.794L106.184 391.155H102.2Z" fill="#824631"/>
<path d="M135.893 389.452H93.6635V396.149H135.893V389.452Z" fill="#AF6345"/>
<path d="M136.007 390.474L138.625 432.133H137.031L132.023 390.474H136.007Z" fill="#AF6345"/>
<path d="M93.2081 390.474L90.5901 432.133H92.2975L97.3057 390.474H93.2081Z" fill="#AF6345"/>
<path d="M205.782 392.29C206.92 390.474 209.652 387.409 213.636 389.792C218.872 393.084 213.181 397.625 213.181 397.625L205.782 392.29Z" fill="#AF6345"/>
<path d="M207.261 392.517C208.058 391.268 210.107 388.998 212.839 390.701C216.595 392.971 212.497 396.263 212.497 396.263L207.261 392.517Z" fill="#844129"/>
<path d="M91.273 374.128C89.6794 368.112 76.5894 311.81 80.3457 306.702C82.2807 303.977 106.867 298.756 111.079 298.983C115.29 299.21 136.69 304.772 142.95 314.08C145.227 317.485 129.405 373.787 129.405 373.787L91.273 374.128Z" fill="#D6624C"/>
<path d="M109.257 305.907C114.835 305.34 118.591 303.183 120.867 301.14C116.656 299.437 112.444 298.529 110.851 298.529C109.03 298.415 102.542 299.21 97.4194 301.14C99.3545 303.523 103.111 306.588 109.257 305.907Z" fill="#FFB89F"/>
<path d="M142.723 316.464C142.153 315.556 140.446 316.01 139.649 315.215C138.966 322.026 132.364 325.999 130.771 333.377C127.811 347.566 130.429 359.939 124.51 364.366C121.323 366.75 116.429 364.707 111.648 364.707C105.615 364.707 99.3549 368.566 95.2572 366.409C89.9074 363.571 91.6148 337.01 89.3383 326.226C87.2894 316.691 81.9396 316.918 82.3949 308.859C81.2567 309.313 79.6631 309.653 79.4355 309.994C75.6792 315.102 89.3383 369.02 90.818 374.923L129.86 374.015C129.746 374.015 144.999 319.756 142.723 316.464Z" fill="#BC4333"/>
<path d="M131.909 329.745C131.226 333.718 129.291 339.734 119.844 341.89C119.844 341.89 130.429 343.366 134.527 339.62C138.625 335.874 131.909 329.745 131.909 329.745Z" fill="#BC4333"/>
<path d="M89.1104 327.247C90.021 341.323 98.1025 343.48 104.135 345.977C104.135 345.977 92.6389 347.566 89.5656 342.231C86.3785 336.896 89.1104 327.247 89.1104 327.247Z" fill="#BC4333"/>
<path d="M82.9637 392.063H143.519C143.519 392.063 156.04 376.058 148.641 374.582C141.925 373.22 122.575 368.679 113.697 368.906C106.981 369.02 77.8415 371.177 72.947 376.739C68.0525 382.301 82.9637 392.063 82.9637 392.063Z" fill="#563B31"/>
<path d="M134.868 382.641C130.429 381.96 126.673 376.058 130.771 371.744C127.47 369.247 96.7368 371.517 95.94 371.404C96.7368 373.106 106.412 379.349 95.5985 382.074C87.2892 383.89 79.6628 384.458 73.9716 384.003C77.1587 388.203 82.9638 392.063 82.9638 392.063H143.519C143.519 392.063 145.796 389.112 147.845 385.706C143.974 385.593 139.308 383.322 134.868 382.641Z" fill="#492E26"/>
<path d="M92.9802 388.884C89.4516 382.641 78.2966 370.268 71.5809 377.42C64.8652 384.571 95.3705 420.327 103.224 431.338H105.842C96.3949 415.9 96.6226 395.128 92.9802 388.884Z" fill="#563B31"/>
<path d="M103.908 431.338H105.843C96.2815 415.787 96.8506 394.674 93.322 388.43C92.5252 387.068 89.1104 382.074 87.7445 380.485C91.8423 389.225 95.4847 417.376 103.908 431.338Z" fill="#492E26"/>
<path d="M133.389 388.317C136.348 382.074 146.023 369.474 153.081 376.739C160.024 384.004 133.616 420.214 127.014 431.338H124.396C132.364 415.673 130.429 394.674 133.389 388.317Z" fill="#563B31"/>
<path d="M135.437 388.998C136.462 386.841 137.486 383.549 138.852 380.144C136.462 382.868 133.616 386.274 132.592 388.544C129.632 394.787 132.25 415.673 124.282 431.338H125.99C133.389 415.787 132.592 395.128 135.437 388.998Z" fill="#492E26"/>
<path d="M99.9237 300.913L104.135 283.318L118.022 291.377L117.567 301.48C112.558 304.999 103.794 305.226 99.9237 300.913Z" fill="#EF8F6F"/>
<path d="M128.722 264.135C154.446 238.821 110.168 242.567 104.818 259.708C101.973 268.902 106.412 284.453 113.469 286.724C120.526 288.994 121.778 271.059 128.722 264.135Z" fill="#AA4F30"/>
<path d="M123.372 257.778C114.152 252.329 109.599 258.913 107.778 255.394C105.957 256.416 104.363 257.778 102.997 259.594C96.2816 269.016 105.843 284.113 106.64 288.767C106.64 288.767 123.372 279.572 128.153 269.356C125.535 268.675 126.218 259.367 123.372 257.778Z" fill="#8C3922"/>
<path opacity="0.5" d="M123.6 302.048C122.689 301.707 121.778 301.367 120.868 301.14C119.729 300.686 118.705 300.345 117.567 300.004L118.022 291.377L104.135 283.318L100.038 300.231C99.127 300.458 98.2164 300.799 97.4196 301.14C91.5006 302.502 85.354 304.091 82.1669 305.567C85.8093 308.518 93.208 310.448 101.631 310.448C113.128 310.334 122.575 306.702 123.6 302.048Z" fill="#BC5642"/>
<path d="M122.689 302.502C111.42 301.594 106.298 294.669 106.412 290.129C106.526 286.269 110.168 275.145 108.347 270.945C106.526 266.745 111.306 257.324 116.884 256.189C122.347 255.054 133.275 262.318 131.34 276.28C131.226 277.529 128.266 278.664 128.38 281.842C128.608 285.248 122.689 302.502 122.689 302.502Z" fill="#FFCD9C"/>
<path d="M116.542 255.848C119.616 257.664 124.51 266.859 127.242 264.248C131.34 260.389 132.592 255.962 129.291 255.962C125.99 255.962 116.542 255.848 116.542 255.848Z" fill="#FFAE85"/>
<path d="M131.34 276.28C131.34 276.167 131.34 276.053 131.34 275.94C130.998 275.713 130.657 275.599 130.315 275.372C124.282 272.421 125.876 275.826 124.396 281.729C122.916 287.632 122.689 292.626 125.648 293.421C127.128 288.653 128.494 283.545 128.38 281.843C128.152 278.664 131.112 277.529 131.34 276.28Z" fill="#FFAE85"/>
<path d="M101.745 283.545C99.013 282.183 99.6959 275.826 104.477 277.756C109.257 279.686 108.916 284.453 107.664 284.794C106.412 285.134 103.452 284.34 101.745 283.545Z" fill="#FFCD9C"/>
<path d="M102.542 282.41C100.834 281.502 101.176 277.416 104.249 278.664C107.322 279.913 107.095 282.978 106.298 283.205C105.501 283.432 103.566 282.978 102.542 282.41Z" fill="#EF8F6F"/>
<path d="M104.249 282.41C103.111 281.842 103.339 279.118 105.387 279.913C107.436 280.707 107.322 282.75 106.753 282.977C106.298 283.091 104.932 282.75 104.249 282.41Z" fill="#FFCD9C"/>
<path d="M107.323 274.01C108.461 279.118 101.29 291.264 105.957 295.804C110.623 300.345 123.941 303.41 123.941 303.41C123.941 303.41 126.104 293.761 126.787 290.129C122.461 290.923 116.542 288.653 113.469 285.134C110.282 281.615 110.168 274.691 110.737 272.307C113.469 261.07 108.916 261.183 108.916 261.183C108.916 261.183 105.729 266.745 107.323 274.01Z" fill="#E0B996"/>
<path d="M107.209 295.124C102.542 290.583 109.713 278.437 108.575 273.329C107.436 267.881 108.802 263.454 109.599 261.524C109.144 261.297 108.688 261.297 108.688 261.297C108.688 261.297 105.615 266.745 107.209 274.01C108.347 279.118 101.176 291.264 105.843 295.805C109.713 299.664 119.843 302.502 122.917 303.296C118.933 301.821 110.623 298.529 107.209 295.124Z" fill="#D6A67F"/>
<path d="M106.298 282.07L111.192 281.048C107.664 261.297 125.307 253.124 112.217 256.075C104.477 257.892 104.591 277.075 104.591 277.075C104.591 277.075 107.209 277.756 106.298 282.07Z" fill="#8C3922"/>
<path d="M126.445 275.259C125.762 274.578 125.534 272.421 126.673 272.761C127.811 272.988 132.592 274.918 132.136 275.826C131.681 276.734 131.567 277.529 130.77 277.415C129.974 277.188 127.583 276.394 126.445 275.259Z" fill="#AA4F30"/>
<path d="M122.575 273.443C123.599 273.443 124.852 272.194 123.713 271.513C122.575 270.832 117.567 268.902 117.225 269.81C116.884 270.718 116.428 271.399 117.225 271.967C117.908 272.421 120.868 273.556 122.575 273.443Z" fill="#AA4F30"/>
<path d="M116.428 290.356L123.372 292.399C123.372 292.399 121.209 297.734 118.363 296.94C114.607 295.805 116.428 290.356 116.428 290.356Z" fill="#4C241E"/>
<path d="M121.551 294.556C122.234 293.648 122.689 292.626 122.689 292.626L117.112 290.923C117.112 290.923 116.77 291.945 116.77 293.194L121.551 294.556Z" fill="#FFEADC"/>
<path d="M127.811 280.707C128.266 279.572 128.039 278.324 127.47 278.097C126.787 277.87 125.99 278.664 125.535 279.799C125.079 280.935 125.307 282.183 125.876 282.41C126.559 282.751 127.356 281.956 127.811 280.707Z" fill="#543C32"/>
<path d="M118.581 280.062C119.292 280.314 120.244 279.465 120.708 278.166C121.172 276.867 120.971 275.609 120.261 275.357C119.55 275.104 118.598 275.953 118.134 277.252C117.67 278.552 117.87 279.81 118.581 280.062Z" fill="#543C32"/>
<path d="M121.209 289.902C121.209 289.902 126.331 292.626 126.787 292.172C127.242 291.718 124.965 276.053 124.965 276.053C124.965 276.053 120.754 287.745 121.209 289.902Z" fill="#FFCD9C"/>
<path d="M116.656 255.508C119.73 257.324 126.559 266.291 129.291 263.681C133.389 259.821 136.348 253.918 132.933 253.918C129.632 254.032 116.656 255.508 116.656 255.508Z" fill="#AA4F30"/>
<path d="M221.603 431.111C216.254 431.111 213.863 430.77 210.221 430.77C209.083 429.635 199.407 418.171 200.659 412.608C202.025 407.046 212.27 408.409 213.522 409.771C214.888 411.133 216.595 417.717 217.733 419.079C218.986 420.327 233.1 430.43 221.603 431.111Z" fill="#AF6345"/>
<path d="M221.945 429.976C219.896 429.976 218.417 429.068 216.937 429.068C214.547 429.068 212.612 429.976 210.335 429.976C209.197 428.841 200.091 417.149 201.229 411.473C201.001 411.814 200.887 412.154 200.774 412.609C199.408 418.171 208.741 430.203 209.88 431.338C213.522 431.338 216.14 431.338 221.49 431.338C224.791 431.111 226.043 430.089 225.929 428.727C225.246 429.408 223.994 429.862 221.945 429.976Z" fill="#844129"/>
<path d="M204.985 414.652C205.554 412.155 212.953 413.63 212.953 409.09C209.424 408.636 201.684 408.863 200.774 412.609C199.408 418.171 208.741 430.203 209.88 431.338C211.246 431.338 212.384 431.338 213.636 431.338C212.498 430.203 203.619 420.214 204.985 414.652Z" fill="#844129"/>
<path d="M207.945 431.111C203.847 430.884 201.343 423.96 206.465 423.279C209.88 422.825 217.165 428.727 216.596 431.224C212.953 431.338 213.522 431.111 207.945 431.111Z" fill="#AF6345"/>
<path d="M208.058 430.771C204.757 429.749 203.505 425.549 206.009 423.506C201.229 423.96 203.619 431.225 207.489 431.338C212.953 431.338 213.75 431.338 217.506 431.338C217.165 431.111 217.051 429.181 216.14 429.181C215.912 430.998 209.311 431.225 208.058 430.771Z" fill="#844129"/>
<path d="M218.416 429.749C215.343 432.246 235.149 431.679 237.426 426.798C239.588 421.917 227.75 422.144 218.416 429.749Z" fill="#AF6345"/>
<path d="M236.515 424.187C236.97 424.754 236.97 425.435 236.629 426.344C235.149 429.749 222.628 430.657 218.644 429.522C217.734 429.295 217.506 430.089 217.734 430.543C218.644 432.36 235.718 431.565 237.767 427.025C238.336 425.662 237.539 424.641 236.515 424.187Z" fill="#844129"/>
<path d="M203.392 412.041C200.091 411.7 191.668 399.555 196.676 393.539C201.798 387.409 210.563 391.041 212.384 394.674C214.205 398.079 218.758 413.403 203.392 412.041Z" fill="#AF6345"/>
<path d="M211.359 399.214C211.018 398.306 210.221 397.739 209.538 397.966C208.855 398.193 208.628 399.214 208.969 400.122C209.311 401.03 210.107 401.598 210.79 401.371C211.473 401.03 211.701 400.122 211.359 399.214Z" fill="#D1795A"/>
<path d="M204.757 410.338C201.57 410.111 193.944 399.101 197.359 392.857C197.131 393.084 196.903 393.311 196.676 393.539C191.554 399.668 199.635 412.382 203.05 412.722C208.627 413.176 211.928 410.906 213.408 408.409C211.701 409.771 208.969 410.679 204.757 410.338Z" fill="#844129"/>
<path d="M211.132 403.982C211.018 402.96 210.221 402.847 208.855 402.96C207.489 403.074 206.124 403.982 206.237 404.89C206.351 405.911 207.603 406.592 208.969 406.365C210.221 406.365 211.245 405.003 211.132 403.982Z" fill="#844129"/>
<path d="M211.018 403.414C210.79 402.62 209.424 402.279 208.286 402.506C207.148 402.733 205.896 403.868 206.123 404.776C206.237 405.571 208.514 406.479 209.424 404.89C210.221 405.571 211.245 404.209 211.018 403.414Z" fill="#D1795A"/>
<path d="M209.766 402.619C209.652 402.279 208.969 402.052 208.286 402.165C207.603 402.279 207.148 402.733 207.261 403.074C207.375 403.414 208.058 403.641 208.741 403.414C209.424 403.301 209.879 402.96 209.766 402.619Z" fill="#603225"/>
<path d="M210.449 405.344C210.335 405.003 209.766 405.23 209.197 405.344C208.627 405.571 207.717 406.252 207.831 406.479C207.944 406.82 208.969 407.841 209.538 407.728C210.221 407.501 210.562 405.684 210.449 405.344Z" fill="#844129"/>
<path d="M209.744 406.574C210.278 406.388 210.627 405.998 210.524 405.702C210.42 405.406 209.903 405.316 209.369 405.502C208.835 405.688 208.486 406.079 208.589 406.375C208.693 406.671 209.21 406.76 209.744 406.574Z" fill="#D1795A"/>
<path d="M203.391 402.393C203.05 401.484 202.253 400.917 201.57 401.144C200.887 401.371 200.66 402.393 201.001 403.301C201.343 404.209 202.139 404.776 202.822 404.549C203.505 404.322 203.733 403.301 203.391 402.393Z" fill="#D1795A"/>
<path d="M202.936 402.166C202.822 401.712 202.367 401.485 202.139 401.598C201.798 401.712 201.684 402.166 201.912 402.62C202.139 403.074 202.481 403.301 202.708 403.187C203.05 403.074 203.164 402.62 202.936 402.166Z" fill="#603225"/>
<path d="M210.904 398.987C210.79 398.533 210.335 398.306 210.107 398.42C209.766 398.533 209.652 398.987 209.88 399.441C210.107 399.895 210.449 400.122 210.676 400.009C210.904 399.782 211.018 399.328 210.904 398.987Z" fill="#603225"/>
<path d="M201.912 411.587C201.457 409.884 192.464 430.657 196.904 431.338C202.936 432.133 203.505 417.376 201.912 411.587Z" fill="#844129"/>
<path d="M195.879 402.279C193.83 401.938 189.732 400.69 190.415 396.149C191.326 390.133 197.245 393.084 197.245 393.084C195.651 395.695 195.537 398.42 195.879 402.279Z" fill="#844129"/>
<path d="M195.082 399.328C193.944 399.214 191.668 398.533 191.895 395.922C192.237 392.517 195.993 394.22 195.993 394.22C195.31 395.695 194.968 397.171 195.082 399.328Z" fill="#603225"/>
<path d="M114.607 370.836C123.03 370.723 137.828 372.993 149.552 374.809C149.324 374.695 148.983 374.582 148.755 374.582C142.039 373.22 122.917 368.112 114.038 368.339C108.688 368.452 88.5413 370.268 78.297 373.901C92.2976 371.858 109.03 370.95 114.607 370.836Z" fill="#492E26"/>
<path d="M151.601 358.804C154.446 357.782 160.707 358.804 155.471 350.744C150.235 342.685 156.268 345.863 153.194 341.663C150.121 337.463 149.893 314.193 139.307 312.037C128.722 309.766 131.226 351.085 133.388 353.128C135.551 355.285 132.592 358.804 136.689 359.712C140.787 360.62 147.275 360.393 151.601 358.804Z" fill="#D6624C"/>
<path d="M155.926 350.631C150.69 342.571 156.951 345.863 153.877 341.663C152.853 340.301 151.487 337.123 150.69 333.15C151.146 337.123 151.487 340.415 152.284 341.55C154.56 345.296 149.666 342.458 153.536 349.609C150.918 348.701 145.454 343.593 141.926 346.998C127.242 361.982 131.226 322.366 134.186 319.983C128.267 326.112 130.999 351.766 132.934 353.582C135.096 355.739 132.592 359.712 136.69 360.506C140.788 361.414 148.186 360.62 152.512 359.031C155.243 358.236 161.162 358.69 155.926 350.631Z" fill="#BC4333"/>
<path d="M109.713 332.356C104.932 327.134 95.9399 327.815 93.5496 328.837L96.5091 338.031L110.51 343.934L122.917 340.869L125.535 327.248C119.388 325.658 111.648 330.312 109.713 332.356Z" fill="#FFE0C2"/>
<path d="M91.9562 328.723L92.7529 327.702L109.941 333.491L126.445 326.453L127.242 327.247L110.965 344.047L91.9562 328.723Z" fill="#FFAA4D"/>
<path d="M93.8912 346.998L91.9562 328.496L110.054 334.739L127.356 327.247L125.421 345.75L111.079 351.198L93.8912 346.998Z" fill="#F48A42"/>
<path d="M111.648 341.209C112.672 337.577 114.494 334.399 116.542 331.901L109.941 334.739L91.8423 328.496L93.7773 346.998L110.624 351.085C110.396 348.02 110.624 344.615 111.648 341.209Z" fill="#EA7439"/>
<path d="M153.877 352.22C146.934 344.388 131.681 346.885 119.16 340.415L117.567 342.004C128.039 351.88 137.258 363.685 146.934 361.755C155.471 360.166 154.788 353.242 153.877 352.22Z" fill="#FFC397"/>
<path d="M153.877 352.22C153.422 351.766 152.966 351.312 152.511 350.858C153.08 352.901 153.763 353.923 146.478 355.285C137.372 357.101 128.608 346.772 118.363 341.096L117.681 342.004C128.153 351.88 137.372 363.685 147.048 361.755C155.471 360.166 154.788 353.242 153.877 352.22Z" fill="#FFAE85"/>
<path d="M68.5078 359.712C65.5483 359.031 59.7432 361.188 65.093 351.426C70.4428 341.664 64.0686 345.636 66.3451 341.664C69.4184 336.555 69.4184 310.561 80.3457 306.588C91.2729 302.615 88.9964 348.928 86.8337 351.653C84.5572 354.263 84.2157 358.577 79.8903 360.053C75.6788 361.642 72.947 360.847 68.5078 359.712Z" fill="#D6624C"/>
<path d="M63.0446 357.442C64.069 353.015 65.6625 343.48 86.1511 345.409C76.1345 360.052 69.7603 361.528 63.0446 357.442Z" fill="#BC4333"/>
<path d="M87.5168 316.804C88.5412 327.815 87.1753 341.663 85.0126 347.112C83.6467 350.631 82.7361 354.831 72.0365 357.328C69.0771 358.009 62.9305 359.939 66.9144 349.609C70.7845 339.166 66.0037 345.069 68.2802 339.507C68.7355 338.485 68.6218 337.69 68.3941 334.285C67.7112 337.69 67.142 340.415 66.3453 341.663C63.272 346.771 69.4186 342.344 64.0687 352.107C58.7189 361.869 65.0932 359.825 68.0526 360.506C72.4918 361.642 75.5651 361.642 79.8905 360.052C84.102 358.463 85.3541 353.582 87.5168 350.858C88.9965 349.269 89.6795 329.631 87.5168 316.804Z" fill="#BC4333"/>
<path d="M70.1013 362.096C80.6871 363.685 89.2241 352.901 102.769 341.777L100.948 340.301C86.8337 347.453 74.882 343.139 68.7354 350.971C62.7026 358.69 69.0769 361.982 70.1013 362.096Z" fill="#FFC397"/>
<path d="M72.7196 355.739C71.809 355.625 67.3698 355.398 69.9878 349.496C69.5325 349.836 69.191 350.29 68.8495 350.858C62.8167 358.69 68.8495 362.89 69.874 363.004C80.4598 364.593 89.5658 353.242 102.883 341.777L101.973 340.982C89.5659 348.134 82.1672 357.101 72.7196 355.739Z" fill="#FFAE85"/>
<path d="M92.9804 363.231C97.7611 358.804 106.753 358.69 107.095 359.485C107.436 360.393 98.2164 361.188 93.891 367.317C91.956 370.155 88.1997 367.771 92.9804 363.231Z" fill="#BC4333"/>
<path d="M127.925 360.847C123.144 358.35 115.518 359.825 115.404 360.393C115.176 361.074 123.258 360.166 127.811 364.025C129.974 365.842 132.706 363.344 127.925 360.847Z" fill="#BC4333"/>
<path d="M106.754 432.587H95.9399C95.9399 432.587 100.493 429.068 102.656 428.841C104.818 428.5 106.754 432.587 106.754 432.587Z" fill="#EDD19F"/>
<path d="M123.372 432.587H133.844C133.844 432.587 129.405 429.068 127.356 428.841C125.193 428.5 123.372 432.587 123.372 432.587Z" fill="#EDD19F"/>
<path d="M153.991 343.253C152.284 343.253 150.007 343.366 149.552 344.728C149.097 346.091 153.081 346.204 153.081 346.204L153.991 343.253Z" fill="#BC4333"/>
<path d="M109.257 267.54C110.623 263.794 115.973 256.075 114.835 256.302C110.168 256.87 109.257 267.54 109.257 267.54Z" fill="#AA4F30"/>
<path d="M209.31 426.911C209.083 425.435 208.514 424.187 207.375 424.414C206.237 424.641 205.554 426.003 205.782 427.479C206.01 428.954 207.148 429.976 208.286 429.862C209.31 429.522 209.538 428.387 209.31 426.911Z" fill="#E2886D"/>
<path d="M205.554 425.322C205.782 424.754 206.123 424.414 205.554 424.187C204.985 423.96 204.302 424.3 204.188 424.754C203.96 425.322 204.302 425.89 204.871 426.117C205.44 426.344 205.326 425.89 205.554 425.322Z" fill="#E2886D"/>
<path d="M205.44 427.819C205.326 427.252 205.44 426.798 204.757 426.911C204.188 427.025 203.733 427.592 203.96 428.16C204.074 428.727 204.757 429.068 205.326 428.841C205.895 428.727 205.554 428.387 205.44 427.819Z" fill="#E2886D"/>
<path d="M206.692 429.635C206.351 429.408 206.237 428.954 205.896 429.408C205.554 429.749 205.554 430.317 205.896 430.544C206.237 430.771 206.692 430.771 207.034 430.43C207.375 430.089 207.034 429.976 206.692 429.635Z" fill="#E2886D"/>
<path d="M233.669 427.819C234.58 428.387 235.604 428.727 236.06 428.046C236.515 427.365 236.174 426.23 235.149 425.662C234.238 425.095 233.1 425.095 232.645 425.889C232.19 426.571 232.759 427.252 233.669 427.819Z" fill="#E2886D"/>
<path d="M236.401 426.571C236.629 426.911 236.629 427.252 236.97 427.138C237.425 426.911 237.539 426.457 237.312 426.117C237.084 425.776 236.629 425.662 236.173 425.889C235.832 426.003 236.173 426.23 236.401 426.571Z" fill="#E2886D"/>
<path d="M235.035 425.322C235.377 425.549 235.604 425.776 235.832 425.435C236.06 424.981 235.946 424.527 235.49 424.3C235.149 424.073 234.694 424.3 234.466 424.641C234.238 425.095 234.694 425.095 235.035 425.322Z" fill="#E2886D"/>
<path d="M233.328 425.095C233.669 425.095 233.897 425.095 233.897 424.754C233.897 424.414 233.555 424.187 233.214 424.187C232.872 424.187 232.645 424.527 232.759 424.868C232.872 425.322 233.1 425.095 233.328 425.095Z" fill="#E2886D"/>
<path opacity="0.4" d="M149.893 329.518C149.438 327.474 148.869 325.318 148.186 323.275C139.99 324.637 133.73 332.583 131.453 336.669C131.453 338.258 131.567 339.734 131.567 341.209C138.852 333.718 145.454 330.653 149.893 329.518Z" fill="#FFF7C6"/>
<path opacity="0.4" d="M87.8583 336.555C86.1509 333.037 79.4352 323.842 70.6706 322.48C70.1015 324.637 69.76 326.793 69.3047 328.837C73.7439 329.972 80.3458 332.923 87.7445 340.415L87.8583 336.555Z" fill="#FFF7C6"/>
<path d="M96.0539 343.48C96.7368 343.934 100.265 342.117 102.883 343.48C103.339 343.707 104.022 344.161 104.705 344.501C105.957 345.182 107.436 345.296 107.664 344.728C107.778 344.274 106.64 344.161 105.843 343.707C105.046 343.253 104.818 343.139 104.932 342.912C105.046 342.798 106.071 343.139 107.209 343.366C108.689 343.82 109.827 343.82 109.941 343.139C110.054 342.571 109.03 342.571 107.664 342.117C106.526 341.663 105.957 341.55 106.071 340.982C106.184 340.755 106.981 340.869 108.233 340.982C109.713 340.982 110.737 340.642 110.737 340.188C110.737 339.507 110.054 339.961 108.347 339.62C106.184 339.28 104.022 339.166 103.111 338.144C102.314 337.123 104.249 334.966 103.225 334.626C102.428 334.399 101.631 336.782 100.265 339.507C99.0134 342.004 95.3709 343.025 96.0539 343.48Z" fill="#FFC397"/>
<path d="M123.144 342.912C122.461 343.366 119.047 341.436 116.315 342.798C115.859 343.025 115.177 343.479 114.494 343.82C113.241 344.501 111.762 344.615 111.534 344.047C111.42 343.593 112.559 343.479 113.355 343.025C114.152 342.571 114.38 342.458 114.266 342.344C114.152 342.231 113.128 342.458 111.989 342.798C110.51 343.139 109.371 343.139 109.258 342.571C109.144 342.004 110.168 342.004 111.534 341.55C112.672 341.096 113.241 340.982 113.128 340.415C113.128 340.188 112.217 340.301 110.965 340.301C109.485 340.301 108.461 339.961 108.461 339.507C108.461 338.825 109.144 339.28 110.851 339.053C113.014 338.712 115.176 338.712 116.087 337.69C116.884 336.669 115.063 334.512 116.087 334.171C116.884 333.944 117.681 336.328 119.047 339.166C120.299 341.323 123.941 342.458 123.144 342.912Z" fill="#FFC397"/>
<path d="M175.331 352.304C175.557 357.45 177.524 366.078 183.499 368.878C189.475 371.678 204.224 373.646 208.611 367.137C213.073 360.629 212.241 354.801 210.653 352.531C209.065 350.336 205.888 357.072 205.51 354.499C205.131 351.925 213.225 339.968 203.846 333.156C191.441 324.15 174.272 329.448 175.331 352.304Z" fill="#A35B3B"/>
<path d="M198.929 331.34L192.954 329.675C193.635 331.643 201.199 339.741 208.157 340.043C208.233 340.043 207.628 332.324 198.929 331.34Z" fill="#8E4A2F"/>
<path d="M205.585 354.499C205.283 352.531 209.972 345.039 207.93 338.606C204.224 339.968 198.854 340.876 192.954 340.876C186.827 340.876 181.306 339.968 177.6 338.454C175.936 342.011 174.045 346.931 174.347 352.682C174.574 357.829 177.6 366.078 183.575 368.878C189.55 371.679 204.3 373.646 208.686 367.138C213.149 360.629 212.317 354.802 210.729 352.531C209.14 350.336 205.964 357.072 205.585 354.499Z" fill="#8E4A2F"/>
<path d="M183.499 368.878C186.979 370.543 193.408 371.83 199.081 371.376C199.913 368.954 196.358 361.764 196.585 358.737C197.341 350.185 201.577 345.341 199.005 340.498C197.114 340.725 195.072 340.8 192.878 340.8C190.912 340.8 188.945 340.725 187.13 340.498C183.121 344.13 177.448 349.731 176.843 356.466C176.465 360.78 177.978 366.305 183.499 368.878Z" fill="#6D331F"/>
<path d="M180.55 367.819C177.902 369.484 165.347 379.776 159.144 383.258L159.447 384.166C159.447 384.166 186.676 369.711 185.239 367.97C183.878 366.229 183.046 366.305 180.55 367.819Z" fill="#FFCD9C"/>
<path d="M186.601 430.786L182.214 400.816L188.038 396.351L187.508 430.786H186.601Z" fill="#FFCD9C"/>
<path d="M184.256 430.786L175.331 403.54L180.474 399.453L185.164 430.786H184.256Z" fill="#FFCD9C"/>
<path d="M199.534 388.555C199.913 388.782 200.291 389.842 201.425 390.75C201.652 390.902 201.955 391.129 202.257 391.356C202.787 391.734 203.165 392.415 203.014 392.567C202.862 392.718 202.56 392.264 202.182 391.961C201.879 391.734 201.728 391.583 201.652 391.658C201.577 391.734 201.955 392.112 202.333 392.567C202.862 393.172 203.089 393.626 202.862 393.853C202.636 394.004 202.409 393.55 201.879 393.096C201.425 392.642 201.274 392.491 201.047 392.642C200.971 392.718 201.198 393.021 201.501 393.626C201.879 394.307 201.879 394.761 201.728 394.837C201.425 394.988 201.501 394.534 200.971 393.853C200.366 392.945 199.837 392.037 199.232 391.81C198.627 391.658 198.097 392.869 197.795 392.491C197.492 392.188 198.324 391.356 199.232 390.22C199.988 389.312 199.156 388.328 199.534 388.555Z" fill="#FFC397"/>
<path d="M160.808 382.728C160.733 383.106 159.749 383.712 159.069 385.074C158.993 385.301 158.842 385.679 158.69 385.982C158.388 386.588 157.858 387.117 157.632 386.966C157.405 386.815 157.858 386.436 158.01 385.982C158.161 385.604 158.237 385.452 158.161 385.377C158.085 385.377 157.783 385.755 157.405 386.285C156.951 386.89 156.497 387.269 156.27 387.042C156.043 386.89 156.497 386.512 156.8 385.906C157.102 385.377 157.253 385.15 157.102 384.998C157.026 384.923 156.724 385.225 156.27 385.679C155.741 386.133 155.211 386.36 155.06 386.133C154.833 385.831 155.287 385.831 155.816 385.225C156.573 384.393 157.329 383.712 157.405 383.03C157.48 382.425 156.119 382.198 156.421 381.744C156.648 381.365 157.632 382.047 158.917 382.652C160.203 383.333 160.96 382.349 160.808 382.728Z" fill="#FFC397"/>
<path d="M184.483 359.721L182.819 367.516L188.038 366.683L189.248 361.159L184.483 359.721Z" fill="#EF8F6F"/>
<path d="M163.456 412.698C171.927 419.055 187.735 418.525 194.164 414.892C194.164 414.892 185.239 390.145 189.096 368.5C189.777 364.489 178.432 363.505 176.011 374.327C173.364 385.982 167.01 406.643 163.456 412.698Z" fill="#5EA6D3"/>
<path d="M183.575 417.087C183.575 417.087 182.819 408.838 182.819 400.967C182.819 400.967 184.18 413.379 185.844 416.936L183.575 417.087Z" fill="#4B91C6"/>
<path d="M173.515 383.939C170.414 395.064 166.103 408.081 163.456 412.698C163.909 413.076 164.439 413.379 164.893 413.682C167.313 409.141 170.868 395.594 173.515 383.939Z" fill="#4B91C6"/>
<path d="M188.265 416.936C190.609 416.482 192.652 415.801 194.164 414.968C194.164 414.968 185.239 390.22 189.097 368.575C189.248 367.667 187.281 369.484 186.449 369.03C179.566 392.642 186.979 412.546 188.265 416.936Z" fill="#4B91C6"/>
<path d="M188.189 371.981C188.491 369.181 189.097 366.683 187.357 366.91C186.6 366.986 185.315 368.575 185.012 371.3C184.71 374.1 185.542 376.976 186.298 376.976C187.054 376.976 187.886 374.706 188.189 371.981Z" fill="#FFCD9C"/>
<path d="M180.776 370.24C182.062 370.392 186.147 366.229 188.113 366.456C188.113 366.456 185.92 364.64 182.289 366.305C181.306 366.683 178.583 370.013 180.776 370.24Z" fill="#FFC397"/>
<path opacity="0.5" d="M185.617 370.77C186.449 367.894 187.13 366.835 188.491 366.835C188.34 366.683 188.189 366.608 188.038 366.456L189.248 361.159L186.298 360.25C186.071 360.25 185.844 360.25 185.617 360.25C185.163 360.25 184.709 360.25 184.256 360.326L183.045 366.002C182.743 366.078 182.516 366.229 182.213 366.305C182.138 366.305 182.062 366.381 181.987 366.456C180.625 367.062 179.264 368.046 178.129 369.484C177.524 369.938 176.768 370.468 176.011 371.073C178.81 372.511 184.558 374.554 185.617 370.77Z" fill="#BC5642"/>
<path d="M186.6 363.353C181.306 362.369 173.591 358.813 175.557 349.428C177.297 341.33 192.046 334.065 197.265 336.562C203.467 339.362 200.896 366.002 186.6 363.353Z" fill="#FFCD9C"/>
<path d="M185.315 362.294C183.121 361.915 180.625 361.007 178.432 359.569C180.777 361.688 183.953 362.824 186.601 363.278C194.996 364.867 199.383 356.315 200.291 348.369C196.131 353.969 196.812 364.489 185.315 362.294Z" fill="#F7A27C"/>
<path d="M192.954 360.856C191.744 362.521 196.887 364.186 199.307 361.537C201.123 359.494 195.677 357.147 192.954 360.856Z" fill="#FFCD9C"/>
<path d="M193.862 360.78C193.105 361.84 196.433 362.975 198.097 361.234C199.307 359.872 195.677 358.358 193.862 360.78Z" fill="#EF8F6F"/>
<path d="M193.105 360.856C192.576 361.613 194.845 362.369 195.98 361.159C196.812 360.25 194.316 359.267 193.105 360.856Z" fill="#FFCD9C"/>
<path d="M184.634 431.391H179.188C179.188 431.391 181.457 429.272 182.97 429.196C184.483 429.121 184.634 431.391 184.634 431.391Z" fill="#FFE7B3"/>
<path d="M189.399 431.391H185.315C185.315 431.391 185.315 429.575 186.827 429.499C188.34 429.348 189.399 431.391 189.399 431.391Z" fill="#FFE7B3"/>
<path d="M164.439 413.001C164.439 412.471 163.985 412.017 163.38 412.017C162.775 411.941 162.321 412.395 162.321 412.849C162.321 413.303 162.775 413.833 163.38 413.833C163.985 413.833 164.439 413.455 164.439 413.001Z" fill="#8ECEEF"/>
<path d="M165.725 413.833C165.725 413.303 165.271 412.849 164.666 412.849C164.061 412.774 163.607 413.228 163.607 413.682C163.607 414.212 164.061 414.666 164.666 414.666C165.271 414.666 165.725 414.287 165.725 413.833Z" fill="#8ECEEF"/>
<path d="M167.464 414.363C167.464 413.833 167.01 413.379 166.405 413.379C165.8 413.303 165.346 413.757 165.346 414.212C165.346 414.741 165.8 415.195 166.405 415.195C166.935 415.271 167.464 414.893 167.464 414.363Z" fill="#8ECEEF"/>
<path d="M169.204 414.741C169.128 414.211 168.523 413.833 167.994 413.909C167.464 413.984 167.086 414.439 167.162 414.893C167.237 415.422 167.842 415.801 168.372 415.725C168.901 415.725 169.28 415.271 169.204 414.741Z" fill="#8ECEEF"/>
<path d="M170.565 415.422C170.49 414.893 169.885 414.514 169.355 414.59C168.826 414.666 168.448 415.044 168.523 415.574C168.599 416.104 169.204 416.482 169.733 416.406C170.263 416.406 170.641 415.952 170.565 415.422Z" fill="#8ECEEF"/>
<path d="M172.381 415.725C172.305 415.195 171.7 414.817 171.17 414.893C170.641 414.968 170.263 415.422 170.338 415.877C170.414 416.406 171.019 416.785 171.549 416.709C172.078 416.709 172.456 416.255 172.381 415.725Z" fill="#8ECEEF"/>
<path d="M174.045 415.877C173.818 415.347 173.213 415.044 172.683 415.195C172.154 415.347 171.927 415.801 172.078 416.331C172.305 416.86 172.91 417.163 173.44 417.012C173.969 416.86 174.196 416.406 174.045 415.877Z" fill="#8ECEEF"/>
<path d="M175.482 416.331C175.255 415.801 174.65 415.498 174.12 415.649C173.591 415.801 173.288 416.255 173.515 416.785C173.742 417.314 174.347 417.617 174.877 417.466C175.482 417.314 175.709 416.785 175.482 416.331Z" fill="#8ECEEF"/>
<path d="M177.297 416.406C177.07 415.877 176.465 415.574 175.936 415.725C175.406 415.876 175.179 416.331 175.33 416.86C175.557 417.39 176.162 417.693 176.692 417.542C177.297 417.39 177.524 416.86 177.297 416.406Z" fill="#8ECEEF"/>
<path d="M178.885 416.633C178.583 416.179 177.978 415.877 177.448 416.104C176.919 416.255 176.768 416.785 177.07 417.314C177.373 417.769 177.978 418.071 178.507 417.844C178.961 417.617 179.188 417.087 178.885 416.633Z" fill="#8ECEEF"/>
<path d="M180.398 416.936C180.095 416.482 179.49 416.179 178.961 416.406C178.432 416.558 178.28 417.087 178.583 417.617C178.885 418.071 179.49 418.374 180.02 418.147C180.474 417.92 180.701 417.39 180.398 416.936Z" fill="#8ECEEF"/>
<path d="M182.213 416.86C181.911 416.406 181.306 416.103 180.776 416.331C180.247 416.482 180.096 417.012 180.398 417.541C180.701 417.996 181.306 418.298 181.835 418.071C182.289 417.844 182.516 417.314 182.213 416.86Z" fill="#8ECEEF"/>
<path d="M184.029 416.709C183.651 416.255 182.97 416.104 182.516 416.331C182.062 416.558 181.987 417.087 182.289 417.541C182.667 417.996 183.348 418.147 183.802 417.92C184.331 417.693 184.407 417.163 184.029 416.709Z" fill="#8ECEEF"/>
<path d="M185.542 416.86C185.163 416.406 184.483 416.255 184.029 416.482C183.575 416.709 183.499 417.239 183.802 417.693C184.18 418.147 184.861 418.298 185.315 418.071C185.844 417.844 185.92 417.315 185.542 416.86Z" fill="#8ECEEF"/>
<path d="M187.281 416.558C186.903 416.104 186.222 415.952 185.768 416.179C185.315 416.406 185.239 416.936 185.542 417.39C185.92 417.844 186.6 417.996 187.054 417.769C187.584 417.542 187.659 417.012 187.281 416.558Z" fill="#8ECEEF"/>
<path d="M188.794 416.179C188.34 415.801 187.659 415.725 187.281 416.028C186.903 416.331 186.903 416.936 187.357 417.315C187.811 417.693 188.491 417.769 188.869 417.466C189.248 417.087 189.248 416.558 188.794 416.179Z" fill="#8ECEEF"/>
<path d="M190.307 416.028C189.853 415.649 189.172 415.574 188.794 415.876C188.416 416.179 188.416 416.785 188.869 417.163C189.323 417.542 190.004 417.617 190.382 417.314C190.76 417.012 190.76 416.482 190.307 416.028Z" fill="#8ECEEF"/>
<path d="M191.592 415.271C191.139 414.893 190.458 414.817 190.08 415.12C189.702 415.422 189.702 416.028 190.155 416.406C190.609 416.785 191.29 416.86 191.668 416.558C192.046 416.179 192.046 415.649 191.592 415.271Z" fill="#8ECEEF"/>
<path d="M194.769 414.136C194.315 413.757 193.635 413.682 193.256 413.985C192.878 414.287 192.878 414.893 193.332 415.271C193.786 415.65 194.467 415.725 194.845 415.422C195.299 415.044 195.223 414.514 194.769 414.136Z" fill="#8ECEEF"/>
<path d="M193.408 414.741C192.954 414.363 192.273 414.287 191.895 414.59C191.517 414.893 191.517 415.498 191.971 415.877C192.425 416.255 193.105 416.331 193.483 416.028C193.862 415.649 193.862 415.12 193.408 414.741Z" fill="#8ECEEF"/>
<path d="M188.34 367.44C188.34 367.44 193.105 376.749 200.745 390.447L199.988 390.977C199.988 390.977 195.072 381.593 186.752 371.376L188.34 367.44Z" fill="#FFCD9C"/>
<path d="M179.491 385.301C179.718 383.939 179.188 382.804 178.281 382.728C177.373 382.652 176.465 383.712 176.238 384.998C176.012 386.361 176.541 387.496 177.449 387.572C178.356 387.723 179.264 386.663 179.491 385.301Z" fill="#BDECFF"/>
<path d="M176.465 386.209C176.39 386.133 174.726 384.923 174.726 383.106C174.726 382.349 175.028 381.668 175.558 380.987C176.012 380.457 176.465 380.23 176.919 380.382C177.6 380.609 178.129 381.593 178.356 383.031L177.978 383.258C177.751 382.047 177.297 381.063 176.768 380.911C176.465 380.836 176.087 380.987 175.785 381.366C175.331 381.895 175.104 382.425 175.104 383.031C175.104 384.544 176.617 385.679 176.617 385.679L176.465 386.209Z" fill="#BDECFF"/>
<path d="M179.264 384.317C179.34 384.393 180.852 385.831 180.701 387.647C180.625 388.404 180.323 389.085 179.718 389.691C179.264 390.145 178.735 390.296 178.356 390.145C177.751 389.842 177.222 388.707 177.146 387.269L177.524 387.117C177.6 388.404 178.054 389.388 178.583 389.615C178.886 389.766 179.264 389.615 179.567 389.237C180.02 388.782 180.323 388.253 180.323 387.723C180.474 386.209 179.037 384.847 178.961 384.847L179.264 384.317Z" fill="#BDECFF"/>
<path d="M177.373 383.56C177.448 383.485 178.583 380.76 179.869 380.457C180.398 380.306 180.852 380.609 181.23 381.29C181.533 381.82 181.608 382.501 181.382 383.182C181.079 384.166 180.247 385.225 179.264 385.831L179.188 385.301C180.096 384.771 180.852 383.939 181.079 383.106C181.23 382.576 181.155 382.122 180.928 381.744C180.625 381.214 180.323 380.987 179.869 381.063C178.81 381.29 177.675 383.787 177.675 383.863L177.373 383.56Z" fill="#BDECFF"/>
<path d="M178.129 387.269C178.054 387.344 176.768 389.918 175.482 390.069C174.953 390.145 174.575 389.766 174.272 389.009C174.045 388.404 173.969 387.723 174.196 387.117C174.499 386.134 175.407 385.225 176.465 384.771L176.541 385.301C175.633 385.679 174.877 386.512 174.575 387.269C174.423 387.723 174.423 388.253 174.65 388.707C174.877 389.312 175.18 389.615 175.633 389.539C176.692 389.388 177.903 387.042 177.978 387.042L178.129 387.269Z" fill="#BDECFF"/>
<path d="M178.356 383.409C178.432 383.333 180.474 382.35 181.306 383.409C181.684 383.863 181.76 384.544 181.684 385.528C181.609 386.285 181.306 386.89 180.852 387.269C180.172 387.874 179.188 387.799 178.281 387.269L178.508 386.739C179.264 387.269 180.172 387.269 180.701 386.815C181.004 386.512 181.231 386.134 181.306 385.528C181.382 384.771 181.306 384.242 181.079 383.863C180.323 382.955 178.432 383.939 178.432 383.939L178.356 383.409Z" fill="#BDECFF"/>
<path d="M176.995 387.345C176.919 387.345 174.877 388.101 174.121 386.966C173.818 386.512 173.742 385.755 173.894 384.771C174.045 384.014 174.348 383.409 174.801 383.106C175.482 382.652 176.465 382.728 177.297 383.485L177.07 383.939C176.314 383.333 175.482 383.182 174.953 383.56C174.65 383.787 174.423 384.242 174.272 384.771C174.121 385.528 174.121 386.058 174.423 386.436C175.104 387.42 176.995 386.739 176.995 386.739V387.345Z" fill="#BDECFF"/>
<path d="M178.961 385.755C178.961 385.906 179.34 388.631 178.432 390.145C178.054 390.75 177.524 391.053 176.919 391.053C176.39 391.053 176.012 390.75 175.86 390.145C175.558 389.312 175.785 387.874 176.39 386.436L176.692 386.663C176.163 387.874 176.012 389.161 176.239 389.842C176.39 390.296 176.617 390.447 177.071 390.447C177.6 390.447 177.978 390.22 178.281 389.766C179.037 388.555 178.735 385.982 178.735 385.906L178.961 385.755Z" fill="#BDECFF"/>
<path d="M176.465 384.544C176.465 384.393 176.314 381.593 177.297 380.23C177.676 379.625 178.205 379.398 178.886 379.549C179.415 379.625 179.718 380.003 179.869 380.609C180.096 381.517 179.793 382.955 179.113 384.317L178.81 384.09C179.415 382.879 179.642 381.668 179.491 380.912C179.415 380.457 179.113 380.23 178.734 380.155C178.205 380.079 177.827 380.23 177.524 380.685C176.692 381.82 176.844 384.468 176.844 384.468L176.465 384.544Z" fill="#BDECFF"/>
<path d="M192.878 359.948C194.769 360.553 198.173 357.148 201.35 358.661C201.35 358.661 203.165 344.055 201.198 340.271C195.677 339.741 199.534 355.483 192.878 359.948Z" fill="#8E4A2F"/>
<path d="M188.643 349.655C189.399 347.99 191.139 347.158 192.576 347.763C194.013 348.444 194.542 350.336 193.786 352.001C193.03 353.742 191.819 353.439 190.382 352.758C188.945 352.153 187.886 351.396 188.643 349.655Z" fill="#AF6345"/>
<path d="M180.398 345.871C181.155 344.206 182.894 343.298 184.256 343.979C185.617 344.584 186.071 346.476 185.315 348.141C184.558 349.806 183.348 349.579 181.987 348.974C180.625 348.293 179.642 347.536 180.398 345.871Z" fill="#AF6345"/>
<path d="M185.542 345.795L186.374 345.417L186.222 344.584L185.315 345.19L185.542 345.795Z" fill="#AF6345"/>
<path d="M184.71 344.736L185.239 344.055L184.71 343.373L184.18 344.357L184.71 344.736Z" fill="#AF6345"/>
<path d="M183.197 343.979L183.348 343.071L182.516 342.844L182.592 343.979H183.197Z" fill="#AF6345"/>
<path d="M193.711 349.277L194.543 348.898L194.316 348.066L193.484 348.747L193.711 349.277Z" fill="#AF6345"/>
<path d="M192.803 348.368L193.332 347.612L192.651 347.006L192.273 348.066L192.803 348.368Z" fill="#AF6345"/>
<path d="M191.29 347.763V346.855L190.458 346.703L190.685 347.839L191.29 347.763Z" fill="#AF6345"/>
<path d="M188.567 349.958C189.248 348.52 190.912 347.839 192.273 348.444C193.635 349.049 194.24 350.79 193.635 352.304C192.954 353.817 191.744 353.439 190.382 352.834C188.945 352.152 187.886 351.396 188.567 349.958Z" fill="#FFF9E9"/>
<path d="M180.171 346.098C180.852 344.66 182.516 343.979 183.878 344.584C185.239 345.19 185.844 346.93 185.164 348.444C184.483 349.958 183.273 349.579 181.911 348.974C180.55 348.293 179.491 347.536 180.171 346.098Z" fill="#FFF9E9"/>
<path d="M187.357 357.526C187.508 357.299 187.584 357.072 187.508 356.769C187.433 356.542 187.281 356.315 186.979 356.239L182.138 354.726C181.836 354.65 181.457 354.726 181.23 354.953C181.004 355.18 180.852 355.558 180.928 355.861C181.155 356.845 181.76 358.056 183.575 358.585C185.542 359.191 186.752 358.283 187.357 357.526Z" fill="#542C23"/>
<path d="M181.382 355.937C181.306 355.71 181.382 355.483 181.608 355.331C181.835 355.18 182.062 355.104 182.365 355.18L186.525 356.466C186.752 356.542 186.903 356.693 186.979 356.845C187.054 356.996 186.979 357.223 186.903 357.375C186.752 357.602 186.449 357.753 186.147 357.904L181.684 356.542C181.533 356.391 181.457 356.164 181.382 355.937Z" fill="#FFF5E9"/>
<path d="M189.248 349.428C189.55 348.747 190.307 348.444 190.912 348.747C191.517 349.05 191.819 349.806 191.517 350.488C191.214 351.169 190.458 351.472 189.853 351.169C189.172 350.866 188.945 350.034 189.248 349.428Z" fill="#5795AA"/>
<path d="M180.928 345.568C181.23 344.887 181.987 344.584 182.592 344.887C183.197 345.19 183.424 345.947 183.121 346.628C182.819 347.309 182.062 347.612 181.457 347.309C180.928 347.006 180.625 346.174 180.928 345.568Z" fill="#5795AA"/>
<path d="M181.609 345.871C181.76 345.568 182.062 345.417 182.289 345.568C182.592 345.72 182.668 346.022 182.516 346.325C182.365 346.628 182.062 346.779 181.76 346.628C181.533 346.476 181.457 346.098 181.609 345.871Z" fill="#7DC5D8"/>
<path d="M189.853 349.731C190.004 349.428 190.307 349.277 190.534 349.428C190.76 349.579 190.912 349.882 190.76 350.185C190.609 350.488 190.307 350.639 190.08 350.488C189.853 350.336 189.777 349.958 189.853 349.731Z" fill="#7DC5D8"/>
<path d="M182.819 341.254C184.407 340.573 185.996 341.179 186.298 341.481L186.827 340.876C186.298 340.346 184.407 339.741 182.667 340.498L182.819 341.254Z" fill="#AF6345"/>
<path d="M193.484 345.341C195.223 345.871 196.282 347.687 196.358 348.217L197.114 348.066C196.963 347.233 195.601 345.19 193.635 344.584L193.484 345.341Z" fill="#AF6345"/>
<path d="M186.601 352.304C186.449 352.834 185.844 353.137 185.163 352.985C184.71 352.909 184.407 352.531 184.256 352.228C184.104 352.758 184.483 353.364 185.163 353.515C185.844 353.666 186.449 353.364 186.601 352.834C186.676 352.607 186.676 352.455 186.601 352.304Z" fill="#EF8F6F"/>
<g clip-path="url(#clip0_4_10)">
<path d="M76.6274 304.344C80.1002 303.75 90.2643 293.487 89.502 289.839C88.7397 286.192 86.5374 285.938 86.0292 286.616C85.521 287.295 76.6274 304.344 76.6274 304.344Z" fill="#FFC397"/>
<path d="M89.4173 289.5C88.5703 286.192 86.5375 286.023 86.0293 286.616C85.5211 287.295 76.6274 304.344 76.6274 304.344C76.7968 304.344 76.9662 304.259 77.0509 304.174C79.3379 301.46 87.9774 294.589 89.4173 289.5Z" fill="#F7A27C"/>
<path d="M57.3155 257.014C55.6215 260.915 48.8454 262.357 45.0338 256.081C45.0338 256.081 39.9517 257.862 37.1566 247.768C34.3614 237.674 38.2577 229.447 48.4219 226.817C48.4219 226.817 52.6569 214.094 65.1927 217.656C65.1927 217.656 66.4633 215.451 68.3267 216.13C70.1901 216.893 73.2393 218.674 73.9169 225.375C73.9169 225.375 79.0837 224.018 81.5401 229.616C84.0811 235.214 82.8106 241.661 77.8979 247.344C72.9852 253.027 65.0233 261.764 57.3155 257.014Z" fill="#8E542D"/>
<path d="M70.7831 238.353C60.026 238.353 50.4547 233.094 50.4547 223.933C50.4547 223.594 50.4548 223.255 50.5395 222.915C49.0996 224.951 48.5066 226.817 48.5066 226.817C38.3425 229.447 34.4462 237.674 37.2413 247.768C40.0365 257.862 45.1186 256.08 45.1186 256.08C48.9301 262.357 55.6215 260.915 57.4003 257.013C65.1928 261.763 73.07 253.027 78.0674 247.429C81.1167 243.866 82.8107 240.049 82.9801 236.317C79.4226 238.947 75.6958 238.353 70.7831 238.353Z" fill="#774726"/>
<path d="M50.6241 265.411L53.8428 243.951L60.6189 252.009L58.9249 266.683L50.6241 265.411Z" fill="#EF8F6F"/>
<path d="M57.2309 264.987C60.2801 264.223 81.3708 282.206 81.3708 282.206L71.5454 290.264C71.5454 290.264 52.3182 266.174 57.2309 264.987Z" fill="#F4B84D"/>
<path d="M56.8073 266.938C59.433 266.259 75.5263 279.576 79.8461 283.223L81.5401 281.866C81.5401 281.866 60.4494 263.884 57.4002 264.648C56.6379 264.902 56.4685 265.75 56.8073 266.938C56.8073 267.023 56.8073 266.938 56.8073 266.938Z" fill="#FFD766"/>
<path d="M70.9524 431.915C70.783 394.594 75.5262 358.29 73.324 338.103C71.9688 325.973 65.1927 313.42 65.1927 313.42C65.1927 313.42 43.6786 314.947 43.0857 317.067C42.0692 320.969 37.8342 329.366 38.5965 339.036C39.5282 351.08 48.1677 374.83 48.1677 379.326C48.1677 383.822 44.5256 392.388 44.5256 397.563C44.5256 401.804 51.4711 431.915 51.4711 431.915H52.9957C51.7252 389.759 53.4192 387.808 54.0121 379.326C54.7745 368.045 54.2663 347.264 55.198 343.701C55.6215 342.089 56.3838 341.411 58.1625 342.768C60.0259 344.125 67.1408 374.915 67.1408 379.326C67.1408 383.737 64.4304 391.031 64.0069 397.902C63.8375 400.277 69.1737 432 69.1737 432H70.9524V431.915Z" fill="#825954"/>
<path d="M70.5289 431.321C70.5289 431.321 65.1928 399.683 65.3622 397.223C65.7857 390.438 68.4961 383.058 68.4961 378.647C68.4961 374.237 61.2965 343.446 59.5178 342.089C58.1626 341.072 57.4003 341.156 56.8921 342.005C57.2309 342.089 57.7391 342.259 58.332 342.683C60.1954 344.04 67.3103 374.83 67.3103 379.241C67.3103 383.652 64.5999 390.946 64.1764 397.817C64.007 400.192 69.3431 431.915 69.3431 431.915H70.9525C70.9525 431.746 70.9525 431.491 70.9525 431.321H70.5289Z" fill="#6B3F3B"/>
<path d="M64.7694 313.335C64.0071 313.589 43.2552 316.813 43.1705 317.067C42.154 320.969 37.919 329.366 38.6813 339.036C39.613 351.08 48.2526 374.83 48.2526 379.326C48.2526 383.821 44.6104 392.388 44.6104 397.563C44.6104 401.804 51.5559 431.915 51.5559 431.915H53.0806C53.0806 431.746 53.0806 431.491 53.0806 431.321H52.7418C52.7418 431.321 46.8126 402.143 46.8126 397.987C46.8126 392.728 50.2007 383.737 50.2007 379.241C50.2007 374.746 44.6951 346.415 43.7634 334.371C48.8455 334.54 54.6899 333.777 59.6873 332.589C59.8567 331.656 60.0261 330.554 60.0261 330.554L60.8731 332.335C66.2093 330.893 70.275 328.942 70.7832 326.991C70.8679 326.822 64.6847 313.42 64.7694 313.335Z" fill="#6B3F3B"/>
<path d="M59.9413 328.348L61.3812 330.299C64.8539 329.112 68.0726 327.415 70.5289 325.125C67.3103 312.656 52.1488 296.286 69.1737 287.38C69.1737 287.38 68.6655 265.58 56.6379 264.223C50.9629 263.545 43.848 266.259 41.6458 276.947C40.2059 283.902 44.3562 290.772 43.5092 303.411C42.9163 311.978 39.8671 318.255 39.1895 330.638C44.8644 332.505 52.4028 332.674 59.1789 330.978C59.433 330.045 59.9413 328.348 59.9413 328.348Z" fill="#FFD766"/>
<path d="M56.1296 265.072C57.1461 270.331 57.8237 273.469 59.7718 278.473L61.2117 278.134C59.5177 273.045 58.6707 269.991 57.6542 264.817L56.1296 265.072Z" fill="#FFEC9C"/>
<path d="M39.1895 330.639C41.8999 331.572 45.1186 332.08 48.4219 332.165C48.3372 331.741 48.1678 331.317 48.0831 330.893C46.3891 323.174 51.9794 312.063 57.9085 310.706C63.8376 309.433 67.9879 318.17 69.682 325.889C69.9361 325.634 70.1902 325.464 70.4443 325.21C67.3104 312.741 52.1488 296.456 68.9196 287.464C67.8185 287.719 66.548 287.889 65.1081 287.973C57.5696 288.567 50.2007 289.076 47.1514 283.054C45.2033 279.322 44.1868 273.214 45.3726 268.464C43.6786 270.415 42.3234 273.214 41.5611 276.947C40.1212 283.902 44.2715 290.772 43.4245 303.411C42.9163 311.978 39.8671 318.255 39.1895 330.639Z" fill="#F4B84D"/>
<path d="M57.1462 307.143C52.8264 303.665 52.7417 290.688 66.548 281.527C80.3544 272.281 90.7726 268.464 95.1771 272.536C101.36 278.304 71.1219 318.594 57.1462 307.143Z" fill="#FFEFBD"/>
<path d="M62.9057 298.152C60.1953 296.031 59.6024 289.924 63.8374 283.563C52.8263 292.554 53.2498 303.92 57.1461 307.143C66.1244 314.522 81.8789 300.442 90.349 287.889C81.2012 296.625 69.5971 303.411 62.9057 298.152Z" fill="#FCDFB1"/>
<path d="M36.733 302.054C36.0554 296.88 38.5965 271.773 46.3043 268.04C52.064 265.326 43.4244 299.848 43.4244 299.848C43.4244 299.848 37.4953 307.397 36.733 302.054Z" fill="#FFD766"/>
<path d="M38.0884 301.969C37.3261 297.813 38.4271 281.103 42.5774 271.942C37.6648 280.17 35.7167 297.643 36.3096 301.884C36.5637 303.92 37.6648 304.089 38.8506 303.58C38.5118 303.326 38.2578 302.817 38.0884 301.969Z" fill="#F4B84D"/>
<path d="M82.2178 280.764C87.3846 283.223 97.803 275.929 91.535 272.96C86.5376 270.67 75.1028 277.371 82.2178 280.764Z" fill="#FFCD9C"/>
<path d="M50.5394 262.781L49.5229 265.072C49.5229 265.072 51.471 267.023 53.6733 267.531C55.8755 268.04 57.5695 263.969 57.5695 263.969L50.5394 262.781Z" fill="#FFEC9C"/>
<path d="M56.7225 263.799C56.7225 263.799 58.6707 268.804 59.6871 267.107C60.1106 266.429 60.0259 265.156 60.0259 265.156L59.5177 263.714L56.7225 263.799Z" fill="#FFEC9C"/>
<path opacity="0.5" d="M65.955 269.482C64.5998 268.465 63.3293 267.616 62.1435 266.853C61.4659 266.259 60.7883 265.75 60.0259 265.326C60.0259 265.241 60.0259 265.156 60.0259 265.156L59.5178 263.715H59.3483L60.7036 252.009L59.2637 250.313C57.739 249.549 56.2144 249.125 54.6051 249.125C54.0969 249.125 53.5887 249.21 53.0805 249.295L51.0476 262.951L50.5394 262.866L49.523 265.156C49.523 265.156 49.6077 265.241 49.7771 265.411C48.2525 266.09 46.8126 267.192 45.542 268.634C45.4573 268.719 45.4573 268.804 45.3726 268.804C45.1185 268.973 44.8645 269.228 44.6104 269.482C47.4055 270.331 51.217 270.84 55.3674 270.84C59.433 270.755 63.1599 270.246 65.955 269.482Z" fill="#BC5642"/>
<path d="M52.657 250.228C52.657 255.063 57.4003 260.831 63.2447 262.697C63.2447 262.697 70.8678 258.456 72.223 252.942C73.3241 248.447 72.4771 248.192 72.6465 247.259C72.9853 245.054 78.5756 242.764 75.4416 235.384C74.2558 232.5 73.07 231.737 64.261 236.148C54.1816 241.322 52.657 248.447 52.657 250.228Z" fill="#FFC397"/>
<path d="M58.5861 240.049C55.6215 244.545 55.3674 249.125 55.3674 250.313C55.3674 254.723 58.2473 260.322 63.2447 262.781C57.4003 260.831 52.7417 255.148 52.7417 250.313C52.657 248.871 53.5887 244.375 58.5861 240.049Z" fill="#F7A27C"/>
<path d="M50.2852 243.442C51.0475 240.813 55.3673 240.982 55.1132 243.781C54.7744 246.835 54.0121 251.415 52.6569 250.398C51.4711 249.465 49.3535 246.581 50.2852 243.442Z" fill="#FFC397"/>
<path d="M51.217 244.545C51.7252 242.764 54.6051 242.933 54.4357 244.799C54.2663 246.835 53.6734 249.889 52.8263 249.21C52.064 248.531 50.6241 246.665 51.217 244.545Z" fill="#EF8F6F"/>
<path d="M52.1487 247.089C52.4028 246.156 54.0121 246.241 53.9274 247.174C53.8427 248.277 53.5039 249.973 53.0804 249.549C52.5722 249.295 51.8099 248.277 52.1487 247.089Z" fill="#FFC397"/>
<path d="M58.9249 236.063C59.179 239.286 58.0779 246.496 53.5887 250.482C53.5887 250.482 56.3838 243.188 53.3346 241.576L58.9249 236.063Z" fill="#774726"/>
<path d="M66.4634 253.96C66.7175 254.045 66.9716 254.299 67.0563 254.554C67.141 254.808 67.0563 255.147 66.8869 255.402C65.9552 256.589 64.2611 258.286 62.9058 257.607C61.72 257.014 61.6353 255.232 61.72 253.96C61.72 253.621 61.9741 253.281 62.2282 253.112C62.4823 252.942 62.9059 252.857 63.2447 252.942L66.4634 253.96Z" fill="#542C23"/>
<path d="M66.2938 253.96C66.5479 254.045 66.7173 254.215 66.802 254.384C66.8867 254.639 66.802 254.808 66.6326 254.978C65.7856 255.826 65.2774 255.741 64.0916 255.402C62.9058 255.063 62.2282 254.808 62.3129 253.875C62.3129 253.621 62.4823 253.366 62.7364 253.197C62.9905 253.027 63.3293 253.027 63.5834 253.112L66.2938 253.96Z" fill="#FFF5EB"/>
<path d="M61.0423 243.866C61.3812 242.594 62.2282 241.746 62.9059 242C63.6682 242.17 64.0071 243.357 63.6682 244.545C63.3294 245.817 62.4824 246.665 61.8047 246.411C61.0424 246.241 60.7035 245.139 61.0423 243.866Z" fill="#7C4C40"/>
<path d="M69.2585 245.648C69.5973 244.46 70.4443 243.612 71.1219 243.782C71.7994 243.951 72.0535 245.139 71.7148 246.411C71.376 247.598 70.529 248.447 69.8514 248.277C69.1739 248.023 68.9198 246.835 69.2585 245.648Z" fill="#7C4C40"/>
<path d="M73.1547 246.411C73.1547 246.411 71.5454 244.29 69.5973 243.951C69.5973 243.951 70.3596 243.272 71.7148 243.951C72.9853 244.63 73.1547 246.411 73.1547 246.411Z" fill="#7C4C40"/>
<path d="M60.3647 242.424C60.3647 242.424 62.9058 241.746 64.7692 242.679C64.7692 242.679 64.5151 241.661 63.0752 241.406C61.5506 241.067 60.3647 242.424 60.3647 242.424Z" fill="#7C4C40"/>
<path d="M60.3647 239.031C61.2118 238.353 63.9222 236.487 67.1409 239.54C64.261 238.014 62.6517 237.844 60.3647 239.031Z" fill="#774726"/>
<path d="M74.6793 244.205C74.6793 243.272 74.2558 240.473 70.0208 240.728C72.9006 241.322 74.0864 242.17 74.6793 244.205Z" fill="#774726"/>
<path d="M65.4468 250.737C65.3621 251.585 66.3786 251.84 67.3103 251.924C67.4797 251.924 67.6491 251.924 67.9032 251.924C67.5644 252.348 66.9715 252.518 66.2938 252.518C65.2774 252.433 64.6845 251.84 64.7692 251.076C64.8539 250.313 65.6162 249.465 65.4468 250.737Z" fill="#EF8F6F"/>
<path d="M37.1566 304.598C37.5801 307.313 54.351 305.871 68.4961 297.304C68.4961 297.304 68.242 296.455 67.8185 296.625C59.179 299.679 36.0555 298.152 37.1566 304.598Z" fill="#FFC397"/>
<path d="M45.1185 303.156C44.695 301.714 45.6267 300.527 47.4054 299.509C41.3069 300.357 36.6483 301.63 37.0718 304.598C37.4954 307.313 54.2662 305.871 68.4114 297.304C68.4114 297.304 68.3267 297.049 68.242 296.88C57.0614 303.411 45.7961 305.362 45.1185 303.156Z" fill="#F7A27C"/>
<path d="M43.848 299C43.848 299 35.5474 300.018 35.1239 301.46C34.3616 303.92 37.3261 307.991 38.3425 307.822C40.0365 307.482 42.6621 302.223 44.5255 300.188C45.1184 299.509 43.848 299 43.848 299Z" fill="#FFEC9C"/>
<path d="M91.1961 273.723C92.8901 274.487 93.3983 275.589 93.0595 276.777C93.7371 275.42 93.483 273.978 91.4502 273.045C87.808 271.348 80.6931 274.487 79.9308 277.71C81.5401 274.741 87.8927 272.112 91.1961 273.723Z" fill="#F7A27C"/>
<path d="M52.0641 340.223C53.2499 340.732 59.6872 341.496 63.1599 338.951C63.1599 338.951 61.1271 341.92 57.5697 342.174C53.9275 342.344 52.0641 340.223 52.0641 340.223Z" fill="#6B3F3B"/>
<path d="M60.5341 323.513C60.4494 323.005 60.1106 322.665 59.7718 322.665C59.433 322.75 59.1789 323.174 59.2636 323.683C59.3483 324.192 59.6871 324.531 60.0259 324.531C60.3647 324.531 60.6188 324.022 60.5341 323.513Z" fill="#FFEC9C"/>
<path d="M59.8565 318.424C59.7718 317.915 59.433 317.576 59.0942 317.661C58.7555 317.746 58.5861 318.17 58.6708 318.679C58.7555 319.188 59.0943 319.527 59.433 319.442C59.7718 319.357 60.0259 318.933 59.8565 318.424Z" fill="#FFEC9C"/>
<path d="M59.5177 312.911C59.433 312.402 59.0942 312.063 58.7553 312.063C58.4165 312.147 58.1624 312.572 58.2471 313.08C58.3318 313.589 58.6707 313.929 59.0095 313.929C59.3483 313.929 59.6024 313.42 59.5177 312.911Z" fill="#FFEC9C"/>
<path d="M66.7173 291.705C67.0561 292.045 71.8841 298.067 81.3706 296.88L82.4717 295.607C74.9333 296.371 71.2912 295.607 66.7173 291.705Z" fill="#FCDFB1"/>
<path d="M72.223 290.094C71.8842 289.839 67.649 285.259 69.089 279.746L70.4443 279.067C69.936 282.714 69.1737 285.514 72.223 290.094Z" fill="#FCDFB1"/>
<path d="M50.8782 224.866C50.5394 227.411 50.7935 234.536 56.892 238.862C56.892 238.862 54.7744 233.857 55.8755 230.38C56.9767 226.902 50.8782 224.866 50.8782 224.866Z" fill="#8E542D"/>
<path d="M68.7502 432H76.2886C76.2886 432 72.3924 429.286 70.1054 429.879C69.2584 430.134 69.0043 430.897 68.7502 432Z" fill="#D89F79"/>
<path d="M50.7935 432H56.9767C56.9767 432 54.3509 429.286 52.064 429.879C51.3864 430.134 51.1323 430.897 50.7935 432Z" fill="#D89F79"/>
<path d="M64.7692 298.322C65.1927 298.661 66.5479 297.558 68.496 298.661C68.8348 298.83 69.3431 299.17 69.8513 299.509C70.8677 300.103 72.1381 300.357 72.3075 299.933C72.4769 299.594 71.4605 299.424 70.7829 299C70.19 298.661 69.936 298.576 70.0207 298.406C70.1054 298.322 70.9524 298.576 71.9688 298.915C73.324 299.339 74.3404 299.424 74.4251 299C74.5945 298.576 73.5781 298.491 72.3923 298.067C71.3759 297.643 70.9524 297.558 71.1218 297.134C71.2065 296.964 71.7994 297.134 72.9852 297.219C74.3404 297.304 75.1874 297.134 75.1874 296.795C75.1874 296.286 74.5098 296.625 72.9852 296.286C71.1218 295.947 69.4278 295.862 68.7502 295.098C68.1573 294.42 69.6818 293.147 68.9195 292.893C68.3266 292.723 67.649 294.165 66.5479 295.947C65.7009 297.389 64.3457 297.897 64.7692 298.322Z" fill="#FFC397"/>
<path d="M79.592 302.817C79.1685 303.156 77.8133 303.92 75.9498 305.022C75.611 305.192 75.1028 305.531 74.5946 305.955C73.6628 306.549 72.3923 306.889 72.2229 306.549C72.0535 306.21 72.9852 306.04 73.7475 305.616C74.3405 305.277 74.5099 305.107 74.4252 305.022C74.3405 304.938 73.5782 305.277 72.5617 305.616C71.2912 306.125 70.2748 306.21 70.1054 305.871C69.936 305.447 70.8677 305.362 72.0535 304.853C72.9852 304.429 73.4087 304.259 73.324 303.92C73.2393 303.75 72.6464 303.92 71.5453 304.089C70.2748 304.259 69.343 304.174 69.343 303.835C69.343 303.326 70.0206 303.58 71.4606 303.241C73.2393 302.817 74.9334 302.647 75.5263 301.884C76.0345 301.205 74.5099 300.103 75.2722 299.848C75.6957 299.679 76.2039 300.272 76.9662 301.29C77.3897 301.884 78.0674 302.563 79.3379 301.799C80.1849 301.121 79.9308 302.478 79.592 302.817Z" fill="#FFC397"/>
<path d="M90.603 278.049C90.9418 277.88 91.0265 277.625 90.8571 277.371C90.6877 277.116 90.2642 277.116 90.0101 277.286C89.6713 277.456 89.5866 277.71 89.756 277.965C89.9254 278.134 90.3489 278.219 90.603 278.049Z" fill="#7C4C40"/>
<path d="M87.3844 274.911C87.7232 274.826 87.8079 274.572 87.6385 274.402C87.4691 274.232 87.1303 274.148 86.7915 274.232C86.4528 274.317 86.3681 274.572 86.5375 274.741C86.7069 274.996 87.0456 275.081 87.3844 274.911Z" fill="#7C4C40"/>
<path d="M87.4691 277.964C87.3844 277.116 86.368 276.438 85.0975 276.438C83.827 276.438 82.8953 277.116 82.98 277.964C83.0647 278.813 84.081 279.491 85.3515 279.491C86.6221 279.576 87.5538 278.813 87.4691 277.964Z" fill="#F7A27C"/>
<path d="M87.6386 277.54C87.5539 276.692 86.5375 276.014 85.267 276.014C83.9965 276.014 83.0648 276.692 83.1495 277.54C83.2342 278.389 84.2506 279.067 85.5211 279.067C86.7069 279.067 87.7233 278.389 87.6386 277.54Z" fill="#80CFE5"/>
<path d="M87.4693 277.116C87.3846 276.522 86.5376 276.014 85.5212 276.014C84.5048 276.014 83.7424 276.522 83.7424 277.116C83.8271 277.71 84.6742 278.219 85.6906 278.219C86.707 278.219 87.4693 277.71 87.4693 277.116Z" fill="#B6F1FF"/>
<path d="M86.368 277.201C86.368 276.692 85.8598 276.268 85.3516 276.268C84.8434 276.268 84.4199 276.692 84.4199 277.201C84.4199 277.71 84.8434 277.625 85.4363 277.625C85.9445 277.625 86.368 277.71 86.368 277.201Z" fill="#80CFE5"/>
</g>
<defs>
<clipPath id="clip0_4_10">
<rect width="61" height="216" fill="white" transform="translate(35 216)"/>
</clipPath>
</defs>
</svg>
