<svg width="203" height="217" viewBox="0 0 203 217" fill="none" xmlns="http://www.w3.org/2000/svg">
<path d="M173.969 192.409C172.147 192.182 188.197 208.3 190.36 204.441C193.433 199.333 180.001 193.09 173.969 192.409Z" fill="#AF6345"/>
<path d="M190.36 203.079C188.538 206.144 178.066 196.495 174.765 192.522C174.424 192.522 174.196 192.409 173.969 192.409C172.147 192.182 188.197 208.3 190.36 204.441C190.815 203.646 190.929 202.852 190.701 202.171C190.701 202.511 190.587 202.738 190.36 203.079Z" fill="#844129"/>
<path d="M93.1529 175.155V216.133H91.5593L89.1691 175.155H93.1529Z" fill="#824631"/>
<path d="M67.2002 175.155V216.133H68.7937L71.1841 175.155H67.2002Z" fill="#824631"/>
<path d="M100.893 173.452H58.6635V180.149H100.893V173.452Z" fill="#AF6345"/>
<path d="M101.007 174.474L103.625 216.133H102.031L97.0227 174.474H101.007Z" fill="#AF6345"/>
<path d="M58.2081 174.474L55.5901 216.133H57.2975L62.3057 174.474H58.2081Z" fill="#AF6345"/>
<path d="M170.782 176.29C171.92 174.474 174.652 171.409 178.636 173.792C183.872 177.084 178.181 181.625 178.181 181.625L170.782 176.29Z" fill="#AF6345"/>
<path d="M172.261 176.517C173.058 175.268 175.107 172.998 177.839 174.701C181.595 176.971 177.497 180.263 177.497 180.263L172.261 176.517Z" fill="#844129"/>
<path d="M56.273 158.128C54.6794 152.112 41.5894 95.8098 45.3457 90.7017C47.2807 87.9774 71.8672 82.7559 76.0787 82.9829C80.2903 83.2099 101.69 88.772 107.95 98.08C110.227 101.485 94.4047 157.787 94.4047 157.787L56.273 158.128Z" fill="#D6624C"/>
<path d="M74.2572 89.9072C79.8346 89.3396 83.5909 87.1829 85.8674 85.1397C81.6559 83.437 77.4443 82.5289 75.8508 82.5289C74.0296 82.4154 67.5416 83.21 62.4194 85.1397C64.3545 87.5234 68.1107 90.5882 74.2572 89.9072Z" fill="#FFB89F"/>
<path d="M107.723 100.464C107.153 99.5558 105.446 100.01 104.649 99.2152C103.966 106.026 97.3644 109.999 95.7708 117.377C92.8114 131.566 95.4294 143.939 89.5104 148.366C86.3233 150.75 81.4288 148.707 76.6481 148.707C70.6154 148.707 64.3549 152.566 60.2572 150.409C54.9074 147.571 56.6148 121.01 54.3383 110.226C52.2894 100.691 46.9396 100.918 47.3949 92.8585C46.2567 93.3126 44.6631 93.6531 44.4355 93.9936C40.6792 99.1017 54.3383 153.02 55.818 158.923L94.8602 158.015C94.7464 158.015 109.999 103.756 107.723 100.464Z" fill="#BC4333"/>
<path d="M96.9091 113.745C96.2262 117.718 94.2911 123.734 84.8435 125.89C84.8435 125.89 95.4294 127.366 99.5271 123.62C103.625 119.874 96.9091 113.745 96.9091 113.745Z" fill="#BC4333"/>
<path d="M54.1104 111.247C55.021 125.323 63.1025 127.48 69.1353 129.977C69.1353 129.977 57.6389 131.566 54.5656 126.231C51.3785 120.896 54.1104 111.247 54.1104 111.247Z" fill="#BC4333"/>
<path d="M47.9637 176.063H108.519C108.519 176.063 121.04 160.058 113.641 158.582C106.925 157.22 87.575 152.679 78.6966 152.906C71.9809 153.02 42.8415 155.177 37.947 160.739C33.0525 166.301 47.9637 176.063 47.9637 176.063Z" fill="#563B31"/>
<path d="M99.8684 166.641C95.4292 165.96 91.6729 160.058 95.7707 155.744C92.4697 153.247 61.7368 155.517 60.94 155.404C61.7368 157.106 71.4119 163.349 60.5985 166.074C52.2892 167.89 44.6628 168.458 38.9716 168.003C42.1587 172.203 47.9638 176.063 47.9638 176.063H108.519C108.519 176.063 110.796 173.112 112.845 169.706C108.974 169.593 104.308 167.322 99.8684 166.641Z" fill="#492E26"/>
<path d="M57.9802 172.884C54.4516 166.641 43.2966 154.268 36.5809 161.42C29.8652 168.571 60.3705 204.327 68.2245 215.338H70.8425C61.3949 199.9 61.6226 179.128 57.9802 172.884Z" fill="#563B31"/>
<path d="M68.9079 215.338H70.8429C61.2815 199.787 61.8506 178.674 58.322 172.43C57.5252 171.068 54.1104 166.074 52.7445 164.485C56.8423 173.225 60.4847 201.376 68.9079 215.338Z" fill="#492E26"/>
<path d="M98.3886 172.317C101.348 166.074 111.023 153.474 118.081 160.739C125.024 168.004 98.6163 204.214 92.0144 215.338H89.3964C97.3642 199.673 95.4291 178.674 98.3886 172.317Z" fill="#563B31"/>
<path d="M100.437 172.998C101.462 170.841 102.486 167.549 103.852 164.144C101.462 166.868 98.6162 170.274 97.5918 172.544C94.6323 178.787 97.2503 199.673 89.2825 215.338H90.9899C98.3886 199.787 97.5918 179.128 100.437 172.998Z" fill="#492E26"/>
<path d="M64.9237 84.9125L69.1352 67.3181L83.022 75.3775L82.5668 85.4801C77.5584 88.999 68.7938 89.226 64.9237 84.9125Z" fill="#EF8F6F"/>
<path d="M93.7217 48.1346C119.446 22.8214 75.1681 26.5673 69.8182 43.7076C66.9726 52.9021 71.4118 68.4533 78.469 70.7235C85.5262 72.9937 86.7783 55.0588 93.7217 48.1346Z" fill="#AA4F30"/>
<path d="M88.372 41.778C79.1522 36.3295 74.5991 42.9132 72.7779 39.3943C70.9567 40.4159 69.3632 41.778 67.9973 43.5942C61.2816 53.0158 70.8429 68.1129 71.6397 72.7669C71.6397 72.7669 88.372 63.5724 93.1527 53.3563C90.5347 52.6752 91.2177 43.3672 88.372 41.778Z" fill="#8C3922"/>
<path opacity="0.5" d="M88.5996 86.0476C87.689 85.7071 86.7783 85.3666 85.8677 85.1396C84.7295 84.6855 83.7051 84.345 82.5668 84.0044L83.0221 75.3775L69.1353 67.3181L65.0376 84.2315C64.127 84.4585 63.2164 84.799 62.4196 85.1396C56.5006 86.5017 50.354 88.0909 47.1669 89.5665C50.8093 92.5178 58.208 94.4476 66.6312 94.4476C78.1276 94.334 87.5751 90.7016 88.5996 86.0476Z" fill="#BC5642"/>
<path d="M87.6888 86.5017C76.4201 85.5936 71.2979 78.6693 71.4118 74.1288C71.5256 70.2694 75.168 59.1452 73.3468 54.9453C71.5256 50.7453 76.3063 41.3238 81.8837 40.1887C87.3473 39.0536 98.2745 46.3183 96.3395 60.2803C96.2257 61.529 93.2663 62.6641 93.3801 65.8425C93.6077 69.2478 87.6888 86.5017 87.6888 86.5017Z" fill="#FFCD9C"/>
<path d="M81.5422 39.8483C84.6155 41.6645 89.51 50.8589 92.2418 48.2482C96.3395 44.3887 97.5916 39.9618 94.2907 39.9618C90.9897 39.9618 81.5422 39.8483 81.5422 39.8483Z" fill="#FFAE85"/>
<path d="M96.3396 60.2804C96.3396 60.1669 96.3396 60.0534 96.3396 59.9399C95.9981 59.7129 95.6566 59.5994 95.3151 59.3723C89.2822 56.421 90.8759 59.8264 89.3961 65.729C87.9163 71.6317 87.6886 76.6262 90.6482 77.4208C92.1279 72.6533 93.4939 67.5452 93.3801 65.8426C93.1524 62.6642 96.1119 61.5291 96.3396 60.2804Z" fill="#FFAE85"/>
<path d="M66.7448 67.545C64.013 66.1829 64.6959 59.8262 69.4766 61.7559C74.2573 63.6856 73.9158 68.4531 72.6637 68.7937C71.4117 69.1342 68.4522 68.3396 66.7448 67.545Z" fill="#FFCD9C"/>
<path d="M67.5417 66.4101C65.8343 65.502 66.1757 61.4155 69.2491 62.6641C72.3224 63.9128 72.0947 66.9776 71.2979 67.2046C70.5012 67.4317 68.5661 66.9776 67.5417 66.4101Z" fill="#EF8F6F"/>
<path d="M69.2491 66.4099C68.1109 65.8424 68.3385 63.1181 70.3874 63.9127C72.4362 64.7072 72.3224 66.7505 71.7533 66.9775C71.298 67.091 69.9321 66.7505 69.2491 66.4099Z" fill="#FFCD9C"/>
<path d="M72.3226 58.0101C73.4608 63.1182 66.2898 75.264 70.9567 79.8045C75.6235 84.345 88.941 87.4098 88.941 87.4098C88.941 87.4098 91.1037 77.7613 91.7866 74.1289C87.4613 74.9235 81.5424 72.6532 78.4691 69.1344C75.282 65.6155 75.1682 58.6912 75.7373 56.3075C78.4691 45.0698 73.9161 45.1833 73.9161 45.1833C73.9161 45.1833 70.729 50.7454 72.3226 58.0101Z" fill="#E0B996"/>
<path d="M72.2087 79.1235C67.5418 74.583 74.7129 62.4372 73.5746 57.3292C72.4364 51.8806 73.8023 47.4536 74.5991 45.5239C74.1438 45.2969 73.6884 45.2969 73.6884 45.2969C73.6884 45.2969 70.6151 50.7455 72.2087 58.0102C73.347 63.1183 66.1759 75.2641 70.8428 79.8046C74.7129 83.664 84.8433 86.5018 87.9166 87.2964C83.9327 85.8207 75.6235 82.5289 72.2087 79.1235Z" fill="#D6A67F"/>
<path d="M71.2979 66.0696L76.1924 65.048C72.6638 45.2969 90.3067 37.124 77.2168 40.0753C69.4767 41.8915 69.5905 61.0751 69.5905 61.0751C69.5905 61.0751 72.2085 61.7562 71.2979 66.0696Z" fill="#8C3922"/>
<path d="M91.445 59.2587C90.762 58.5776 90.5344 56.4209 91.6727 56.7614C92.8109 56.9884 97.5917 58.9182 97.1364 59.8263C96.6811 60.7344 96.5672 61.5289 95.7704 61.4154C94.9736 61.1884 92.5833 60.3938 91.445 59.2587Z" fill="#AA4F30"/>
<path d="M87.575 57.4425C88.5995 57.4425 89.8516 56.1939 88.7133 55.5128C87.575 54.8318 82.5667 52.9021 82.2252 53.8102C81.8837 54.7183 81.4284 55.3993 82.2252 55.9669C82.9082 56.4209 85.8677 57.5561 87.575 57.4425Z" fill="#AA4F30"/>
<path d="M81.4284 74.356L88.3718 76.3992C88.3718 76.3992 86.209 81.7342 83.3634 80.9397C79.6071 79.8045 81.4284 74.356 81.4284 74.356Z" fill="#4C241E"/>
<path d="M86.5509 78.5559C87.2339 77.6478 87.6892 76.6262 87.6892 76.6262L82.1116 74.9235C82.1116 74.9235 81.7701 75.9451 81.7701 77.1937L86.5509 78.5559Z" fill="#FFEADC"/>
<path d="M92.8111 64.7075C93.2664 63.5724 93.0387 62.3237 92.4696 62.0967C91.7867 61.8697 90.99 62.6643 90.5347 63.7994C90.0794 64.9345 90.307 66.1832 90.8761 66.4102C91.5591 66.7507 92.3558 65.9561 92.8111 64.7075Z" fill="#543C32"/>
<path d="M83.581 64.0619C84.2917 64.3142 85.2439 63.4654 85.7077 62.1661C86.1716 60.8667 85.9715 59.6088 85.2608 59.3565C84.5501 59.1042 83.598 59.953 83.1341 61.2523C82.6703 62.5517 82.8704 63.8095 83.581 64.0619Z" fill="#543C32"/>
<path d="M86.2091 73.9018C86.2091 73.9018 91.3314 76.6261 91.7867 76.1721C92.242 75.718 89.9655 60.0533 89.9655 60.0533C89.9655 60.0533 85.7538 71.7451 86.2091 73.9018Z" fill="#FFCD9C"/>
<path d="M81.6562 39.5076C84.7295 41.3238 91.5591 50.2913 94.2909 47.6805C98.3887 43.8211 101.348 37.9185 97.9334 37.9185C94.6324 38.032 81.6562 39.5076 81.6562 39.5076Z" fill="#AA4F30"/>
<path d="M186.603 215.111C181.254 215.111 178.863 214.77 175.221 214.77C174.083 213.635 164.407 202.171 165.659 196.608C167.025 191.046 177.27 192.409 178.522 193.771C179.888 195.133 181.595 201.717 182.733 203.079C183.986 204.327 198.1 214.43 186.603 215.111Z" fill="#AF6345"/>
<path d="M186.945 213.976C184.896 213.976 183.417 213.068 181.937 213.068C179.547 213.068 177.612 213.976 175.335 213.976C174.197 212.841 165.091 201.149 166.229 195.473C166.001 195.814 165.887 196.154 165.774 196.609C164.408 202.171 173.741 214.203 174.88 215.338C178.522 215.338 181.14 215.338 186.49 215.338C189.791 215.111 191.043 214.089 190.929 212.727C190.246 213.408 188.994 213.862 186.945 213.976Z" fill="#844129"/>
<path d="M169.985 198.652C170.554 196.155 177.953 197.63 177.953 193.09C174.424 192.636 166.684 192.863 165.774 196.609C164.408 202.171 173.741 214.203 174.88 215.338C176.246 215.338 177.384 215.338 178.636 215.338C177.498 214.203 168.619 204.214 169.985 198.652Z" fill="#844129"/>
<path d="M172.945 215.111C168.847 214.884 166.343 207.96 171.465 207.279C174.88 206.825 182.165 212.727 181.596 215.224C177.953 215.338 178.522 215.111 172.945 215.111Z" fill="#AF6345"/>
<path d="M173.058 214.771C169.757 213.749 168.505 209.549 171.009 207.506C166.229 207.96 168.619 215.225 172.489 215.338C177.953 215.338 178.75 215.338 182.506 215.338C182.165 215.111 182.051 213.181 181.14 213.181C180.912 214.998 174.311 215.225 173.058 214.771Z" fill="#844129"/>
<path d="M183.416 213.749C180.343 216.246 200.149 215.679 202.426 210.798C204.588 205.917 192.75 206.144 183.416 213.749Z" fill="#AF6345"/>
<path d="M201.515 208.187C201.97 208.754 201.97 209.435 201.629 210.344C200.149 213.749 187.628 214.657 183.644 213.522C182.734 213.295 182.506 214.089 182.734 214.543C183.644 216.36 200.718 215.565 202.767 211.025C203.336 209.662 202.539 208.641 201.515 208.187Z" fill="#844129"/>
<path d="M168.392 196.041C165.091 195.7 156.668 183.555 161.676 177.539C166.798 171.409 175.563 175.041 177.384 178.674C179.205 182.079 183.758 197.403 168.392 196.041Z" fill="#AF6345"/>
<path d="M176.359 183.214C176.018 182.306 175.221 181.739 174.538 181.966C173.855 182.193 173.628 183.214 173.969 184.122C174.311 185.03 175.107 185.598 175.79 185.371C176.473 185.03 176.701 184.122 176.359 183.214Z" fill="#D1795A"/>
<path d="M169.757 194.338C166.57 194.111 158.944 183.101 162.359 176.857C162.131 177.084 161.903 177.311 161.676 177.539C156.554 183.668 164.635 196.382 168.05 196.722C173.627 197.176 176.928 194.906 178.408 192.409C176.701 193.771 173.969 194.679 169.757 194.338Z" fill="#844129"/>
<path d="M176.132 187.982C176.018 186.96 175.221 186.847 173.855 186.96C172.489 187.074 171.124 187.982 171.237 188.89C171.351 189.911 172.603 190.592 173.969 190.365C175.221 190.365 176.245 189.003 176.132 187.982Z" fill="#844129"/>
<path d="M176.018 187.414C175.79 186.62 174.424 186.279 173.286 186.506C172.148 186.733 170.896 187.868 171.123 188.776C171.237 189.571 173.514 190.479 174.424 188.89C175.221 189.571 176.245 188.209 176.018 187.414Z" fill="#D1795A"/>
<path d="M174.766 186.619C174.652 186.279 173.969 186.052 173.286 186.165C172.603 186.279 172.148 186.733 172.261 187.074C172.375 187.414 173.058 187.641 173.741 187.414C174.424 187.301 174.879 186.96 174.766 186.619Z" fill="#603225"/>
<path d="M175.449 189.344C175.335 189.003 174.766 189.23 174.197 189.344C173.627 189.571 172.717 190.252 172.831 190.479C172.944 190.82 173.969 191.841 174.538 191.728C175.221 191.501 175.562 189.684 175.449 189.344Z" fill="#844129"/>
<path d="M174.744 190.574C175.278 190.388 175.627 189.998 175.524 189.702C175.42 189.406 174.903 189.316 174.369 189.502C173.835 189.688 173.486 190.079 173.589 190.375C173.693 190.671 174.21 190.76 174.744 190.574Z" fill="#D1795A"/>
<path d="M168.391 186.393C168.05 185.484 167.253 184.917 166.57 185.144C165.887 185.371 165.66 186.393 166.001 187.301C166.343 188.209 167.139 188.776 167.822 188.549C168.505 188.322 168.733 187.301 168.391 186.393Z" fill="#D1795A"/>
<path d="M167.936 186.166C167.822 185.712 167.367 185.485 167.139 185.598C166.798 185.712 166.684 186.166 166.912 186.62C167.139 187.074 167.481 187.301 167.708 187.187C168.05 187.074 168.164 186.62 167.936 186.166Z" fill="#603225"/>
<path d="M175.904 182.987C175.79 182.533 175.335 182.306 175.107 182.42C174.766 182.533 174.652 182.987 174.88 183.441C175.107 183.895 175.449 184.122 175.676 184.009C175.904 183.782 176.018 183.328 175.904 182.987Z" fill="#603225"/>
<path d="M166.912 195.587C166.457 193.884 157.464 214.657 161.904 215.338C167.936 216.133 168.505 201.376 166.912 195.587Z" fill="#844129"/>
<path d="M160.879 186.279C158.83 185.938 154.732 184.69 155.415 180.149C156.326 174.133 162.245 177.084 162.245 177.084C160.651 179.695 160.537 182.42 160.879 186.279Z" fill="#844129"/>
<path d="M160.082 183.328C158.944 183.214 156.668 182.533 156.895 179.922C157.237 176.517 160.993 178.22 160.993 178.22C160.31 179.695 159.968 181.171 160.082 183.328Z" fill="#603225"/>
<path d="M79.6074 154.836C88.0305 154.723 102.828 156.993 114.552 158.809C114.324 158.695 113.983 158.582 113.755 158.582C107.039 157.22 87.9167 152.112 79.0383 152.339C73.6884 152.452 53.5413 154.268 43.297 157.901C57.2976 155.858 74.0299 154.95 79.6074 154.836Z" fill="#492E26"/>
<path d="M116.601 142.804C119.446 141.782 125.707 142.804 120.471 134.744C115.235 126.685 121.268 129.863 118.194 125.663C115.121 121.463 114.893 98.1935 104.307 96.0367C93.7216 93.7665 96.2257 135.085 98.3884 137.128C100.551 139.285 97.5917 142.804 101.689 143.712C105.787 144.62 112.275 144.393 116.601 142.804Z" fill="#D6624C"/>
<path d="M120.926 134.631C115.69 126.571 121.951 129.863 118.877 125.663C117.853 124.301 116.487 121.123 115.69 117.15C116.146 121.123 116.487 124.415 117.284 125.55C119.56 129.296 114.666 126.458 118.536 133.609C115.918 132.701 110.454 127.593 106.926 130.998C92.2422 145.982 96.2261 106.366 99.1856 103.983C93.2667 110.112 95.9985 135.766 97.9336 137.582C100.096 139.739 97.5921 143.712 101.69 144.506C105.788 145.414 113.186 144.62 117.512 143.031C120.243 142.236 126.162 142.69 120.926 134.631Z" fill="#BC4333"/>
<path d="M74.7128 116.356C69.9322 111.134 60.9399 111.815 58.5496 112.837L61.5091 122.031L75.5096 127.934L87.9166 124.869L90.5346 111.248C84.3881 109.658 76.6479 114.312 74.7128 116.356Z" fill="#FFE0C2"/>
<path d="M56.9562 112.723L57.7529 111.702L74.9406 117.491L91.4453 110.453L92.2421 111.247L75.965 128.047L56.9562 112.723Z" fill="#FFAA4D"/>
<path d="M58.8912 130.998L56.9562 112.496L75.0545 118.739L92.3561 111.247L90.421 129.75L76.079 135.198L58.8912 130.998Z" fill="#F48A42"/>
<path d="M76.648 125.209C77.6724 121.577 79.4936 118.399 81.5425 115.901L74.9406 118.739L56.8423 112.496L58.7773 130.998L75.6235 135.085C75.3959 132.02 75.6236 128.615 76.648 125.209Z" fill="#EA7439"/>
<path d="M118.877 136.22C111.934 128.388 96.681 130.885 84.1602 124.415L82.5667 126.004C93.0386 135.88 102.258 147.685 111.934 145.755C120.471 144.166 119.788 137.242 118.877 136.22Z" fill="#FFC397"/>
<path d="M118.877 136.22C118.422 135.766 117.966 135.312 117.511 134.858C118.08 136.901 118.763 137.923 111.478 139.285C102.372 141.101 93.6078 130.772 83.3635 125.096L82.6805 126.004C93.1525 135.88 102.372 147.685 112.048 145.755C120.471 144.166 119.788 137.242 118.877 136.22Z" fill="#FFAE85"/>
<path d="M33.5078 143.712C30.5483 143.031 24.7432 145.188 30.093 135.426C35.4428 125.664 29.0686 129.636 31.3451 125.664C34.4184 120.555 34.4184 94.5612 45.3457 90.5882C56.2729 86.6153 53.9964 132.928 51.8337 135.653C49.5572 138.263 49.2157 142.577 44.8903 144.053C40.6788 145.642 37.947 144.847 33.5078 143.712Z" fill="#D6624C"/>
<path d="M28.0446 141.442C29.069 137.015 30.6625 127.48 51.1511 129.409C41.1345 144.052 34.7603 145.528 28.0446 141.442Z" fill="#BC4333"/>
<path d="M52.5168 100.804C53.5412 111.815 52.1753 125.663 50.0126 131.112C48.6467 134.631 47.7361 138.831 37.0365 141.328C34.0771 142.009 27.9305 143.939 31.9144 133.609C35.7845 123.166 31.0037 129.069 33.2802 123.507C33.7355 122.485 33.6218 121.69 33.3941 118.285C32.7112 121.69 32.142 124.415 31.3453 125.663C28.272 130.771 34.4186 126.344 29.0687 136.107C23.7189 145.869 30.0932 143.825 33.0526 144.506C37.4918 145.642 40.5651 145.642 44.8905 144.052C49.102 142.463 50.3541 137.582 52.5168 134.858C53.9965 133.269 54.6795 113.631 52.5168 100.804Z" fill="#BC4333"/>
<path d="M35.1013 146.096C45.6871 147.685 54.2241 136.901 67.7694 125.777L65.9481 124.301C51.8337 131.453 39.882 127.139 33.7354 134.971C27.7026 142.69 34.0769 145.982 35.1013 146.096Z" fill="#FFC397"/>
<path d="M37.7196 139.739C36.809 139.625 32.3698 139.398 34.9878 133.496C34.5325 133.836 34.191 134.29 33.8495 134.858C27.8167 142.69 33.8495 146.89 34.874 147.004C45.4598 148.593 54.5658 137.242 67.8835 125.777L66.9729 124.982C54.5659 132.134 47.1672 141.101 37.7196 139.739Z" fill="#FFAE85"/>
<path d="M57.9804 147.231C62.7611 142.804 71.7533 142.69 72.0948 143.485C72.4362 144.393 63.2164 145.188 58.891 151.317C56.956 154.155 53.1997 151.771 57.9804 147.231Z" fill="#BC4333"/>
<path d="M92.9249 144.847C88.1443 142.35 80.5179 143.825 80.4041 144.393C80.1765 145.074 88.2581 144.166 92.8111 148.025C94.9738 149.842 97.7056 147.344 92.9249 144.847Z" fill="#BC4333"/>
<path d="M71.7535 216.587H60.9399C60.9399 216.587 65.493 213.068 67.6557 212.841C69.8184 212.5 71.7535 216.587 71.7535 216.587Z" fill="#EDD19F"/>
<path d="M88.3721 216.587H98.8441C98.8441 216.587 94.4048 213.068 92.356 212.841C90.1933 212.5 88.3721 216.587 88.3721 216.587Z" fill="#EDD19F"/>
<path d="M118.991 127.253C117.284 127.253 115.007 127.366 114.552 128.728C114.097 130.091 118.081 130.204 118.081 130.204L118.991 127.253Z" fill="#BC4333"/>
<path d="M74.2573 51.5399C75.6232 47.794 80.9729 40.0751 79.8347 40.3021C75.1679 40.8697 74.2573 51.5399 74.2573 51.5399Z" fill="#AA4F30"/>
<path d="M174.31 210.911C174.083 209.435 173.514 208.187 172.375 208.414C171.237 208.641 170.554 210.003 170.782 211.479C171.01 212.954 172.148 213.976 173.286 213.862C174.31 213.522 174.538 212.387 174.31 210.911Z" fill="#E2886D"/>
<path d="M170.554 209.322C170.782 208.754 171.123 208.414 170.554 208.187C169.985 207.96 169.302 208.3 169.188 208.754C168.96 209.322 169.302 209.89 169.871 210.117C170.44 210.344 170.326 209.89 170.554 209.322Z" fill="#E2886D"/>
<path d="M170.44 211.819C170.326 211.252 170.44 210.798 169.757 210.911C169.188 211.025 168.733 211.592 168.96 212.16C169.074 212.727 169.757 213.068 170.326 212.841C170.895 212.727 170.554 212.387 170.44 211.819Z" fill="#E2886D"/>
<path d="M171.692 213.635C171.351 213.408 171.237 212.954 170.896 213.408C170.554 213.749 170.554 214.317 170.896 214.544C171.237 214.771 171.692 214.771 172.034 214.43C172.375 214.089 172.034 213.976 171.692 213.635Z" fill="#E2886D"/>
<path d="M198.669 211.819C199.58 212.387 200.604 212.727 201.06 212.046C201.515 211.365 201.174 210.23 200.149 209.662C199.238 209.095 198.1 209.095 197.645 209.889C197.19 210.571 197.759 211.252 198.669 211.819Z" fill="#E2886D"/>
<path d="M201.401 210.571C201.629 210.911 201.629 211.252 201.97 211.138C202.425 210.911 202.539 210.457 202.312 210.117C202.084 209.776 201.629 209.662 201.173 209.889C200.832 210.003 201.173 210.23 201.401 210.571Z" fill="#E2886D"/>
<path d="M200.035 209.322C200.377 209.549 200.604 209.776 200.832 209.435C201.06 208.981 200.946 208.527 200.49 208.3C200.149 208.073 199.694 208.3 199.466 208.641C199.238 209.095 199.694 209.095 200.035 209.322Z" fill="#E2886D"/>
<path d="M198.328 209.095C198.669 209.095 198.897 209.095 198.897 208.754C198.897 208.414 198.555 208.187 198.214 208.187C197.872 208.187 197.645 208.527 197.759 208.868C197.872 209.322 198.1 209.095 198.328 209.095Z" fill="#E2886D"/>
<path opacity="0.4" d="M114.893 113.518C114.438 111.474 113.869 109.318 113.186 107.275C104.99 108.637 98.73 116.583 96.4535 120.669C96.4535 122.258 96.5674 123.734 96.5674 125.209C103.852 117.718 110.454 114.653 114.893 113.518Z" fill="#FFF7C6"/>
<path opacity="0.4" d="M52.8583 120.555C51.1509 117.037 44.4352 107.842 35.6706 106.48C35.1015 108.637 34.76 110.793 34.3047 112.837C38.7439 113.972 45.3458 116.923 52.7445 124.415L52.8583 120.555Z" fill="#FFF7C6"/>
<path d="M61.0539 127.48C61.7368 127.934 65.2654 126.117 67.8834 127.48C68.3387 127.707 69.0216 128.161 69.7046 128.501C70.9567 129.182 72.4365 129.296 72.6641 128.728C72.7779 128.274 71.6396 128.161 70.8429 127.707C70.0461 127.253 69.8184 127.139 69.9323 126.912C70.0461 126.798 71.0705 127.139 72.2088 127.366C73.6885 127.82 74.8268 127.82 74.9406 127.139C75.0544 126.571 74.03 126.571 72.6641 126.117C71.5259 125.663 70.9567 125.55 71.0705 124.982C71.1843 124.755 71.9812 124.869 73.2332 124.982C74.713 124.982 75.7374 124.642 75.7374 124.188C75.7374 123.507 75.0544 123.961 73.347 123.62C71.1843 123.28 69.0217 123.166 68.1111 122.144C67.3143 121.123 69.2493 118.966 68.2249 118.626C67.4281 118.399 66.6314 120.782 65.2654 123.507C64.0134 126.004 60.3709 127.025 61.0539 127.48Z" fill="#FFC397"/>
<path d="M88.1443 126.912C87.4613 127.366 84.0465 125.436 81.3147 126.798C80.8594 127.025 80.1765 127.479 79.4936 127.82C78.2415 128.501 76.7617 128.615 76.534 128.047C76.4202 127.593 77.5585 127.479 78.3553 127.025C79.1521 126.571 79.3797 126.458 79.2659 126.344C79.1521 126.231 78.1276 126.458 76.9894 126.798C75.5096 127.139 74.3714 127.139 74.2575 126.571C74.1437 126.004 75.1681 126.004 76.534 125.55C77.6723 125.096 78.2415 124.982 78.1276 124.415C78.1276 124.188 77.217 124.301 75.9649 124.301C74.4852 124.301 73.4608 123.961 73.4608 123.507C73.4608 122.825 74.1437 123.28 75.8511 123.053C78.0138 122.712 80.1765 122.712 81.0871 121.69C81.8838 120.669 80.0626 118.512 81.0871 118.171C81.8838 117.944 82.6807 120.328 84.0466 123.166C85.2987 125.323 88.941 126.458 88.1443 126.912Z" fill="#FFC397"/>
<path d="M140.331 136.304C140.557 141.45 142.524 150.078 148.499 152.878C154.475 155.678 169.224 157.646 173.611 151.137C178.073 144.629 177.241 138.801 175.653 136.531C174.065 134.336 170.888 141.072 170.51 138.499C170.131 135.925 178.225 123.968 168.846 117.156C156.441 108.15 139.272 113.448 140.331 136.304Z" fill="#A35B3B"/>
<path d="M163.929 115.34L157.954 113.675C158.635 115.643 166.199 123.741 173.157 124.043C173.233 124.043 172.628 116.324 163.929 115.34Z" fill="#8E4A2F"/>
<path d="M170.585 138.499C170.283 136.531 174.972 129.039 172.93 122.606C169.224 123.968 163.854 124.876 157.954 124.876C151.827 124.876 146.306 123.968 142.6 122.454C140.936 126.011 139.045 130.931 139.347 136.682C139.574 141.829 142.6 150.078 148.575 152.878C154.55 155.679 169.3 157.646 173.686 151.138C178.149 144.629 177.317 138.802 175.729 136.531C174.14 134.336 170.964 141.072 170.585 138.499Z" fill="#8E4A2F"/>
<path d="M148.499 152.878C151.979 154.543 158.408 155.83 164.081 155.376C164.913 152.954 161.358 145.764 161.585 142.737C162.341 134.185 166.577 129.341 164.005 124.498C162.114 124.725 160.072 124.8 157.878 124.8C155.912 124.8 153.945 124.725 152.13 124.498C148.121 128.13 142.448 133.731 141.843 140.466C141.465 144.78 142.978 150.305 148.499 152.878Z" fill="#6D331F"/>
<path d="M145.55 151.819C142.902 153.484 130.347 163.776 124.144 167.258L124.447 168.166C124.447 168.166 151.676 153.711 150.239 151.97C148.878 150.229 148.046 150.305 145.55 151.819Z" fill="#FFCD9C"/>
<path d="M151.601 214.786L147.214 184.816L153.038 180.351L152.508 214.786H151.601Z" fill="#FFCD9C"/>
<path d="M149.256 214.786L140.331 187.54L145.474 183.453L150.164 214.786H149.256Z" fill="#FFCD9C"/>
<path d="M164.534 172.555C164.913 172.782 165.291 173.842 166.425 174.75C166.652 174.902 166.955 175.129 167.257 175.356C167.787 175.734 168.165 176.415 168.014 176.567C167.862 176.718 167.56 176.264 167.182 175.961C166.879 175.734 166.728 175.583 166.652 175.658C166.577 175.734 166.955 176.112 167.333 176.567C167.862 177.172 168.089 177.626 167.862 177.853C167.636 178.004 167.409 177.55 166.879 177.096C166.425 176.642 166.274 176.491 166.047 176.642C165.971 176.718 166.198 177.021 166.501 177.626C166.879 178.307 166.879 178.761 166.728 178.837C166.425 178.988 166.501 178.534 165.971 177.853C165.366 176.945 164.837 176.037 164.232 175.81C163.627 175.658 163.097 176.869 162.795 176.491C162.492 176.188 163.324 175.356 164.232 174.22C164.988 173.312 164.156 172.328 164.534 172.555Z" fill="#FFC397"/>
<path d="M125.808 166.728C125.733 167.106 124.749 167.712 124.069 169.074C123.993 169.301 123.842 169.679 123.69 169.982C123.388 170.588 122.858 171.117 122.632 170.966C122.405 170.815 122.858 170.436 123.01 169.982C123.161 169.604 123.237 169.452 123.161 169.377C123.085 169.377 122.783 169.755 122.405 170.285C121.951 170.89 121.497 171.269 121.27 171.042C121.043 170.89 121.497 170.512 121.8 169.906C122.102 169.377 122.253 169.15 122.102 168.998C122.026 168.923 121.724 169.225 121.27 169.679C120.741 170.133 120.211 170.36 120.06 170.133C119.833 169.831 120.287 169.831 120.816 169.225C121.573 168.393 122.329 167.712 122.405 167.03C122.48 166.425 121.119 166.198 121.421 165.744C121.648 165.365 122.632 166.047 123.917 166.652C125.203 167.333 125.96 166.349 125.808 166.728Z" fill="#FFC397"/>
<path d="M149.483 143.721L147.819 151.516L153.038 150.683L154.248 145.159L149.483 143.721Z" fill="#EF8F6F"/>
<path d="M128.456 196.698C136.927 203.055 152.735 202.525 159.164 198.892C159.164 198.892 150.239 174.145 154.096 152.5C154.777 148.489 143.432 147.505 141.011 158.327C138.364 169.982 132.01 190.643 128.456 196.698Z" fill="#5EA6D3"/>
<path d="M148.575 201.087C148.575 201.087 147.819 192.838 147.819 184.967C147.819 184.967 149.18 197.379 150.844 200.936L148.575 201.087Z" fill="#4B91C6"/>
<path d="M138.515 167.939C135.414 179.064 131.103 192.081 128.456 196.698C128.909 197.076 129.439 197.379 129.893 197.682C132.313 193.141 135.868 179.594 138.515 167.939Z" fill="#4B91C6"/>
<path d="M153.265 200.936C155.609 200.482 157.652 199.801 159.164 198.968C159.164 198.968 150.239 174.22 154.097 152.575C154.248 151.667 152.281 153.484 151.449 153.03C144.566 176.642 151.979 196.546 153.265 200.936Z" fill="#4B91C6"/>
<path d="M153.189 155.981C153.491 153.181 154.097 150.683 152.357 150.91C151.6 150.986 150.315 152.575 150.012 155.3C149.71 158.1 150.542 160.976 151.298 160.976C152.054 160.976 152.886 158.706 153.189 155.981Z" fill="#FFCD9C"/>
<path d="M145.776 154.24C147.062 154.392 151.147 150.229 153.113 150.456C153.113 150.456 150.92 148.64 147.289 150.305C146.306 150.683 143.583 154.013 145.776 154.24Z" fill="#FFC397"/>
<path opacity="0.5" d="M150.617 154.77C151.449 151.894 152.13 150.835 153.491 150.835C153.34 150.683 153.189 150.608 153.038 150.456L154.248 145.159L151.298 144.25C151.071 144.25 150.844 144.25 150.617 144.25C150.163 144.25 149.709 144.25 149.256 144.326L148.045 150.002C147.743 150.078 147.516 150.229 147.213 150.305C147.138 150.305 147.062 150.381 146.987 150.456C145.625 151.062 144.264 152.046 143.129 153.484C142.524 153.938 141.768 154.468 141.011 155.073C143.81 156.511 149.558 158.554 150.617 154.77Z" fill="#BC5642"/>
<path d="M151.6 147.353C146.306 146.369 138.591 142.813 140.557 133.428C142.297 125.33 157.046 118.065 162.265 120.562C168.467 123.362 165.896 150.002 151.6 147.353Z" fill="#FFCD9C"/>
<path d="M150.315 146.294C148.121 145.915 145.625 145.007 143.432 143.569C145.777 145.688 148.953 146.824 151.601 147.278C159.996 148.867 164.383 140.315 165.291 132.369C161.131 137.969 161.812 148.489 150.315 146.294Z" fill="#F7A27C"/>
<path d="M157.954 144.856C156.744 146.521 161.887 148.186 164.307 145.537C166.123 143.494 160.677 141.147 157.954 144.856Z" fill="#FFCD9C"/>
<path d="M158.862 144.78C158.105 145.84 161.433 146.975 163.097 145.234C164.307 143.872 160.677 142.358 158.862 144.78Z" fill="#EF8F6F"/>
<path d="M158.105 144.856C157.576 145.613 159.845 146.369 160.98 145.159C161.812 144.25 159.316 143.267 158.105 144.856Z" fill="#FFCD9C"/>
<path d="M149.634 215.391H144.188C144.188 215.391 146.457 213.272 147.97 213.196C149.483 213.121 149.634 215.391 149.634 215.391Z" fill="#FFE7B3"/>
<path d="M154.399 215.391H150.315C150.315 215.391 150.315 213.575 151.827 213.499C153.34 213.348 154.399 215.391 154.399 215.391Z" fill="#FFE7B3"/>
<path d="M129.439 197.001C129.439 196.471 128.985 196.017 128.38 196.017C127.775 195.941 127.321 196.395 127.321 196.849C127.321 197.303 127.775 197.833 128.38 197.833C128.985 197.833 129.439 197.455 129.439 197.001Z" fill="#8ECEEF"/>
<path d="M130.725 197.833C130.725 197.303 130.271 196.849 129.666 196.849C129.061 196.774 128.607 197.228 128.607 197.682C128.607 198.212 129.061 198.666 129.666 198.666C130.271 198.666 130.725 198.287 130.725 197.833Z" fill="#8ECEEF"/>
<path d="M132.464 198.363C132.464 197.833 132.01 197.379 131.405 197.379C130.8 197.303 130.346 197.757 130.346 198.212C130.346 198.741 130.8 199.195 131.405 199.195C131.935 199.271 132.464 198.893 132.464 198.363Z" fill="#8ECEEF"/>
<path d="M134.204 198.741C134.128 198.211 133.523 197.833 132.994 197.909C132.464 197.984 132.086 198.439 132.162 198.893C132.237 199.422 132.842 199.801 133.372 199.725C133.901 199.725 134.28 199.271 134.204 198.741Z" fill="#8ECEEF"/>
<path d="M135.565 199.422C135.49 198.893 134.885 198.514 134.355 198.59C133.826 198.666 133.448 199.044 133.523 199.574C133.599 200.104 134.204 200.482 134.733 200.406C135.263 200.406 135.641 199.952 135.565 199.422Z" fill="#8ECEEF"/>
<path d="M137.381 199.725C137.305 199.195 136.7 198.817 136.17 198.893C135.641 198.968 135.263 199.422 135.338 199.877C135.414 200.406 136.019 200.785 136.549 200.709C137.078 200.709 137.456 200.255 137.381 199.725Z" fill="#8ECEEF"/>
<path d="M139.045 199.877C138.818 199.347 138.213 199.044 137.683 199.195C137.154 199.347 136.927 199.801 137.078 200.331C137.305 200.86 137.91 201.163 138.44 201.012C138.969 200.86 139.196 200.406 139.045 199.877Z" fill="#8ECEEF"/>
<path d="M140.482 200.331C140.255 199.801 139.65 199.498 139.12 199.649C138.591 199.801 138.288 200.255 138.515 200.785C138.742 201.314 139.347 201.617 139.877 201.466C140.482 201.314 140.709 200.785 140.482 200.331Z" fill="#8ECEEF"/>
<path d="M142.297 200.406C142.07 199.877 141.465 199.574 140.936 199.725C140.406 199.876 140.179 200.331 140.33 200.86C140.557 201.39 141.162 201.693 141.692 201.542C142.297 201.39 142.524 200.86 142.297 200.406Z" fill="#8ECEEF"/>
<path d="M143.885 200.633C143.583 200.179 142.978 199.877 142.448 200.104C141.919 200.255 141.768 200.785 142.07 201.314C142.373 201.769 142.978 202.071 143.507 201.844C143.961 201.617 144.188 201.087 143.885 200.633Z" fill="#8ECEEF"/>
<path d="M145.398 200.936C145.095 200.482 144.49 200.179 143.961 200.406C143.432 200.558 143.28 201.087 143.583 201.617C143.885 202.071 144.49 202.374 145.02 202.147C145.474 201.92 145.701 201.39 145.398 200.936Z" fill="#8ECEEF"/>
<path d="M147.213 200.86C146.911 200.406 146.306 200.103 145.776 200.331C145.247 200.482 145.096 201.012 145.398 201.541C145.701 201.996 146.306 202.298 146.835 202.071C147.289 201.844 147.516 201.314 147.213 200.86Z" fill="#8ECEEF"/>
<path d="M149.029 200.709C148.651 200.255 147.97 200.104 147.516 200.331C147.062 200.558 146.987 201.087 147.289 201.541C147.667 201.996 148.348 202.147 148.802 201.92C149.331 201.693 149.407 201.163 149.029 200.709Z" fill="#8ECEEF"/>
<path d="M150.542 200.86C150.163 200.406 149.483 200.255 149.029 200.482C148.575 200.709 148.499 201.239 148.802 201.693C149.18 202.147 149.861 202.298 150.315 202.071C150.844 201.844 150.92 201.315 150.542 200.86Z" fill="#8ECEEF"/>
<path d="M152.281 200.558C151.903 200.104 151.222 199.952 150.768 200.179C150.315 200.406 150.239 200.936 150.542 201.39C150.92 201.844 151.6 201.996 152.054 201.769C152.584 201.542 152.659 201.012 152.281 200.558Z" fill="#8ECEEF"/>
<path d="M153.794 200.179C153.34 199.801 152.659 199.725 152.281 200.028C151.903 200.331 151.903 200.936 152.357 201.315C152.811 201.693 153.491 201.769 153.869 201.466C154.248 201.087 154.248 200.558 153.794 200.179Z" fill="#8ECEEF"/>
<path d="M155.307 200.028C154.853 199.649 154.172 199.574 153.794 199.876C153.416 200.179 153.416 200.785 153.869 201.163C154.323 201.542 155.004 201.617 155.382 201.314C155.76 201.012 155.76 200.482 155.307 200.028Z" fill="#8ECEEF"/>
<path d="M156.592 199.271C156.139 198.893 155.458 198.817 155.08 199.12C154.702 199.422 154.702 200.028 155.155 200.406C155.609 200.785 156.29 200.86 156.668 200.558C157.046 200.179 157.046 199.649 156.592 199.271Z" fill="#8ECEEF"/>
<path d="M159.769 198.136C159.315 197.757 158.635 197.682 158.256 197.985C157.878 198.287 157.878 198.893 158.332 199.271C158.786 199.65 159.467 199.725 159.845 199.422C160.299 199.044 160.223 198.514 159.769 198.136Z" fill="#8ECEEF"/>
<path d="M158.408 198.741C157.954 198.363 157.273 198.287 156.895 198.59C156.517 198.893 156.517 199.498 156.971 199.877C157.425 200.255 158.105 200.331 158.483 200.028C158.862 199.649 158.862 199.12 158.408 198.741Z" fill="#8ECEEF"/>
<path d="M153.34 151.44C153.34 151.44 158.105 160.749 165.745 174.447L164.988 174.977C164.988 174.977 160.072 165.593 151.752 155.376L153.34 151.44Z" fill="#FFCD9C"/>
<path d="M144.491 169.301C144.718 167.939 144.188 166.804 143.281 166.728C142.373 166.652 141.465 167.712 141.238 168.998C141.012 170.361 141.541 171.496 142.449 171.572C143.356 171.723 144.264 170.663 144.491 169.301Z" fill="#BDECFF"/>
<path d="M141.465 170.209C141.39 170.133 139.726 168.923 139.726 167.106C139.726 166.349 140.028 165.668 140.558 164.987C141.012 164.457 141.465 164.23 141.919 164.382C142.6 164.609 143.129 165.593 143.356 167.031L142.978 167.258C142.751 166.047 142.297 165.063 141.768 164.911C141.465 164.836 141.087 164.987 140.785 165.366C140.331 165.895 140.104 166.425 140.104 167.031C140.104 168.544 141.617 169.679 141.617 169.679L141.465 170.209Z" fill="#BDECFF"/>
<path d="M144.264 168.317C144.34 168.393 145.852 169.831 145.701 171.647C145.625 172.404 145.323 173.085 144.718 173.691C144.264 174.145 143.735 174.296 143.356 174.145C142.751 173.842 142.222 172.707 142.146 171.269L142.524 171.117C142.6 172.404 143.054 173.388 143.583 173.615C143.886 173.766 144.264 173.615 144.567 173.237C145.02 172.782 145.323 172.253 145.323 171.723C145.474 170.209 144.037 168.847 143.961 168.847L144.264 168.317Z" fill="#BDECFF"/>
<path d="M142.373 167.56C142.448 167.485 143.583 164.76 144.869 164.457C145.398 164.306 145.852 164.609 146.23 165.29C146.533 165.82 146.608 166.501 146.382 167.182C146.079 168.166 145.247 169.225 144.264 169.831L144.188 169.301C145.096 168.771 145.852 167.939 146.079 167.106C146.23 166.576 146.155 166.122 145.928 165.744C145.625 165.214 145.323 164.987 144.869 165.063C143.81 165.29 142.675 167.787 142.675 167.863L142.373 167.56Z" fill="#BDECFF"/>
<path d="M143.129 171.269C143.054 171.344 141.768 173.918 140.482 174.069C139.953 174.145 139.575 173.766 139.272 173.009C139.045 172.404 138.969 171.723 139.196 171.117C139.499 170.134 140.407 169.225 141.465 168.771L141.541 169.301C140.633 169.679 139.877 170.512 139.575 171.269C139.423 171.723 139.423 172.253 139.65 172.707C139.877 173.312 140.18 173.615 140.633 173.539C141.692 173.388 142.903 171.042 142.978 171.042L143.129 171.269Z" fill="#BDECFF"/>
<path d="M143.356 167.409C143.432 167.333 145.474 166.35 146.306 167.409C146.684 167.863 146.76 168.544 146.684 169.528C146.609 170.285 146.306 170.89 145.852 171.269C145.172 171.874 144.188 171.799 143.281 171.269L143.508 170.739C144.264 171.269 145.172 171.269 145.701 170.815C146.004 170.512 146.231 170.134 146.306 169.528C146.382 168.771 146.306 168.242 146.079 167.863C145.323 166.955 143.432 167.939 143.432 167.939L143.356 167.409Z" fill="#BDECFF"/>
<path d="M141.995 171.345C141.919 171.345 139.877 172.101 139.121 170.966C138.818 170.512 138.742 169.755 138.894 168.771C139.045 168.014 139.348 167.409 139.801 167.106C140.482 166.652 141.465 166.728 142.297 167.485L142.07 167.939C141.314 167.333 140.482 167.182 139.953 167.56C139.65 167.787 139.423 168.242 139.272 168.771C139.121 169.528 139.121 170.058 139.423 170.436C140.104 171.42 141.995 170.739 141.995 170.739V171.345Z" fill="#BDECFF"/>
<path d="M143.961 169.755C143.961 169.906 144.34 172.631 143.432 174.145C143.054 174.75 142.524 175.053 141.919 175.053C141.39 175.053 141.012 174.75 140.86 174.145C140.558 173.312 140.785 171.874 141.39 170.436L141.692 170.663C141.163 171.874 141.012 173.161 141.239 173.842C141.39 174.296 141.617 174.447 142.071 174.447C142.6 174.447 142.978 174.22 143.281 173.766C144.037 172.555 143.735 169.982 143.735 169.906L143.961 169.755Z" fill="#BDECFF"/>
<path d="M141.465 168.544C141.465 168.393 141.314 165.593 142.297 164.23C142.676 163.625 143.205 163.398 143.886 163.549C144.415 163.625 144.718 164.003 144.869 164.609C145.096 165.517 144.793 166.955 144.113 168.317L143.81 168.09C144.415 166.879 144.642 165.668 144.491 164.912C144.415 164.457 144.113 164.23 143.734 164.155C143.205 164.079 142.827 164.23 142.524 164.685C141.692 165.82 141.844 168.468 141.844 168.468L141.465 168.544Z" fill="#BDECFF"/>
<path d="M157.878 143.948C159.769 144.553 163.173 141.148 166.35 142.661C166.35 142.661 168.165 128.055 166.198 124.271C160.677 123.741 164.534 139.483 157.878 143.948Z" fill="#8E4A2F"/>
<path d="M153.643 133.655C154.399 131.99 156.139 131.158 157.576 131.763C159.013 132.444 159.542 134.336 158.786 136.001C158.03 137.742 156.819 137.439 155.382 136.758C153.945 136.153 152.886 135.396 153.643 133.655Z" fill="#AF6345"/>
<path d="M145.398 129.871C146.155 128.206 147.894 127.298 149.256 127.979C150.617 128.584 151.071 130.476 150.315 132.141C149.558 133.806 148.348 133.579 146.987 132.974C145.625 132.293 144.642 131.536 145.398 129.871Z" fill="#AF6345"/>
<path d="M150.542 129.795L151.374 129.417L151.222 128.584L150.315 129.19L150.542 129.795Z" fill="#AF6345"/>
<path d="M149.71 128.736L150.239 128.055L149.71 127.373L149.18 128.357L149.71 128.736Z" fill="#AF6345"/>
<path d="M148.197 127.979L148.348 127.071L147.516 126.844L147.592 127.979H148.197Z" fill="#AF6345"/>
<path d="M158.711 133.277L159.543 132.898L159.316 132.066L158.484 132.747L158.711 133.277Z" fill="#AF6345"/>
<path d="M157.803 132.368L158.332 131.612L157.651 131.006L157.273 132.066L157.803 132.368Z" fill="#AF6345"/>
<path d="M156.29 131.763V130.855L155.458 130.703L155.685 131.839L156.29 131.763Z" fill="#AF6345"/>
<path d="M153.567 133.958C154.248 132.52 155.912 131.839 157.273 132.444C158.635 133.049 159.24 134.79 158.635 136.304C157.954 137.817 156.744 137.439 155.382 136.834C153.945 136.152 152.886 135.396 153.567 133.958Z" fill="#FFF9E9"/>
<path d="M145.171 130.098C145.852 128.66 147.516 127.979 148.878 128.584C150.239 129.19 150.844 130.93 150.164 132.444C149.483 133.958 148.273 133.579 146.911 132.974C145.55 132.293 144.491 131.536 145.171 130.098Z" fill="#FFF9E9"/>
<path d="M152.357 141.526C152.508 141.299 152.584 141.072 152.508 140.769C152.433 140.542 152.281 140.315 151.979 140.239L147.138 138.726C146.836 138.65 146.457 138.726 146.23 138.953C146.004 139.18 145.852 139.558 145.928 139.861C146.155 140.845 146.76 142.056 148.575 142.585C150.542 143.191 151.752 142.283 152.357 141.526Z" fill="#542C23"/>
<path d="M146.382 139.937C146.306 139.71 146.382 139.483 146.608 139.331C146.835 139.18 147.062 139.104 147.365 139.18L151.525 140.466C151.752 140.542 151.903 140.693 151.979 140.845C152.054 140.996 151.979 141.223 151.903 141.375C151.752 141.602 151.449 141.753 151.147 141.904L146.684 140.542C146.533 140.391 146.457 140.164 146.382 139.937Z" fill="#FFF5E9"/>
<path d="M154.248 133.428C154.55 132.747 155.307 132.444 155.912 132.747C156.517 133.05 156.819 133.806 156.517 134.488C156.214 135.169 155.458 135.472 154.853 135.169C154.172 134.866 153.945 134.034 154.248 133.428Z" fill="#5795AA"/>
<path d="M145.928 129.568C146.23 128.887 146.987 128.584 147.592 128.887C148.197 129.19 148.424 129.947 148.121 130.628C147.819 131.309 147.062 131.612 146.457 131.309C145.928 131.006 145.625 130.174 145.928 129.568Z" fill="#5795AA"/>
<path d="M146.609 129.871C146.76 129.568 147.062 129.417 147.289 129.568C147.592 129.72 147.668 130.022 147.516 130.325C147.365 130.628 147.062 130.779 146.76 130.628C146.533 130.476 146.457 130.098 146.609 129.871Z" fill="#7DC5D8"/>
<path d="M154.853 133.731C155.004 133.428 155.307 133.277 155.534 133.428C155.76 133.579 155.912 133.882 155.76 134.185C155.609 134.488 155.307 134.639 155.08 134.488C154.853 134.336 154.777 133.958 154.853 133.731Z" fill="#7DC5D8"/>
<path d="M147.819 125.254C149.407 124.573 150.996 125.179 151.298 125.481L151.827 124.876C151.298 124.346 149.407 123.741 147.667 124.498L147.819 125.254Z" fill="#AF6345"/>
<path d="M158.484 129.341C160.223 129.871 161.282 131.687 161.358 132.217L162.114 132.066C161.963 131.233 160.601 129.19 158.635 128.584L158.484 129.341Z" fill="#AF6345"/>
<path d="M151.601 136.304C151.449 136.834 150.844 137.137 150.163 136.985C149.71 136.909 149.407 136.531 149.256 136.228C149.104 136.758 149.483 137.364 150.163 137.515C150.844 137.666 151.449 137.364 151.601 136.834C151.676 136.607 151.676 136.455 151.601 136.304Z" fill="#EF8F6F"/>
<g clip-path="url(#clip0_4_10129)">
<path d="M41.6274 88.3438C45.1002 87.75 55.2643 77.4867 54.502 73.8394C53.7397 70.192 51.5374 69.9376 51.0292 70.6161C50.521 71.2947 41.6274 88.3438 41.6274 88.3438Z" fill="#FFC397"/>
<path d="M54.4173 73.5002C53.5703 70.1922 51.5375 70.0225 51.0293 70.6163C50.5211 71.2948 41.6274 88.3439 41.6274 88.3439C41.7968 88.3439 41.9662 88.2591 42.0509 88.1742C44.3379 85.46 52.9774 78.5895 54.4173 73.5002Z" fill="#F7A27C"/>
<path d="M22.3155 41.0136C20.6215 44.9154 13.8454 46.3573 10.0338 40.0806C10.0338 40.0806 4.95171 41.8618 2.15656 31.7681C-0.638579 21.6743 3.25772 13.4466 13.4219 10.8172C13.4219 10.8172 17.6569 -1.90603 30.1927 1.65647C30.1927 1.65647 31.4633 -0.548889 33.3267 0.129682C35.1901 0.893075 38.2393 2.67432 38.9169 9.37521C38.9169 9.37521 44.0837 8.01807 46.5401 13.6163C49.0811 19.2145 47.8106 25.6609 42.8979 31.344C37.9852 37.027 30.0233 45.7636 22.3155 41.0136Z" fill="#8E542D"/>
<path d="M35.7831 22.3528C25.026 22.3528 15.4547 17.0938 15.4547 7.93314C15.4547 7.59386 15.4548 7.25457 15.5395 6.91528C14.0996 8.951 13.5066 10.8171 13.5066 10.8171C3.34246 13.4465 -0.553797 21.6742 2.24135 31.7679C5.03649 41.8617 10.1186 40.0804 10.1186 40.0804C13.9301 46.3572 20.6215 44.9152 22.4003 41.0135C30.1928 45.7635 38.07 37.0269 43.0674 31.4287C46.1167 27.8662 47.8107 24.0492 47.9801 20.3171C44.4226 22.9465 40.6958 22.3528 35.7831 22.3528Z" fill="#774726"/>
<path d="M15.6241 49.4108L18.8428 27.951L25.6189 36.0091L23.9249 50.6832L15.6241 49.4108Z" fill="#EF8F6F"/>
<path d="M22.2309 48.9868C25.2801 48.2234 46.3708 66.2055 46.3708 66.2055L36.5454 74.2635C36.5454 74.2635 17.3182 50.1743 22.2309 48.9868Z" fill="#F4B84D"/>
<path d="M21.8073 50.9377C24.433 50.2591 40.5263 63.5761 44.8461 67.2234L46.5401 65.8663C46.5401 65.8663 25.4494 47.8841 22.4002 48.6475C21.6379 48.902 21.4685 49.7502 21.8073 50.9377C21.8073 51.0225 21.8073 50.9377 21.8073 50.9377Z" fill="#FFD766"/>
<path d="M35.9524 215.915C35.783 178.594 40.5262 142.29 38.324 122.103C36.9688 109.973 30.1927 97.4198 30.1927 97.4198C30.1927 97.4198 8.67857 98.9466 8.08566 101.067C7.06924 104.969 2.83419 113.366 3.5965 123.036C4.52822 135.08 13.1677 158.83 13.1677 163.326C13.1677 167.822 9.52559 176.388 9.52559 181.563C9.52559 185.804 16.4711 215.915 16.4711 215.915H17.9957C16.7252 173.759 18.4192 171.808 19.0121 163.326C19.7745 152.045 19.2663 131.264 20.198 127.701C20.6215 126.089 21.3838 125.411 23.1625 126.768C25.0259 128.125 32.1408 158.915 32.1408 163.326C32.1408 167.737 29.4304 175.031 29.0069 181.902C28.8375 184.277 34.1737 216 34.1737 216H35.9524V215.915Z" fill="#825954"/>
<path d="M35.5289 215.321C35.5289 215.321 30.1928 183.683 30.3622 181.223C30.7857 174.438 33.4961 167.058 33.4961 162.647C33.4961 158.237 26.2965 127.446 24.5178 126.089C23.1626 125.072 22.4003 125.156 21.8921 126.005C22.2309 126.089 22.7391 126.259 23.332 126.683C25.1954 128.04 32.3103 158.83 32.3103 163.241C32.3103 167.652 29.5999 174.946 29.1764 181.817C29.007 184.192 34.3431 215.915 34.3431 215.915H35.9525C35.9525 215.746 35.9525 215.491 35.9525 215.321H35.5289Z" fill="#6B3F3B"/>
<path d="M29.7694 97.335C29.0071 97.5894 8.25516 100.813 8.17046 101.067C7.15404 104.969 2.91896 113.366 3.68128 123.036C4.613 135.08 13.2526 158.83 13.2526 163.326C13.2526 167.821 9.6104 176.388 9.6104 181.563C9.6104 185.804 16.5559 215.915 16.5559 215.915H18.0806C18.0806 215.746 18.0806 215.491 18.0806 215.321H17.7418C17.7418 215.321 11.8126 186.143 11.8126 181.987C11.8126 176.728 15.2007 167.737 15.2007 163.241C15.2007 158.746 9.6951 130.415 8.76339 118.371C13.8455 118.54 19.6899 117.777 24.6873 116.589C24.8567 115.656 25.0261 114.554 25.0261 114.554L25.8731 116.335C31.2093 114.893 35.275 112.942 35.7832 110.991C35.8679 110.822 29.6847 97.4198 29.7694 97.335Z" fill="#6B3F3B"/>
<path d="M24.9413 112.348L26.3812 114.299C29.8539 113.112 33.0726 111.415 35.5289 109.125C32.3103 96.6564 17.1488 80.2858 34.1737 71.3796C34.1737 71.3796 33.6655 49.5805 21.6379 48.2233C15.9629 47.5448 8.84804 50.2591 6.64581 60.9466C5.20589 67.9019 9.35621 74.7724 8.5092 87.4108C7.91629 95.9778 4.86706 102.255 4.18945 114.638C9.86444 116.505 17.4028 116.674 24.1789 114.978C24.433 114.045 24.9413 112.348 24.9413 112.348Z" fill="#FFD766"/>
<path d="M21.1296 49.0716C22.1461 54.3305 22.8237 57.4689 24.7718 62.4734L26.2117 62.1341C24.5177 57.0448 23.6707 53.9912 22.6542 48.8171L21.1296 49.0716Z" fill="#FFEC9C"/>
<path d="M4.18945 114.639C6.8999 115.572 10.1186 116.08 13.4219 116.165C13.3372 115.741 13.1678 115.317 13.0831 114.893C11.3891 107.174 16.9794 96.0627 22.9085 94.7055C28.8376 93.4332 32.9879 102.17 34.682 109.889C34.9361 109.634 35.1902 109.464 35.4443 109.21C32.3104 96.7412 17.1488 80.4555 33.9196 71.4645C32.8185 71.7189 31.548 71.8886 30.1081 71.9734C22.5696 72.5671 15.2007 73.0761 12.1514 67.0537C10.2033 63.3216 9.18683 57.2145 10.3726 52.4645C8.67862 54.4154 7.3234 57.2145 6.56108 60.9466C5.12116 67.902 9.27154 74.7725 8.42453 87.4109C7.91632 95.9778 4.86706 102.255 4.18945 114.639Z" fill="#F4B84D"/>
<path d="M22.1462 91.143C17.8264 87.6653 17.7417 74.6877 31.548 65.5269C45.3544 56.2814 55.7726 52.4645 60.1771 56.5359C66.3603 62.3037 36.1219 102.594 22.1462 91.143Z" fill="#FFEFBD"/>
<path d="M27.9057 82.1519C25.1953 80.0314 24.6024 73.9242 28.8374 67.5626C17.8263 76.5537 18.2498 87.9197 22.1461 91.1429C31.1244 98.5224 46.8789 84.4421 55.349 71.8885C46.2012 80.6251 34.5971 87.4108 27.9057 82.1519Z" fill="#FCDFB1"/>
<path d="M1.73299 86.0537C1.05538 80.8796 3.59647 55.7725 11.3043 52.0404C17.064 49.3261 8.42444 83.8484 8.42444 83.8484C8.42444 83.8484 2.49531 91.3974 1.73299 86.0537Z" fill="#FFD766"/>
<path d="M3.08835 85.9689C2.32606 81.8126 3.42714 65.1028 7.57741 55.9421C2.66485 64.1698 0.716741 81.643 1.30964 85.8841C1.56373 87.9198 2.66483 88.0894 3.85062 87.5805C3.51182 87.326 3.25775 86.8171 3.08835 85.9689Z" fill="#F4B84D"/>
<path d="M47.2178 64.7635C52.3846 67.2234 62.803 59.9287 56.535 56.96C51.5376 54.6698 40.1028 61.3707 47.2178 64.7635Z" fill="#FFCD9C"/>
<path d="M15.5394 46.7815L14.5229 49.0717C14.5229 49.0717 16.471 51.0226 18.6733 51.5315C20.8755 52.0404 22.5695 47.969 22.5695 47.969L15.5394 46.7815Z" fill="#FFEC9C"/>
<path d="M21.7225 47.7992C21.7225 47.7992 23.6707 52.8036 24.6871 51.1072C25.1106 50.4286 25.0259 49.1563 25.0259 49.1563L24.5177 47.7144L21.7225 47.7992Z" fill="#FFEC9C"/>
<path opacity="0.5" d="M30.955 53.4824C29.5998 52.4645 28.3293 51.6163 27.1435 50.8529C26.4659 50.2591 25.7883 49.7502 25.0259 49.3261C25.0259 49.2413 25.0259 49.1565 25.0259 49.1565L24.5178 47.7145H24.3483L25.7036 36.0092L24.2637 34.3127C22.739 33.5494 21.2144 33.1252 19.6051 33.1252C19.0969 33.1252 18.5887 33.2101 18.0805 33.2949L16.0476 46.9511L15.5394 46.8663L14.523 49.1565C14.523 49.1565 14.6077 49.2413 14.7771 49.4109C13.2525 50.0895 11.8126 51.1922 10.542 52.6341C10.4573 52.719 10.4573 52.8038 10.3726 52.8038C10.1185 52.9734 9.86446 53.2279 9.61035 53.4824C12.4055 54.3306 16.217 54.8395 20.3674 54.8395C24.433 54.7547 28.1599 54.2458 30.955 53.4824Z" fill="#BC5642"/>
<path d="M17.657 34.2279C17.657 39.0628 22.4003 44.8306 28.2447 46.6967C28.2447 46.6967 35.8678 42.4556 37.223 36.9422C38.3241 32.4467 37.4771 32.1922 37.6465 31.2592C37.9853 29.0538 43.5756 26.7637 40.4416 19.3842C39.2558 16.5003 38.07 15.7369 29.261 20.1476C19.1816 25.3217 17.657 32.4467 17.657 34.2279Z" fill="#FFC397"/>
<path d="M23.5861 24.0493C20.6215 28.5448 20.3674 33.1252 20.3674 34.3127C20.3674 38.7234 23.2473 44.3216 28.2447 46.7814C22.4003 44.8306 17.7417 39.1475 17.7417 34.3127C17.657 32.8707 18.5887 28.3752 23.5861 24.0493Z" fill="#F7A27C"/>
<path d="M15.2852 27.4422C16.0475 24.8127 20.3673 24.9824 20.1132 27.7815C19.7744 30.8351 19.0121 35.4154 17.6569 34.3976C16.4711 33.4645 14.3535 30.5806 15.2852 27.4422Z" fill="#FFC397"/>
<path d="M16.217 28.5448C16.7252 26.7636 19.6051 26.9332 19.4357 28.7993C19.2663 30.835 18.6734 33.8886 17.8263 33.21C17.064 32.5314 15.6241 30.6653 16.217 28.5448Z" fill="#EF8F6F"/>
<path d="M17.1487 31.0895C17.4028 30.1564 19.0121 30.2413 18.9274 31.1743C18.8427 32.277 18.5039 33.9734 18.0804 33.5493C17.5722 33.2948 16.8099 32.277 17.1487 31.0895Z" fill="#FFC397"/>
<path d="M23.9249 20.0626C24.179 23.2858 23.0779 30.4956 18.5887 34.4822C18.5887 34.4822 21.3838 27.1876 18.3346 25.576L23.9249 20.0626Z" fill="#774726"/>
<path d="M31.4634 37.9599C31.7175 38.0448 31.9716 38.2992 32.0563 38.5537C32.141 38.8082 32.0563 39.1474 31.8869 39.4019C30.9552 40.5894 29.2611 42.2858 27.9058 41.6072C26.72 41.0135 26.6353 39.2323 26.72 37.9599C26.72 37.6207 26.9741 37.2814 27.2282 37.1117C27.4823 36.9421 27.9059 36.8573 28.2447 36.9421L31.4634 37.9599Z" fill="#542C23"/>
<path d="M31.2938 37.9601C31.5479 38.0449 31.7173 38.2145 31.802 38.3842C31.8867 38.6386 31.802 38.8083 31.6326 38.9779C30.7856 39.8261 30.2774 39.7413 29.0916 39.402C27.9058 39.0628 27.2282 38.8083 27.3129 37.8753C27.3129 37.6208 27.4823 37.3663 27.7364 37.1967C27.9905 37.027 28.3293 37.027 28.5834 37.1119L31.2938 37.9601Z" fill="#FFF5EB"/>
<path d="M26.0423 27.8663C26.3812 26.594 27.2282 25.7458 27.9059 26.0002C28.6682 26.1699 29.0071 27.3574 28.6682 28.5449C28.3294 29.8172 27.4824 30.6654 26.8047 30.4109C26.0424 30.2413 25.7035 29.1386 26.0423 27.8663Z" fill="#7C4C40"/>
<path d="M34.2585 29.6476C34.5973 28.4601 35.4443 27.6119 36.1219 27.7815C36.7994 27.9511 37.0535 29.1387 36.7148 30.411C36.376 31.5985 35.529 32.4467 34.8514 32.277C34.1739 32.0226 33.9198 30.8351 34.2585 29.6476Z" fill="#7C4C40"/>
<path d="M38.1547 30.4108C38.1547 30.4108 36.5454 28.2903 34.5973 27.951C34.5973 27.951 35.3596 27.2724 36.7148 27.951C37.9853 28.6296 38.1547 30.4108 38.1547 30.4108Z" fill="#7C4C40"/>
<path d="M25.3647 26.4242C25.3647 26.4242 27.9058 25.7457 29.7692 26.6787C29.7692 26.6787 29.5151 25.6608 28.0752 25.4064C26.5506 25.0671 25.3647 26.4242 25.3647 26.4242Z" fill="#7C4C40"/>
<path d="M25.3647 23.0314C26.2118 22.3529 28.9222 20.4868 32.1409 23.5404C29.261 22.0136 27.6517 21.8439 25.3647 23.0314Z" fill="#774726"/>
<path d="M39.6793 28.2055C39.6793 27.2725 39.2558 24.4734 35.0208 24.7278C37.9006 25.3216 39.0864 26.1698 39.6793 28.2055Z" fill="#774726"/>
<path d="M30.4468 34.7368C30.3621 35.585 31.3786 35.8395 32.3103 35.9243C32.4797 35.9243 32.6491 35.9243 32.9032 35.9243C32.5644 36.3484 31.9715 36.5181 31.2938 36.5181C30.2774 36.4333 29.6845 35.8395 29.7692 35.0761C29.8539 34.3127 30.6162 33.4645 30.4468 34.7368Z" fill="#EF8F6F"/>
<path d="M2.1566 88.5983C2.5801 91.3126 19.351 89.8706 33.4961 81.3037C33.4961 81.3037 33.242 80.4555 32.8185 80.6251C24.179 83.6787 1.05548 82.1519 2.1566 88.5983Z" fill="#FFC397"/>
<path d="M10.1185 87.1564C9.69497 85.7144 10.6267 84.5269 12.4054 83.5091C6.30693 84.3573 1.64834 85.6296 2.07184 88.5984C2.49535 91.3126 19.2662 89.8707 33.4114 81.3037C33.4114 81.3037 33.3267 81.0493 33.242 80.8796C22.0614 87.4109 10.7961 89.3618 10.1185 87.1564Z" fill="#F7A27C"/>
<path d="M8.84796 83.0001C8.84796 83.0001 0.54736 84.018 0.12386 85.4599C-0.638441 87.9198 2.32605 91.9912 3.34245 91.8215C5.03645 91.4823 7.66215 86.2233 9.52555 84.1876C10.1184 83.509 8.84796 83.0001 8.84796 83.0001Z" fill="#FFEC9C"/>
<path d="M56.1961 57.7234C57.8901 58.4868 58.3983 59.5895 58.0595 60.777C58.7371 59.4198 58.483 57.9779 56.4502 57.0448C52.808 55.3484 45.6931 58.4868 44.9308 61.71C46.5401 58.7413 52.8927 56.1118 56.1961 57.7234Z" fill="#F7A27C"/>
<path d="M17.0641 124.223C18.2499 124.732 24.6872 125.496 28.1599 122.951C28.1599 122.951 26.1271 125.92 22.5697 126.174C18.9275 126.344 17.0641 124.223 17.0641 124.223Z" fill="#6B3F3B"/>
<path d="M25.5341 107.513C25.4494 107.005 25.1106 106.665 24.7718 106.665C24.433 106.75 24.1789 107.174 24.2636 107.683C24.3483 108.192 24.6871 108.531 25.0259 108.531C25.3647 108.531 25.6188 108.022 25.5341 107.513Z" fill="#FFEC9C"/>
<path d="M24.8565 102.424C24.7718 101.915 24.433 101.576 24.0942 101.661C23.7555 101.746 23.5861 102.17 23.6708 102.679C23.7555 103.188 24.0943 103.527 24.433 103.442C24.7718 103.357 25.0259 102.933 24.8565 102.424Z" fill="#FFEC9C"/>
<path d="M24.5177 96.9108C24.433 96.4019 24.0942 96.0626 23.7553 96.0626C23.4165 96.1474 23.1624 96.5716 23.2471 97.0805C23.3318 97.5894 23.6707 97.9287 24.0095 97.9287C24.3483 97.9287 24.6024 97.4198 24.5177 96.9108Z" fill="#FFEC9C"/>
<path d="M31.7173 75.7054C32.0561 76.0447 36.8841 82.067 46.3706 80.8795L47.4717 79.6072C39.9333 80.3706 36.2912 79.6072 31.7173 75.7054Z" fill="#FCDFB1"/>
<path d="M37.223 74.0939C36.8842 73.8395 32.649 69.2591 34.089 63.7457L35.4443 63.0671C34.936 66.7145 34.1737 69.5136 37.223 74.0939Z" fill="#FCDFB1"/>
<path d="M15.8782 8.86633C15.5394 11.411 15.7935 18.536 21.892 22.8619C21.892 22.8619 19.7744 17.8574 20.8755 14.3797C21.9767 10.902 15.8782 8.86633 15.8782 8.86633Z" fill="#8E542D"/>
<path d="M33.7502 216H41.2886C41.2886 216 37.3924 213.286 35.1054 213.879C34.2584 214.134 34.0043 214.897 33.7502 216Z" fill="#D89F79"/>
<path d="M15.7935 216H21.9767C21.9767 216 19.3509 213.286 17.064 213.879C16.3864 214.134 16.1323 214.897 15.7935 216Z" fill="#D89F79"/>
<path d="M29.7692 82.3215C30.1927 82.6608 31.5479 81.5582 33.496 82.6608C33.8348 82.8305 34.3431 83.1698 34.8513 83.509C35.8677 84.1028 37.1381 84.3573 37.3075 83.9332C37.4769 83.5939 36.4605 83.4242 35.7829 83.0001C35.19 82.6608 34.936 82.576 35.0207 82.4064C35.1054 82.3216 35.9524 82.576 36.9688 82.9153C38.324 83.3394 39.3404 83.4242 39.4251 83.0001C39.5945 82.576 38.5781 82.4912 37.3923 82.0671C36.3759 81.643 35.9524 81.5582 36.1218 81.1341C36.2065 80.9644 36.7994 81.134 37.9852 81.2189C39.3404 81.3037 40.1874 81.134 40.1874 80.7948C40.1874 80.2858 39.5098 80.6251 37.9852 80.2858C36.1218 79.9466 34.4278 79.8617 33.7502 79.0983C33.1573 78.4198 34.6818 77.1474 33.9195 76.893C33.3266 76.7233 32.649 78.1653 31.5479 79.9465C30.7009 81.3885 29.3457 81.8974 29.7692 82.3215Z" fill="#FFC397"/>
<path d="M44.592 86.8171C44.1685 87.1564 42.8133 87.9198 40.9498 89.0224C40.611 89.1921 40.1028 89.5314 39.5946 89.9555C38.6628 90.5492 37.3923 90.8885 37.2229 90.5492C37.0535 90.2099 37.9852 90.0403 38.7475 89.6162C39.3405 89.2769 39.5099 89.1073 39.4252 89.0224C39.3405 88.9376 38.5782 89.2769 37.5617 89.6162C36.2912 90.1251 35.2748 90.2099 35.1054 89.8707C34.936 89.4465 35.8677 89.3617 37.0535 88.8528C37.9852 88.4287 38.4087 88.2591 38.324 87.9198C38.2393 87.7501 37.6464 87.9198 36.5453 88.0894C35.2748 88.2591 34.343 88.1742 34.343 87.8349C34.343 87.326 35.0206 87.5805 36.4606 87.2412C38.2393 86.8171 39.9334 86.6474 40.5263 85.884C41.0345 85.2055 39.5099 84.1028 40.2722 83.8483C40.6957 83.6787 41.2039 84.2724 41.9662 85.2903C42.3897 85.884 43.0674 86.5626 44.3379 85.7992C45.1849 85.1207 44.9308 86.4778 44.592 86.8171Z" fill="#FFC397"/>
<path d="M55.603 62.0494C55.9418 61.8797 56.0265 61.6252 55.8571 61.3708C55.6877 61.1163 55.2642 61.1163 55.0101 61.286C54.6713 61.4556 54.5866 61.7101 54.756 61.9645C54.9254 62.1342 55.3489 62.219 55.603 62.0494Z" fill="#7C4C40"/>
<path d="M52.3844 58.9109C52.7232 58.8261 52.8079 58.5717 52.6385 58.402C52.4691 58.2324 52.1303 58.1476 51.7915 58.2324C51.4528 58.3172 51.3681 58.5717 51.5375 58.7413C51.7069 58.9958 52.0456 59.0806 52.3844 58.9109Z" fill="#7C4C40"/>
<path d="M52.4691 61.9644C52.3844 61.1162 51.368 60.4376 50.0975 60.4376C48.827 60.4376 47.8953 61.1162 47.98 61.9644C48.0647 62.8126 49.081 63.4912 50.3515 63.4912C51.6221 63.576 52.5538 62.8126 52.4691 61.9644Z" fill="#F7A27C"/>
<path d="M52.6386 61.5403C52.5539 60.6921 51.5375 60.0135 50.267 60.0135C48.9965 60.0135 48.0648 60.6921 48.1495 61.5403C48.2342 62.3886 49.2506 63.0671 50.5211 63.0671C51.7069 63.0671 52.7233 62.3886 52.6386 61.5403Z" fill="#80CFE5"/>
<path d="M52.4693 61.1162C52.3846 60.5225 51.5376 60.0135 50.5212 60.0135C49.5048 60.0135 48.7424 60.5225 48.7424 61.1162C48.8271 61.71 49.6742 62.2189 50.6906 62.2189C51.707 62.2189 52.4693 61.71 52.4693 61.1162Z" fill="#B6F1FF"/>
<path d="M51.368 61.2011C51.368 60.6922 50.8598 60.2681 50.3516 60.2681C49.8434 60.2681 49.4199 60.6922 49.4199 61.2011C49.4199 61.7101 49.8434 61.6252 50.4363 61.6252C50.9445 61.6252 51.368 61.7101 51.368 61.2011Z" fill="#80CFE5"/>
</g>
<defs>
<clipPath id="clip0_4_10129">
<rect width="61" height="216" fill="white"/>
</clipPath>
</defs>
</svg>
