<svg width="19" height="18" viewBox="0 0 19 18" fill="none" xmlns="http://www.w3.org/2000/svg">
<path d="M7.07532 0C8.79922 0 10.4525 0.684819 11.6715 1.90381C12.8905 3.12279 13.5753 4.77609 13.5753 6.5C13.5753 8.11 12.9853 9.59 12.0153 10.73L12.2853 11H13.0753L18.0753 16L16.5753 17.5L11.5753 12.5V11.71L11.3053 11.44C10.1259 12.4468 8.62603 12.9999 7.07532 13C5.35141 13 3.69811 12.3152 2.47912 11.0962C1.26014 9.87721 0.575317 8.22391 0.575317 6.5C0.575317 4.77609 1.26014 3.12279 2.47912 1.90381C3.69811 0.684819 5.35141 0 7.07532 0ZM7.07532 2C4.57532 2 2.57532 4 2.57532 6.5C2.57532 9 4.57532 11 7.07532 11C9.57532 11 11.5753 9 11.5753 6.5C11.5753 4 9.57532 2 7.07532 2Z" fill="#5E727C"/>
</svg>
