<svg width="15" height="15" viewBox="0 0 15 15" fill="none" xmlns="http://www.w3.org/2000/svg">
<path d="M13.6929 7.2705C13.6929 11.0299 10.7766 14.041 7.22333 14.041C3.67001 14.041 0.753784 11.0299 0.753784 7.2705C0.753784 3.51112 3.67001 0.5 7.22333 0.5C10.7766 0.5 13.6929 3.51112 13.6929 7.2705Z" stroke="white"/>
<path d="M10.3113 5.94272C10.3143 6.00001 10.3154 6.058 10.3154 6.11529C10.3154 7.87996 8.87722 9.9141 6.24736 9.9141C5.43942 9.9141 4.6883 9.69308 4.05536 9.31397C4.42974 9.35624 4.80936 9.32921 5.17255 9.23443C5.53573 9.13965 5.87534 8.97897 6.17198 8.76159C5.87366 8.75632 5.58456 8.66415 5.34509 8.49796C5.10563 8.33178 4.92778 8.09988 4.8364 7.83469C5.05081 7.87213 5.27148 7.86427 5.48222 7.81171C5.1586 7.75044 4.86761 7.58659 4.65858 7.34793C4.44955 7.10927 4.33533 6.81047 4.33528 6.50218V6.48556C4.53383 6.58868 4.7559 6.64603 4.98299 6.65283C4.67992 6.46419 4.46538 6.17468 4.38316 5.84338C4.30094 5.51208 4.35725 5.16398 4.54058 4.87013C4.89958 5.28263 5.34751 5.62002 5.85527 5.86037C6.36304 6.10073 6.91927 6.23867 7.48786 6.26524C7.46326 6.16538 7.45093 6.06322 7.45112 5.96075C7.45112 5.7855 7.48809 5.61197 7.55994 5.45006C7.63178 5.28816 7.73709 5.14105 7.86983 5.01714C8.00258 4.89324 8.16017 4.79496 8.33361 4.72793C8.50704 4.6609 8.69292 4.62642 8.88063 4.62647C9.07625 4.62617 9.26986 4.6634 9.44943 4.73585C9.62901 4.80831 9.79072 4.91443 9.92455 5.04765C10.2447 4.98849 10.5517 4.87895 10.8325 4.72372C10.7257 5.03287 10.5022 5.29528 10.2037 5.46212C10.4871 5.43075 10.7639 5.35994 11.0249 5.25206C10.8332 5.52027 10.5915 5.7542 10.3113 5.94272Z" fill="white"/>
</svg>
