<svg width="34" height="28" viewBox="0 0 34 28" fill="none" xmlns="http://www.w3.org/2000/svg">
<path d="M30.5893 14C30.5893 21.476 24.7849 27.5 17.6688 27.5C10.5528 27.5 4.74835 21.476 4.74835 14C4.74835 6.52402 10.5528 0.5 17.6688 0.5C24.7849 0.5 30.5893 6.52402 30.5893 14Z" stroke="#5E727C"/>
<path d="M23.6149 11.4436C23.6207 11.554 23.6229 11.6656 23.6229 11.776C23.6229 15.174 20.8535 19.0909 15.7895 19.0909C14.2337 19.0909 12.7874 18.6653 11.5686 17.9353C12.2895 18.0167 13.0205 17.9647 13.7198 17.7821C14.4192 17.5996 15.0731 17.2902 15.6443 16.8716C15.0699 16.8615 14.5132 16.684 14.0521 16.364C13.591 16.044 13.2485 15.5975 13.0725 15.0868C13.4854 15.1589 13.9103 15.1438 14.3161 15.0426C13.693 14.9246 13.1326 14.6091 12.7301 14.1495C12.3276 13.6899 12.1077 13.1146 12.1076 12.5209V12.4889C12.4899 12.6875 12.9175 12.7979 13.3548 12.811C12.7712 12.4478 12.3581 11.8903 12.1998 11.2524C12.0415 10.6144 12.1499 9.94413 12.5029 9.37828C13.1942 10.1726 14.0567 10.8223 15.0345 11.2851C16.0122 11.7479 17.0833 12.0135 18.1782 12.0647C18.1308 11.8724 18.1071 11.6757 18.1074 11.4784C18.1074 11.1409 18.1786 10.8068 18.317 10.495C18.4553 10.1832 18.6581 9.89997 18.9137 9.66138C19.1693 9.42279 19.4728 9.23355 19.8067 9.10447C20.1407 8.97539 20.4986 8.909 20.8601 8.90909C21.2368 8.90852 21.6096 8.98021 21.9553 9.11973C22.3011 9.25924 22.6125 9.4636 22.8702 9.72012C23.4866 9.6062 24.0778 9.39527 24.6185 9.09636C24.4129 9.69166 23.9826 10.197 23.4078 10.5182C23.9535 10.4578 24.4865 10.3215 24.989 10.1137C24.6199 10.6302 24.1545 11.0806 23.6149 11.4436Z" fill="#5E727C"/>
</svg>
