<svg width="15" height="15" viewBox="0 0 15 15" fill="none" xmlns="http://www.w3.org/2000/svg">
<path d="M14.136 7.2705C14.136 11.0067 11.0866 14.041 7.31802 14.041C3.54945 14.041 0.5 11.0067 0.5 7.2705C0.5 3.53432 3.54945 0.5 7.31802 0.5C11.0866 0.5 14.136 3.53432 14.136 7.2705Z" stroke="white"/>
<path fill-rule="evenodd" clip-rule="evenodd" d="M9.84023 8.53081C9.84023 8.53081 10.4319 9.17702 10.5782 9.47605C10.5811 9.48037 10.5833 9.48514 10.5848 9.49021C10.6445 9.60068 10.6591 9.68728 10.6298 9.75121C10.5804 9.85682 10.4132 9.90983 10.3565 9.91428H9.31077C9.23795 9.91428 9.08647 9.89324 8.90205 9.75242C8.76118 9.64357 8.62104 9.46432 8.48529 9.28911C8.28258 9.02892 8.10732 8.80313 7.92985 8.80313C7.90744 8.80308 7.88518 8.80718 7.86399 8.81527C7.72971 8.86221 7.5592 9.07384 7.5592 9.6375C7.5592 9.81393 7.43333 9.91428 7.34514 9.91428H6.86618C6.70299 9.91428 5.85336 9.85116 5.09997 8.97268C4.1768 7.89714 3.34767 5.73958 3.33962 5.72057C3.28803 5.58096 3.39634 5.50489 3.51342 5.50489H4.56942C4.71102 5.50489 4.75712 5.59958 4.78932 5.68455C4.82664 5.78207 4.96496 6.17215 5.19181 6.61037C5.55918 7.32335 5.78494 7.61348 5.96533 7.61348C5.99922 7.61359 6.03254 7.60382 6.06193 7.58516C6.29757 7.44191 6.25366 6.51124 6.24268 6.31944C6.24268 6.28221 6.24232 5.90387 6.12157 5.72097C6.03522 5.58987 5.88812 5.53888 5.79921 5.52027C5.82299 5.48223 5.87349 5.42396 5.93825 5.38957C6.09962 5.30055 6.39124 5.2876 6.68067 5.2876H6.8413C7.15524 5.29245 7.23647 5.31471 7.35063 5.34668C7.58042 5.40737 7.58481 5.57206 7.56468 6.1329C7.55883 6.29313 7.55261 6.4736 7.55261 6.68604C7.55261 6.73136 7.55078 6.78194 7.55078 6.83333C7.54383 7.12103 7.53468 7.44515 7.71836 7.57828C7.74219 7.59469 7.7697 7.60338 7.79776 7.60337C7.86143 7.60337 8.05207 7.60337 8.56908 6.62211C8.79594 6.18874 8.97158 5.67767 8.98365 5.63923C8.9939 5.61779 9.02463 5.55749 9.06195 5.53322C9.0885 5.51759 9.11824 5.50979 9.14831 5.51056H10.3905C10.5259 5.51056 10.6178 5.53322 10.6357 5.58987C10.6657 5.68172 10.6298 5.96214 10.0627 6.81027C9.96719 6.95149 9.8834 7.07369 9.80986 7.18052C9.29576 7.92668 9.29576 7.96431 9.84023 8.53081Z" fill="white"/>
</svg>
