<svg width="35" height="28" viewBox="0 0 35 28" fill="none" xmlns="http://www.w3.org/2000/svg">
<path d="M31.5261 14C31.5261 21.4528 25.4441 27.5 17.9346 27.5C10.4252 27.5 4.34314 21.4528 4.34314 14C4.34314 6.54722 10.4252 0.5 17.9346 0.5C25.4441 0.5 31.5261 6.54722 31.5261 14Z" stroke="#5E727C"/>
<path fill-rule="evenodd" clip-rule="evenodd" d="M22.7913 16.4269C22.7913 16.4269 23.9306 17.6713 24.2124 18.2471C24.2179 18.2554 24.2222 18.2646 24.2251 18.2743C24.34 18.4871 24.3682 18.6538 24.3118 18.7769C24.2167 18.9803 23.8947 19.0823 23.7855 19.0909H21.7718C21.6316 19.0909 21.3399 19.0504 20.9848 18.7792C20.7135 18.5696 20.4437 18.2245 20.1823 17.8871C19.7919 17.3861 19.4544 16.9513 19.1127 16.9513C19.0696 16.9512 19.0267 16.9591 18.9859 16.9747C18.7273 17.0651 18.399 17.4726 18.399 18.558C18.399 18.8977 18.1566 19.0909 17.9868 19.0909H17.0645C16.7503 19.0909 15.1143 18.9694 13.6635 17.2778C11.8859 15.2067 10.2893 11.0522 10.2738 11.0155C10.1745 10.7467 10.383 10.6002 10.6085 10.6002H12.6419C12.9146 10.6002 13.0033 10.7826 13.0653 10.9462C13.1372 11.134 13.4035 11.8851 13.8404 12.7289C14.5478 14.1019 14.9825 14.6605 15.3299 14.6605C15.3951 14.6607 15.4593 14.6419 15.5159 14.606C15.9696 14.3302 15.8851 12.5381 15.8639 12.1687C15.8639 12.097 15.8632 11.3685 15.6307 11.0163C15.4644 10.7639 15.1812 10.6657 15.01 10.6298C15.0558 10.5566 15.153 10.4444 15.2777 10.3782C15.5884 10.2068 16.15 10.1818 16.7073 10.1818H17.0166C17.6211 10.1912 17.7776 10.234 17.9974 10.2956C18.4399 10.4125 18.4483 10.7296 18.4096 11.8095C18.3983 12.1181 18.3863 12.4656 18.3863 12.8747C18.3863 12.9619 18.3828 13.0593 18.3828 13.1583C18.3694 13.7123 18.3518 14.3364 18.7055 14.5927C18.7514 14.6243 18.8043 14.6411 18.8584 14.641C18.981 14.641 19.3481 14.641 20.3436 12.7515C20.7805 11.917 21.1187 10.9329 21.1419 10.8589C21.1616 10.8176 21.2208 10.7015 21.2927 10.6548C21.3438 10.6247 21.4011 10.6097 21.459 10.6111H23.851C24.1117 10.6111 24.2885 10.6548 24.3231 10.7639C24.3808 10.9407 24.3118 11.4807 23.2197 13.1139C23.0358 13.3858 22.8745 13.6211 22.7328 13.8268C21.7429 15.2636 21.7429 15.3361 22.7913 16.4269Z" fill="#5E727C"/>
</svg>
